<?xml version="1.0" encoding="UTF-8" standalone="no"?>
<!DOCTYPE svg PUBLIC "-//W3C//DTD SVG 1.1//EN" "http://www.w3.org/Graphics/SVG/1.1/DTD/svg11.dtd">
<!-- Created with Vectornator (http://vectornator.io/) -->
<svg height="100%" stroke-miterlimit="10" style="fill-rule:nonzero;clip-rule:evenodd;stroke-linecap:round;stroke-linejoin:round;" version="1.1" viewBox="0 0 250 250" width="100%" xml:space="preserve" xmlns="http://www.w3.org/2000/svg" xmlns:vectornator="http://vectornator.io" xmlns:xlink="http://www.w3.org/1999/xlink">
<defs/>
<clipPath id="ArtboardFrame">
<rect height="250" width="250" x="0" y="0"/>
</clipPath>
<g clip-path="url(#ArtboardFrame)" id="Untitled" vectornator:layerName="Untitled">
<g opacity="1">
<clipPath id="ClipPath">
<path d="M-151.801-58.1709L398.199-58.1709L398.199 311.829L-151.801 311.829L-151.801-58.1709Z" fill-rule="evenodd"/>
</clipPath>
<g clip-path="url(#ClipPath)">
<path d="M215.93 102.415C215.93 153.629 174.413 195.146 123.199 195.146C71.9856 195.146 30.4686 153.629 30.4686 102.415C30.4686 51.2006 71.9856 9.68356 123.199 9.68356C174.413 9.68356 215.93 51.2006 215.93 102.415" fill="#000000" fill-rule="evenodd" opacity="1" stroke="none"/>
<path d="M210.804 102.415C210.804 150.798 171.582 190.02 123.199 190.02C74.8168 190.02 35.5948 150.798 35.5948 102.415C35.5948 54.0316 74.8168 14.8096 123.199 14.8096C171.582 14.8096 210.804 54.0316 210.804 102.415" fill="#b656d5" fill-rule="evenodd" opacity="1" stroke="none"/>
<path d="M205.212 102.415C205.212 147.709 168.494 184.428 123.199 184.428C77.905 184.428 41.186 147.709 41.186 102.415C41.186 57.1206 77.905 20.4016 123.199 20.4016C168.494 20.4016 205.212 57.1206 205.212 102.415" fill="#72159a" fill-rule="evenodd" opacity="1" stroke="none"/>
<g opacity="0.25">
<clipPath id="ClipPath_2">
<path d="M14.1201 216.411L232.278 216.411L232.278 184.895L14.1201 184.895L14.1201 216.411Z" fill-rule="evenodd"/>
</clipPath>
<g clip-path="url(#ClipPath_2)">
<path d="M232.278 200.653C232.278 209.356 183.442 216.411 123.199 216.411C62.9561 216.411 14.1201 209.356 14.1201 200.653C14.1201 191.95 62.9561 184.895 123.199 184.895C183.442 184.895 232.278 191.95 232.278 200.653" fill="#000000" fill-rule="evenodd" opacity="1" stroke="none"/>
</g>
</g>
<path d="M68.2344 75.8348C72.4184 74.9268 78.8674 73.6498 86.8224 72.5868C97.2154 71.1978 100.079 71.5248 119.307 70.2858C138.416 69.0538 141.562 68.3458 150.709 68.7968C158.403 69.1758 164.689 70.0958 168.846 70.8268C170.81 71.4118 173.102 72.1288 175.659 72.9928C177.975 73.7748 179.276 74.2608 179.9 75.5188C180.228 76.1808 180.085 76.4828 180.532 78.1808C180.841 79.3578 181.006 79.5798 181.569 81.2038C181.928 82.2378 182.153 83.8628 183.194 86.9338C183.378 87.4768 183.66 88.2808 183.645 89.3698C183.626 90.7168 183.162 91.7988 182.788 92.4828C182.669 92.9618 182.449 93.6238 182.021 94.3328C181.643 94.9568 181.226 95.4168 180.893 95.7318C181.545 97.0558 182.264 98.8348 182.742 101.011C183.162 102.92 183.282 104.618 183.284 105.974C184.423 107.568 185.929 109.852 187.435 112.741C192.297 122.074 193.325 130.395 193.751 134.127C193.834 134.856 194.473 140.654 193.917 146.546C193.882 146.918 193.854 147.177 193.841 147.301C193.463 151.104 192.786 154.342 192.127 156.866C191.584 158.551 191.154 160.753 191.405 163.273C191.449 163.712 191.51 164.134 191.585 164.536C192.275 166.334 194.593 172.942 191.315 177.259C191.057 177.598 190.759 177.932 190.412 178.252C188.85 178.871 185.884 179.787 182.201 179.335C180.258 179.096 178.668 178.544 177.509 178.026C176.849 178.69 175.566 179.796 173.629 180.418C172.496 180.781 171.485 180.868 170.741 180.869C161.377 183.083 150.536 184.931 138.437 185.741C132.505 186.139 126.881 186.245 121.608 186.147C114.469 186.486 104.694 186.012 93.8614 182.493C89.9084 181.209 86.3864 179.705 83.3034 178.162C82.0994 177.558 80.3714 176.533 78.7014 174.846C77.3404 173.47 76.7774 172.423 73.9644 167.401C71.4674 162.943 70.1784 160.697 68.2114 159.821C66.9524 159.261 65.7424 159.184 64.8954 159.212C64.2234 159.417 63.5474 159.62 62.8654 159.821C61.4304 160.245 60.0094 160.651 58.6014 161.04C55.4814 161.567 54.5444 160.939 54.2024 160.43C53.4064 159.243 54.9094 157.285 56.9774 152.242C57.7834 150.277 58.3434 148.654 58.6694 147.662C55.9384 139.875 53.6904 129.349 55.3754 117.388C55.6254 115.616 55.9474 113.916 56.3234 112.29C57.0084 110.007 57.6604 108.197 58.1284 106.966C58.7454 105.341 59.2184 104.269 59.9324 102.229C60.4044 100.883 60.7524 99.7698 60.9704 99.0478C60.7734 98.9468 57.3664 97.1268 57.1354 93.4758C56.9974 91.2958 58.0704 89.6978 58.4444 89.1898C60.0034 87.5528 60.5614 86.2218 60.7904 85.4898C60.8944 85.1558 61.0604 84.5248 61.1964 83.9558C61.4664 82.8188 61.5714 82.0978 61.6474 81.6998C61.7324 81.2518 62.2224 78.5468 64.2194 77.0078C65.6194 75.9288 67.2634 75.8048 68.2344 75.8348" fill="#020202" fill-rule="evenodd" opacity="1" stroke="none"/>
<path d="M70.2083 80.1323C72.1033 79.4133 72.4803 79.0653 72.4413 78.8803C72.3573 78.4763 70.2353 78.6153 69.0583 78.7783C67.5633 78.9863 66.5733 79.1383 65.9113 79.9633C65.3833 80.6203 65.3053 81.4043 65.3013 81.8583C65.3493 82.5213 65.3373 83.6303 64.8623 84.8693C64.5923 85.5733 64.2473 86.1263 63.9483 86.5273C63.3133 86.5393 63.0543 86.7333 62.9333 86.9003C62.7203 87.1943 62.8713 87.4983 62.6623 88.1183C62.5563 88.4323 62.4253 88.6303 62.3243 88.7953C61.3563 90.3723 60.2783 92.1313 60.6663 93.3973C60.8633 94.0403 61.3403 94.5933 62.5943 95.1223C63.6103 95.5513 64.6253 95.9803 65.6403 96.4083C65.5143 97.4543 65.2713 98.9523 64.7603 100.706C64.4943 101.619 64.2373 102.319 64.0163 102.905C62.7693 106.196 61.4713 108.903 61.4103 109.03C58.7913 114.496 58.3803 121.369 58.3083 122.576C58.0753 126.482 58.4703 129.523 58.7143 131.329C58.9193 132.845 59.4083 135.934 60.5643 139.766C62.0213 144.594 62.8813 145.116 63.1363 147.707C63.3553 149.931 63.0303 152.69 61.3763 155.963C62.7853 155.582 67.1223 154.609 71.5733 156.775C72.0273 156.996 77.0293 159.515 78.7013 164.445C79.2053 165.929 79.3783 167.546 80.6873 170.04C81.3983 171.396 82.1413 172.431 82.6723 173.108C85.7093 174.649 90.2313 176.706 95.9363 178.432C98.4833 179.202 108.143 181.986 128.421 181.771C136.501 181.685 147.289 181.112 159.981 179.109C167.47 177.62 174.96 176.131 182.449 174.642C183.097 174.765 185.133 175.065 186.713 173.875C188.854 172.261 189.425 168.461 187.39 165.032C187.048 164.777 186.497 164.288 186.126 163.498C185.369 161.884 185.98 160.323 186.104 160.024C186.425 159.111 186.883 157.74 187.344 156.054C188.439 152.058 191.343 140.934 187.999 127.742C187.313 125.036 186.115 121.265 183.916 116.982C182.807 115.239 181.701 113.256 180.69 111.026C177.703 104.44 176.711 98.2873 176.426 93.7013C176.705 93.6673 179.439 93.3013 180.114 91.4343C180.376 90.7123 180.233 90.0333 180.047 89.2013C179.557 87.0113 178.635 86.9803 178.186 85.2423C177.667 83.2383 178.648 82.3343 177.78 80.5043C177.496 79.9073 177.143 79.4793 176.9 79.2183C175.801 78.2693 174.789 77.7013 174.057 77.3573C172.711 76.7243 171.418 76.4253 169.015 75.8683C168.437 75.7343 167.957 75.6323 167.628 75.5643C164.635 79.4523 161.774 82.0543 159.913 83.5953C159.913 83.5953 135.82 103.544 82.4013 88.9193C81.3003 88.6173 78.9093 87.9423 76.2653 86.2123C73.2683 84.2503 71.3543 81.8543 70.2083 80.1323" fill="#8e829f" fill-rule="evenodd" opacity="1" stroke="none"/>
<path d="M164.375 147.171C163.606 149.12 161.072 155.043 155.496 160.836C146.736 169.932 136.232 172.726 131.576 173.646C129.454 173.614 125.924 173.559 121.56 173.559C114.424 173.57 109.314 173.722 108.48 173.743C103.694 173.841 95.2795 172.466 79.2105 166.229C79.0265 165.59 78.8855 165.005 78.7015 164.442C77.0345 159.515 72.0315 156.992 71.5765 156.776C67.1265 154.61 62.7845 155.584 61.3765 155.963C63.0335 152.693 63.3585 149.932 63.1305 147.712C62.8815 145.114 62.0265 144.594 60.5645 139.765C59.4055 135.931 58.9185 132.845 58.7125 131.329C58.4745 129.521 58.0735 126.478 58.3125 122.58C58.3775 121.367 58.7885 114.491 61.4095 109.034C61.4735 108.904 62.7735 106.197 64.0185 102.905C64.1055 102.656 64.2025 102.396 64.3105 102.104C65.8055 102.115 67.4185 102.255 69.0865 102.569C72.5075 103.219 74.9225 104.367 76.4065 105.071C91.8145 112.38 93.0595 112.77 96.0265 113.798C102.773 116.148 108.339 116.126 114.024 116.105C122.686 116.061 125.567 114.416 142.047 113.127C146.628 112.77 149.118 112.683 152.334 113.398C154.023 113.777 163.617 115.91 166.541 123.273C167.223 124.984 167.245 126.554 167.288 129.705C167.342 133.322 167.364 139.667 164.375 147.171" fill="#d7cde5" fill-rule="evenodd" opacity="1" stroke="none"/>
<path d="M66.5199 118.065C67.3829 114.824 68.5219 110.406 71.0539 110.012C71.8189 109.892 72.7149 110.125 76.2649 112.854C78.9039 114.882 80.9699 116.722 82.4009 118.065C83.2119 118.743 84.7399 119.955 86.8229 121.178C97.3039 127.332 109.907 126.76 118.902 126.254C125.241 125.897 126.318 125.288 129.256 126.186C138.443 128.994 142.124 139.29 142.318 139.857C143.203 142.451 144.908 147.449 142.859 152.377C139.841 159.633 130.744 161.775 120.932 164.085C110.919 166.442 103.116 165.822 100.629 165.574C92.1959 164.732 85.5979 162.247 81.4089 160.295C80.0949 159.686 78.0649 158.761 75.5429 157.678C72.1569 156.225 72.3449 156.403 71.9339 156.144C67.9619 153.647 67.2669 147.635 66.7909 143.511C66.4099 140.219 66.9139 140.862 66.5199 135.932C66.0949 130.612 65.4929 129.664 65.5269 125.825C65.5609 121.996 66.1919 119.296 66.5199 118.065" fill="#ece7f2" fill-rule="evenodd" opacity="1" stroke="none"/>
<path d="M180.119 91.4382C179.437 93.3012 176.708 93.6692 176.427 93.7012C175.236 94.0582 173.492 94.6322 171.467 95.5092C165.555 98.0542 161.787 101.173 160.368 102.277C155.063 106.37 149.172 107.984 140.693 110.301C125.285 114.524 111.436 111.459 99.2757 108.774C90.8617 106.912 78.9617 103.414 65.6427 96.4082C64.6247 95.9752 63.6067 95.5532 62.5897 95.1202C61.3437 94.5892 60.8677 94.0372 60.6617 93.3982C60.2827 92.1312 61.3547 90.3772 62.3297 88.7962C62.4267 88.6342 62.5567 88.4282 62.6647 88.1142C62.8707 87.4972 62.7187 87.1932 62.9357 86.9012C63.0547 86.7282 63.3147 86.5442 63.9537 86.5332C64.2457 86.1212 64.5927 85.5692 64.8627 84.8652C65.3397 83.6312 65.3507 82.5262 65.2967 81.8552C65.3067 81.4002 65.3827 80.6212 65.9137 79.9602C66.5737 79.1372 67.5597 78.9862 69.0537 78.7802C70.2337 78.6182 72.3567 78.4772 72.4427 78.8772C72.4757 79.0612 72.1077 79.4082 70.2127 80.1332C71.3497 81.8552 73.2657 84.2482 76.2657 86.2082C78.9077 87.9412 81.3007 88.6122 82.4047 88.9152C108.339 96.0182 127.364 94.9682 140.076 92.0122L140.087 92.0122C142.437 91.8502 150.482 91.1782 157.542 87.8112C159.643 86.8142 162.22 85.5802 165.122 83.2842C166.638 82.0832 167.288 81.3462 168.782 80.3722C171.012 78.9102 173.2 78.1842 174.889 77.7952C175.485 78.1302 176.178 78.5852 176.903 79.2132C177.141 79.4842 177.499 79.9062 177.78 80.5022C178.646 82.3322 177.672 83.2412 178.192 85.2442C178.636 86.9772 179.556 87.0092 180.043 89.1972C180.238 90.0302 180.379 90.7132 180.119 91.4382" fill="#d7cde5" fill-rule="evenodd" opacity="1" stroke="none"/>
<path d="M171.857 81.7903C171.554 82.6673 170.828 83.0893 170.612 83.2093C168.554 84.6493 165.555 86.7283 161.895 89.1863C157.022 92.4673 154.034 94.4813 150.352 96.6793C148.988 97.4913 143.173 100.967 139.156 102.721C129.205 107.085 119.308 105.731 111.457 104.659C105.177 103.804 97.2508 101.162 81.4088 95.8673C77.5318 94.5673 73.0598 93.0193 65.3508 90.5393C64.1598 90.1603 63.0228 89.7923 61.9288 89.4563C62.0588 89.2403 62.1998 89.0123 62.3298 88.7963C62.4268 88.6343 62.5568 88.4283 62.6648 88.1143C62.8708 87.4963 62.7188 87.1933 62.9358 86.9013C63.0548 86.7283 63.3148 86.5443 63.9538 86.5333C64.2458 86.1213 64.5928 85.5693 64.8628 84.8653C65.3398 83.6313 65.3508 82.5263 65.2958 81.8553C65.3068 81.4003 65.3828 80.6203 65.9138 79.9603C66.5738 79.1373 67.5598 78.9853 69.0538 78.7803C70.2338 78.6173 72.3568 78.4773 72.4428 78.8773C72.4758 79.0613 72.1068 79.4083 70.2118 80.1333C71.3488 81.8553 73.2658 84.2483 76.2648 86.2083C78.9078 87.9403 81.3008 88.6123 82.4048 88.9153C135.821 103.544 159.913 83.5983 159.913 83.5983C161.148 82.5703 162.826 81.0753 164.699 79.0403C166.237 79.3753 167.764 79.7113 169.301 80.0473C169.984 79.3213 170.98 79.2023 171.554 79.6243C172.388 80.2313 171.9 81.6713 171.857 81.7903" fill="#ece7f2" fill-rule="evenodd" opacity="1" stroke="none"/>
<path d="M95.435 94.8297C95.508 95.8827 95.718 97.5777 96.421 99.5177C96.421 99.5187 96.739 100.396 97.451 101.679C98.664 103.865 99.964 105.332 100.848 106.279C105.739 111.529 108.185 114.153 111.794 116.663C114.771 118.732 118.947 121.578 125.156 123.102C127.273 123.621 129.897 124.272 133.406 124.108C136.171 123.978 141.739 123.717 146.022 119.52C148.362 117.228 149.311 114.748 149.705 113.685C150.305 112.064 151.937 107.706 150.006 103.342C148.532 100.008 145.672 98.2357 144.755 97.6667C142.287 96.1377 140.692 96.2237 135.337 93.8037C134.207 93.2927 133.298 92.8457 132.721 92.5557C133.94 92.0367 135.25 91.3877 136.605 90.5737C137.136 90.2547 137.639 89.9317 138.114 89.6077C145.871 90.0627 151.875 88.5277 155.419 87.3237C159.052 86.0897 164.358 84.2197 169.022 79.3157C171.238 76.9857 173.877 74.1287 174.254 69.7377C174.296 69.2447 174.593 65.1277 172.161 61.5677C168.834 56.6977 161.61 54.6437 154.232 56.6777C153.97 55.6307 153.59 54.4197 153.025 53.1167C152.541 52.0007 152.017 51.0347 151.516 50.2187C151.826 48.2367 152.05 45.1277 151.153 41.5257C150.735 39.8447 150.25 37.8967 148.739 35.8517C145.914 32.0287 141.821 31.0027 141.133 30.8407C136.626 29.7827 133.042 31.4827 131.595 32.1687C127.235 34.2367 125.035 37.6807 124.23 39.1117C123.778 38.1797 121.334 33.3747 115.779 31.6257C110.662 30.0147 104.9 31.6227 100.928 35.7307C99.863 34.8917 98.405 33.9887 96.542 33.4767C88.896 31.3787 81.454 37.8127 79.72 39.3127C77.545 41.1927 76.028 43.1527 75.091 44.3637C72.467 47.7547 71.026 50.7117 70.685 51.4257C69.679 53.5357 66.306 60.8527 67.485 70.4417C67.739 72.5047 68.151 75.6417 69.9 79.3157C72.71 85.2197 77.104 88.5867 79.438 90.1207C81.548 91.4127 84.618 92.9617 88.553 93.9237C91.169 94.5647 93.52 94.7877 95.435 94.8297" fill="#000000" fill-rule="evenodd" opacity="1" stroke="none"/>
<path d="M97.3323 99.196C97.3563 99.261 97.6563 100.058 98.2953 101.21C99.3983 103.196 100.562 104.554 101.554 105.62C106.391 110.811 108.819 113.417 112.345 115.869C115.084 117.773 119.223 120.652 125.385 122.163C127.471 122.675 130.025 123.303 133.36 123.143C136.146 123.012 141.327 122.768 145.345 118.83C147.582 116.638 148.465 114.249 148.798 113.349C149.375 111.793 150.886 107.718 149.123 103.732C147.769 100.672 145.118 99.029 144.246 98.489C143.056 97.751 142.1 97.424 140.654 96.928C139.273 96.455 137.554 95.865 134.939 94.684C133.793 94.166 132.872 93.712 132.287 93.419L130.427 92.484L132.342 91.667C133.64 91.113 134.906 90.467 136.107 89.746C136.622 89.436 137.109 89.123 137.57 88.809L137.842 88.624L138.17 88.644C144.035 88.988 149.734 88.237 155.108 86.409C158.331 85.314 163.724 83.484 168.321 78.65C170.378 76.489 172.936 73.8 173.291 69.655C173.328 69.225 173.588 65.369 171.363 62.113C168.215 57.504 161.432 55.697 154.488 57.609L153.534 57.872L153.294 56.912C153.004 55.749 152.615 54.601 152.137 53.5C151.726 52.549 151.239 51.615 150.692 50.724L150.506 50.422L150.56 50.069C151.003 47.251 150.887 44.456 150.215 41.759C149.815 40.147 149.36 38.319 147.961 36.426C145.478 33.066 141.938 32.022 140.912 31.782C136.737 30.802 133.424 32.37 132.009 33.042C128.145 34.873 126.004 37.928 125.07 39.585L124.165 41.194L123.36 39.533C122.755 38.285 120.4 34.093 115.488 32.547C110.765 31.063 105.324 32.573 101.622 36.402L101.015 37.03L100.33 36.489C99.0753 35.501 97.7143 34.8 96.2863 34.408C93.0263 33.514 87.6133 33.765 80.3513 40.042C78.2503 41.86 76.7513 43.796 75.8563 44.953C73.4753 48.03 72.0553 50.796 71.5553 51.842C68.0173 59.263 67.9103 65.989 68.4433 70.324C68.6723 72.183 69.0543 75.294 70.7723 78.901C73.2723 84.153 77.1533 87.463 79.9683 89.314C82.6993 90.984 85.6743 92.226 88.7823 92.986C90.9613 93.519 93.2073 93.814 95.4563 93.864L96.3363 93.884L96.3983 94.763C96.5043 96.287 96.8183 97.776 97.3293 99.188L97.3323 99.196ZM132.3 125.099C129.244 125.1 126.896 124.523 124.967 124.049C118.415 122.442 114.099 119.441 111.242 117.455C107.546 114.885 105.071 112.229 100.141 106.937C99.1313 105.852 97.8163 104.328 96.6073 102.147C96.5963 102.129 95.7673 100.618 95.5233 99.843L95.5133 99.847C95.0383 98.536 94.7153 97.166 94.5513 95.765C92.4523 95.664 90.3613 95.361 88.3233 94.863C85.0203 94.054 81.8613 92.736 78.9333 90.946C75.8863 88.942 71.7203 85.386 69.0273 79.731C67.1753 75.841 66.7693 72.535 66.5263 70.56C65.9613 65.97 66.0733 58.852 69.8123 51.01C70.4663 49.641 71.9223 46.879 74.3273 43.772C75.2683 42.557 76.8403 40.525 79.0873 38.581C86.9953 31.745 93.0803 31.526 96.7973 32.545C98.2173 32.934 99.5733 33.578 100.84 34.463C105.022 30.557 110.908 29.082 116.068 30.704C120.398 32.067 122.99 35.196 124.275 37.224C125.578 35.347 127.786 32.906 131.18 31.297C132.641 30.603 136.523 28.764 141.352 29.901C142.54 30.179 146.64 31.388 149.515 35.277C151.142 37.481 151.668 39.594 152.09 41.293C152.796 44.128 152.941 47.062 152.521 50.017C153.042 50.893 153.509 51.804 153.911 52.733C154.301 53.634 154.637 54.564 154.914 55.508C162.328 53.793 169.491 55.949 172.958 61.023C175.507 64.753 175.286 69.005 175.215 69.82C174.802 74.64 171.865 77.727 169.721 79.981C164.795 85.16 159.12 87.087 155.729 88.239C150.219 90.111 144.387 90.901 138.384 90.59C137.976 90.863 137.548 91.134 137.101 91.402C136.411 91.817 135.7 92.209 134.974 92.574C135.214 92.686 135.468 92.803 135.735 92.924C138.266 94.068 139.937 94.64 141.28 95.1C142.737 95.599 143.889 95.995 145.263 96.846C146.261 97.464 149.294 99.345 150.889 102.951C152.97 107.655 151.261 112.263 150.618 113.998C150.236 115.03 149.243 117.715 146.698 120.209C142.153 124.663 136.278 124.94 133.454 125.073C133.059 125.09 132.674 125.099 132.3 125.099" fill="#000000" fill-rule="evenodd" opacity="1" stroke="none"/>
<path d="M103.833 43.0578C103.512 41.6758 102.994 40.5998 102.578 39.8758C102.578 39.8758 100.648 36.6918 96.9439 35.4088C96.2329 35.1888 95.1929 34.9328 93.9259 34.8558C86.8519 34.4238 81.4019 40.1078 78.6529 42.9748C76.8559 44.8488 71.2019 50.9118 69.5979 60.7828C69.0709 64.0278 67.3929 74.3528 74.0649 83.0578C77.4909 87.5278 81.7379 89.7698 84.1869 90.8258C85.1939 91.2378 86.2879 91.6348 87.4669 91.9928C90.3709 92.8748 93.0479 93.2978 95.3349 93.4818C95.4549 92.6498 95.5759 91.8178 95.6969 90.9868C94.7409 90.4118 90.4959 87.7228 89.5189 82.7568C88.3949 77.0418 92.0469 70.5998 98.7149 67.6848C98.1459 66.5048 97.4589 64.6478 97.5879 62.4128C97.6349 61.5968 97.8249 60.1388 100.727 54.6858C102.905 50.5948 103.587 49.9328 103.947 47.8038C104.346 45.4438 103.958 43.5958 103.833 43.0578" fill="#ef3b85" fill-rule="evenodd" opacity="1" stroke="none"/>
<path d="M96.3806 89.7387C96.4846 89.2957 98.6736 80.5817 106.523 78.1887C106.839 78.0917 112.156 76.5527 117.026 79.0737C119.763 80.4907 122.224 83.1207 123.747 84.7487C124.649 85.7117 125.584 86.6447 126.444 87.6457C127.585 88.9757 128.306 89.9607 129.724 90.8457C130.358 91.2417 130.924 91.4867 131.293 91.6307C140.655 87.1617 145.324 81.7137 147.371 78.9127C148.841 76.9007 149.674 75.2737 149.946 74.7277C152.808 68.9837 153.017 63.5187 152.844 60.3907C152.753 58.7487 152.48 56.3687 151.637 53.5687C151.166 52.4697 150.216 50.6687 148.377 49.1017C147.835 48.6407 143.855 45.2507 139.835 46.4757C138.054 47.0187 136.918 48.2677 135.619 49.6957C134.757 50.6427 134.477 51.2027 132.199 54.3637C131.494 55.3407 130.906 56.1407 130.508 56.6777C129.338 58.5117 127.208 61.3177 123.707 63.7007C119.096 66.8397 114.657 67.5107 113.203 67.6847C110.889 67.9617 108.935 67.8367 107.569 67.6647C106.67 67.6627 105.425 67.7027 103.947 67.8857C103.039 67.9987 102.238 68.0977 101.251 68.3687C101.251 68.3687 99.3526 68.8907 97.5876 69.9787C96.5816 70.5997 90.3086 74.7717 90.8676 81.2467C91.3096 86.3737 95.7216 89.3147 96.3806 89.7387" fill="#2f7dbd" fill-rule="evenodd" opacity="1" stroke="none"/>
<path d="M100.506 67.1214C101.189 66.8924 101.977 66.6764 102.86 66.5174C104.319 66.2554 105.617 66.2234 106.663 66.2764C106.282 65.0964 103.332 55.4784 108.897 48.3474C109.83 47.1524 113.662 42.2414 119.159 42.4914C121.003 42.5754 122.477 43.2154 123.425 43.7394C123.341 42.6504 122.848 37.7984 118.978 34.8254C114.474 31.3644 107.183 31.8234 101.733 36.5354C102.524 37.2364 103.674 38.4304 104.551 40.1974C106.415 43.9544 105.714 47.6144 105.396 48.8904C104.992 50.5114 104.201 51.9024 102.619 54.6854C101.101 57.3574 100.316 58.1544 99.6607 60.3604C98.9687 62.6894 99.1677 64.0744 99.4187 64.9484C99.7017 65.9314 100.164 66.6634 100.506 67.1214" fill="#25b24a" fill-rule="evenodd" opacity="1" stroke="none"/>
<path d="M108.233 66.2763C107.717 64.8353 105.287 57.5893 109.139 50.9433C109.992 49.4703 112.866 44.5113 117.771 44.1823C122.626 43.8563 126.559 48.2633 126.947 48.7093C127.681 49.5553 128.416 50.6413 128.416 50.6413C129.415 52.1193 130.054 53.4533 130.448 54.3843C129.335 56.3043 126.019 61.4343 119.401 64.3443C114.713 66.4063 110.474 66.4283 108.233 66.2763" fill="#f0791e" fill-rule="evenodd" opacity="1" stroke="none"/>
<path d="M131.514 52.7139C133.116 48.1209 137.161 44.9909 141.615 44.8259C146.479 44.6459 149.672 48.0809 150.147 48.6089C150.276 47.1559 150.316 44.9709 149.745 42.4109C149.494 41.2869 149.163 39.8519 148.296 38.2659C148.002 37.7289 146.334 34.7739 143.225 33.1549C137.926 30.3959 130.645 32.6689 127.007 37.1799C125.676 38.8299 125.054 40.5039 124.753 41.5259C124.833 42.7199 124.914 43.9139 124.994 45.1079C126.203 46.0309 127.65 47.3179 129.059 49.0519C130.119 50.3559 130.917 51.6179 131.514 52.7139" fill="#8f75e6" fill-rule="evenodd" opacity="1" stroke="none"/>
<path d="M154.453 58.3079C154.708 61.0599 154.777 65.6039 153.165 70.8639C151.54 76.1679 148.938 79.8069 147.531 81.5689C145.069 84.6529 142.487 86.7179 140.609 88.0079C143.457 88.1719 147.271 88.0649 151.596 87.0019C156.039 85.9109 159.286 84.2369 160.932 83.2999C161.92 82.7379 165.83 80.4509 169.062 76.7799C169.811 75.9289 170.413 75.1299 170.953 74.1239C172.048 72.0859 172.375 70.1609 172.483 68.9209C172.677 66.4449 172.065 64.7669 171.557 63.7809C169.153 59.1229 162.27 56.8039 154.453 58.3079" fill="#f0791e" fill-rule="evenodd" opacity="1" stroke="none"/>
<path d="M99.721 102.295C98.938 101.119 97.054 97.944 97.186 93.562C97.352 88.025 100.618 84.455 101.653 83.42C102.728 82.345 105.33 79.742 109.44 79.315C113.241 78.921 116.172 80.611 117.59 81.428C119.623 82.601 121.012 83.996 121.86 84.99C124.771 88.718 127.718 91.066 129.784 92.475C131.525 93.663 133.597 95.078 136.665 96.218C139.453 97.254 141.366 97.434 144.03 99.116C145.485 100.034 146.531 101.001 147.169 101.651C147.742 102.479 148.553 103.87 148.98 105.756C149.589 108.443 149.07 110.598 148.819 111.591C147.758 115.789 144.957 118.33 143.819 119.248C140.605 121.84 137.249 122.305 135.126 122.598C131.186 123.143 127.912 122.459 125.89 121.844C124.179 121.346 121.842 120.54 119.219 119.218C116.516 117.854 114.653 116.518 113.545 115.717C107.237 111.152 101.371 104.269 99.721 102.295" fill="#24b249" fill-rule="evenodd" opacity="1" stroke="none"/>
<path d="M96.7075 62.7702C95.2785 64.8082 95.3555 66.3732 95.4325 67.0002C95.5195 67.6192 95.7415 68.1792 96.1575 69.0672C93.5005 70.8062 91.5305 73.1432 90.4005 75.7032C89.6085 75.0562 88.7775 74.2152 88.0145 73.1632C84.9235 68.8942 85.2625 64.1902 85.4165 62.7702C85.5905 62.2002 87.1455 57.4582 91.0865 56.3182C91.6755 56.1442 93.1045 55.7292 94.7085 56.3182C95.1815 56.4922 96.6395 57.0132 97.3065 58.4912C98.2525 60.5772 96.7755 62.6732 96.7075 62.7702" fill="#f0a8dc" fill-rule="evenodd" opacity="1" stroke="none"/>
<path d="M79.7598 87.1631C77.8078 87.5091 75.7378 84.1841 75.0108 83.0181C73.8348 81.1301 72.8708 78.7351 73.2398 78.5101C73.7418 78.2051 77.1608 82.8061 78.8748 84.2251C79.2038 84.4981 79.5118 84.7961 79.8398 85.0701C80.6818 85.7731 80.9658 85.9261 80.9668 86.1971C80.9688 86.6021 80.3398 87.0601 79.7598 87.1631" fill="#f0a8dc" fill-rule="evenodd" opacity="1" stroke="none"/>
<path d="M93.8002 89.6308C90.5352 89.4858 82.5962 88.4428 76.6562 81.8558C72.0102 76.6878 71.0922 70.8738 70.8612 68.8168C69.9822 60.6648 73.7782 54.5218 76.7812 49.6728C78.7132 46.5528 82.1612 41.8688 87.9472 37.4838C91.2112 36.0738 94.2932 37.6958 94.7762 39.5898C95.1432 41.0668 94.0322 43.0568 91.9942 44.1678C91.6852 45.6548 91.1052 47.8568 89.9462 50.3398C87.5122 55.5358 85.5032 55.6128 83.7842 59.6988C83.4942 60.3848 80.8092 67.0098 83.9672 72.8538C84.7112 74.2348 85.6002 75.2298 86.2572 75.8768C86.8552 76.4858 87.5412 77.1128 88.3142 77.7408C88.7102 78.0698 89.1062 78.3688 89.5022 78.6488C89.2512 80.0208 89.2512 81.4018 89.5212 82.7538C90.1592 86.0088 92.1972 88.2788 93.8002 89.6308" fill="#c31550" fill-rule="evenodd" opacity="1" stroke="none"/>
<path d="M88.5531 50.7621C88.2661 48.6391 89.4471 46.8181 91.8131 43.2771C93.1371 41.2951 93.6851 40.7701 93.8051 39.5341C93.9511 38.0281 93.2971 37.1711 93.8051 36.4551C94.4401 35.5601 96.2931 35.5571 97.6081 36.0331C101.106 37.2991 101.974 42.3921 102.135 43.3371C102.532 45.6621 102.166 47.5451 101.834 49.2531C101.471 51.1211 101.273 52.0731 100.506 52.9961C98.7941 55.0521 95.9021 55.0491 94.9521 55.0481C94.0371 55.0471 90.8971 55.0441 89.3381 52.8141C89.1821 52.5911 88.7011 51.8601 88.5531 50.7621" fill="#f0a8dc" fill-rule="evenodd" opacity="1" stroke="none"/>
<path d="M83.8747 40.9525C83.6637 41.1585 83.4257 41.4265 83.0297 41.4955C82.9527 41.5095 82.5587 41.5785 82.3357 41.3445C82.1327 41.1335 82.1847 40.7945 82.2147 40.6205C82.3327 39.9265 82.8747 39.3725 83.4827 38.9305C84.6467 38.0835 86.5147 37.3115 86.9837 37.8735C87.1737 38.1015 87.0707 38.4715 87.0437 38.5685C86.9077 39.0575 86.5027 39.1515 85.3837 39.8965C84.4907 40.4905 84.0437 40.7875 83.8747 40.9525" fill="#ffffff" fill-rule="evenodd" opacity="1" stroke="none"/>
<path d="M121.414 42.8927C120.748 42.6807 119.985 42.5257 119.154 42.4867C119.096 42.4867 119.038 42.4777 118.98 42.4867C118.468 41.9457 117.976 41.6857 117.589 41.5597C116.836 41.2987 116.276 41.4537 115.233 40.9807C114.634 40.7097 114.634 40.5747 114.238 40.4397C113.436 40.1597 112.673 40.4687 111.388 41.0377C109.032 42.1107 108.124 42.6517 106.559 43.2597C106.221 43.3947 105.902 43.5007 105.632 43.5977C105.458 42.5157 105.13 41.3667 104.55 40.1977C104.028 39.1447 103.41 38.2947 102.821 37.6387C105.979 34.5667 110.577 33.5137 114.576 35.0107C119.279 36.7687 120.95 41.2317 121.414 42.8927" fill="#007e32" fill-rule="evenodd" opacity="1" stroke="none"/>
<path d="M103.952 66.3632C103.604 66.4022 103.237 66.4502 102.861 66.5182C101.982 66.6722 101.19 66.8942 100.504 67.1162C100.166 66.6622 99.7015 65.9282 99.4215 64.9532C99.1705 64.0742 98.9675 62.6932 99.6625 60.3552C100.243 58.4042 100.929 57.5642 102.136 55.5362C102.03 57.9602 102.271 59.9502 102.561 61.4472C102.89 63.1762 103.45 65.0982 103.952 66.3632" fill="#007e32" fill-rule="evenodd" opacity="1" stroke="none"/>
<path d="M116.305 42.8153C112.355 43.9163 109.66 47.3743 108.897 48.3493C108.076 49.3933 107.448 50.4943 106.955 51.6143C106.386 51.4593 105.526 51.1503 104.831 50.5523C105.072 49.9823 105.265 49.4503 105.4 48.8903C105.623 47.9733 106.057 45.8093 105.574 43.2593C107.603 40.6033 110.79 38.4783 112.924 38.9903C113.35 39.0963 114.335 39.4443 115.136 40.3233C115.136 40.3233 116.015 41.2793 116.305 42.8153" fill="#7cd457" fill-rule="evenodd" opacity="1" stroke="none"/>
<path d="M106.666 66.2763C106.202 66.2573 105.69 66.2473 105.13 66.2663C105.227 65.3683 105.439 64.2863 105.893 63.0403C106.173 64.7213 106.55 65.9093 106.666 66.2763" fill="#7cd457" fill-rule="evenodd" opacity="1" stroke="none"/>
<path d="M118.515 39.2722C118.599 39.3792 118.815 39.6642 119.119 39.6752C119.432 39.6862 119.754 39.4032 119.863 39.1512C120.21 38.3472 118.746 37.0022 117.448 35.8112C116.567 35.0012 115.475 34.1402 114.169 33.9202C113.624 33.8272 113.266 33.8852 113.022 34.1012C112.737 34.3522 112.596 34.8272 112.76 35.1272C112.877 35.3412 113.096 35.3682 113.565 35.5492C113.962 35.7032 114.328 35.9282 114.712 36.1132C115.843 36.6602 117.662 38.1792 118.515 39.2722" fill="#ffffff" fill-rule="evenodd" opacity="1" stroke="none"/>
<path d="M113.686 47.8846C113.451 47.8266 113.287 47.5756 113.243 47.3616C113.212 47.2056 113.208 46.8936 113.807 46.2746C114.534 45.5226 115.798 44.6796 116.221 45.0276C116.39 45.1656 116.388 45.4616 116.362 45.6106C116.321 45.8506 116.166 46.0016 115.839 46.2946C115.301 46.7766 114.974 47.0396 114.974 47.0396C114.052 47.7796 113.912 47.9396 113.686 47.8846" fill="#ffffff" fill-rule="evenodd" opacity="1" stroke="none"/>
<path d="M108.857 53.0761C107.341 56.3431 108.281 60.3391 109.078 60.4211C109.607 60.4741 110.202 58.6391 111.392 54.9671C112.479 51.6171 113.069 49.7991 112.559 49.4941C111.964 49.1381 109.883 50.8651 108.857 53.0761" fill="#fbc30c" fill-rule="evenodd" opacity="1" stroke="none"/>
<path d="M127.982 57.8733C126.166 60.0463 123.384 62.5963 119.405 64.3443C116.633 65.5613 114.025 66.0643 111.891 66.2473C109.264 60.9253 109.167 55.0623 111.91 50.6973C113.475 48.2343 115.6 46.7853 117.164 45.9643C120.777 49.9343 124.379 53.9033 127.982 57.8733" fill="#ea4d22" fill-rule="evenodd" opacity="1" stroke="none"/>
<path d="M130.445 54.3864C129.353 56.2694 126.156 61.2244 119.82 64.1414C115.068 58.4434 113.098 52.2514 115.252 48.1274C115.551 47.5574 116.324 46.0894 117.869 45.5104C121.144 44.2934 126.234 47.7124 130.445 54.3864" fill="#fbc30c" fill-rule="evenodd" opacity="1" stroke="none"/>
<path d="M150.149 48.6105C149.859 48.2825 148.575 46.9005 146.517 45.8965L146.517 45.8865C146.768 41.0575 144.779 36.7495 141.292 34.8085C138.385 33.1955 135.362 33.7365 134.376 33.9195C128.176 35.0405 125.181 40.6805 124.756 41.5215C125.056 40.5065 125.674 38.8265 127.007 37.1745C130.648 32.6645 137.931 30.3945 143.224 33.1565C146.334 34.7695 148.005 37.7255 148.295 38.2665C149.164 39.8505 149.492 41.2895 149.743 42.4095C150.313 44.9695 150.275 47.1525 150.149 48.6105" fill="#6129b0" fill-rule="evenodd" opacity="1" stroke="none"/>
<path d="M145.861 38.0851C145.415 37.0791 144.942 36.4911 145.197 36.1531C145.319 35.9921 145.54 35.9751 145.579 35.9721C145.83 35.9571 146.222 36.1021 147.068 37.5821C147.746 38.7681 148.09 39.3691 148.235 40.3191C148.363 41.1531 148.358 42.3811 147.954 42.5121C147.773 42.5711 147.556 42.3961 147.451 42.3111C147.025 41.9681 146.941 41.4231 146.907 41.2241C146.693 39.9611 146.138 38.7101 145.861 38.0851" fill="#ffffff" fill-rule="evenodd" opacity="1" stroke="none"/>
<path d="M142.731 39.5025C142.847 44.0715 132.512 49.1705 128.33 48.1955C127.712 47.4995 127.103 46.9005 126.514 46.3605C126.031 44.0035 127.692 39.8695 130.358 37.3875C131.179 36.6245 134.289 33.7265 137.989 34.7025C140.258 35.3005 142.673 37.3295 142.731 39.5025" fill="#adb8fe" fill-rule="evenodd" opacity="1" stroke="none"/>
<path d="M99.4118 83.4107C98.3588 84.8307 97.6348 86.2797 97.1708 87.4287C96.4468 86.9747 95.5778 86.2797 94.8528 85.2367C93.2978 82.9757 93.4428 80.6387 93.5008 79.9817C94.8628 80.9767 96.8528 82.2617 99.4118 83.4107" fill="#3b53a3" fill-rule="evenodd" opacity="1" stroke="none"/>
<path d="M151.279 64.6632C151.202 65.8412 150.786 71.4432 147.107 77.2582C147.107 77.2682 143.6 82.8022 136.907 86.8012C134.328 88.3362 131.556 89.4082 128.716 90.1142C127.895 89.4082 127.277 88.6172 126.447 87.6512C125.606 86.6652 124.689 85.7482 123.81 84.8112C124.293 84.6862 124.708 84.5692 125.075 84.4632C128.881 83.3912 135.613 81.4112 141.814 75.2882C147.879 69.3092 150.159 62.6152 151.028 59.3892C151.231 60.6742 151.405 62.4992 151.279 64.6632" fill="#3b53a3" fill-rule="evenodd" opacity="1" stroke="none"/>
<path d="M99.1859 77.3179C98.9529 77.3839 97.7899 77.6889 97.0649 77.0619C96.0549 76.1879 96.7389 74.2379 96.8639 73.8829C97.8659 71.0259 101.516 70.1229 102.136 69.9789C102.715 69.8779 103.595 69.7309 104.671 69.5759C107.016 69.2389 108.649 69.1009 110.426 68.9319C111.928 68.7899 114.124 68.5689 116.865 68.2479C117.622 68.1219 118.419 68.1509 119.119 68.5299C122.049 70.1169 122.06 77.1749 119.441 78.4699C119.108 78.6349 117.869 79.1329 115.416 77.6249C113.737 77.1209 111.676 76.6599 109.299 76.4579C105.122 76.1039 101.617 76.6919 99.1859 77.3179" fill="#4bb3e6" fill-rule="evenodd" opacity="1" stroke="none"/>
<path d="M124.532 65.6726C122.423 68.2916 121.803 71.6596 123.083 74.2446C125.132 78.3816 130.878 78.1496 131.897 78.1086C135.473 77.9636 137.991 76.1356 138.96 75.3456C139.513 74.9136 140.406 74.1896 141.435 73.2186C143.409 71.3536 147.342 67.6406 148.347 62.9566C148.754 61.0576 148.648 59.2136 148.648 59.2136C148.583 58.0636 148.387 57.2086 148.256 56.6476C148.001 55.5556 147.603 53.7336 146.385 51.8786C145.242 50.1386 144.449 48.9306 142.883 48.4076C140.225 47.5196 137.712 49.3996 137.511 49.5546C136.391 50.4196 136.148 51.2406 134.794 53.6296C134.077 54.8956 133.064 56.5706 131.716 58.4886L124.532 65.6726Z" fill="#4bb3e6" fill-rule="evenodd" opacity="1" stroke="none"/>
<path d="M94.4087 76.116C94.5037 75.993 95.1867 75.1 94.9367 74.788C94.8597 74.692 94.7217 74.685 94.6657 74.682C93.8757 74.643 92.8627 76.41 92.6887 76.72C92.4747 77.142 92.2547 77.662 92.0847 78.274C91.9867 78.625 91.9197 78.955 91.8737 79.257C91.8157 79.791 92.1077 80.26 92.5227 80.387C92.9607 80.521 93.3427 80.211 93.3677 80.191C93.6617 79.944 93.7857 79.533 93.6847 79.134C93.6747 78.914 93.6777 78.677 93.6997 78.425C93.7827 77.446 94.1107 76.659 94.4087 76.116" fill="#ffffff" fill-rule="evenodd" opacity="1" stroke="none"/>
<path d="M148.537 53.5791C148.128 53.0931 148.158 52.4451 148.497 52.1301C148.79 51.8581 149.261 51.8821 149.563 52.0301C149.794 52.1421 149.932 52.3871 150.207 52.8751C150.471 53.3421 150.602 53.5801 150.589 53.8411C150.574 54.1611 150.401 54.5621 150.107 54.6861C149.676 54.8671 148.927 54.4841 148.537 53.5791" fill="#ffffff" fill-rule="evenodd" opacity="1" stroke="none"/>
<path d="M169.688 71.463C168.481 73.704 166.723 76.302 164.134 78.707C156.61 85.719 147.106 86.559 142.557 86.55C144.093 85.323 145.841 83.691 147.531 81.566C148.941 79.808 151.539 76.167 153.162 70.864C154.224 67.387 154.563 64.229 154.582 61.688C157.972 61.679 163.217 62.423 166.848 66.46C168.346 68.121 169.195 69.937 169.688 71.463" fill="#ea4d22" fill-rule="evenodd" opacity="1" stroke="none"/>
<path d="M156.871 75.0463C156.388 75.2783 153.297 76.7563 150.661 76.8433C151.559 75.1813 152.457 73.1723 153.162 70.8643C154.37 66.9333 154.63 63.4073 154.582 60.7323C157.286 59.7183 161.005 59.4383 163.226 61.5243C164.492 62.7123 164.781 64.2093 164.839 64.5083C165.602 68.7873 160.831 73.1633 156.871 75.0463" fill="#fbc30c" fill-rule="evenodd" opacity="1" stroke="none"/>
<path d="M163.77 60.3905C163.627 60.1185 163.737 59.6785 163.981 59.5005C164.167 59.3645 164.512 59.3195 165.46 59.8175C166.347 60.2825 167.841 61.0665 168.78 62.9105C169.062 63.4635 169.67 64.6565 169.188 65.3855C169.152 65.4395 168.965 65.7235 168.72 65.7175C168.393 65.7105 168.238 65.1715 167.784 64.3745C167.269 63.4705 167.012 63.0175 166.894 62.8655C166.094 61.8335 164.977 61.2355 164.977 61.2355C164.783 61.0875 164.536 60.9135 164.238 60.7375C163.955 60.5705 163.843 60.5295 163.77 60.3905" fill="#ffffff" fill-rule="evenodd" opacity="1" stroke="none"/>
<path d="M149.414 85.2917C150.346 85.2777 163.819 84.8847 168.6 75.4517C169.293 74.0847 170.004 72.1297 170.169 69.5357C168.809 71.8167 166.733 74.7127 163.65 77.5047C158.32 82.3287 152.693 84.3817 149.414 85.2917" fill="#fbc30c" fill-rule="evenodd" opacity="1" stroke="none"/>
<path d="M103.464 99.7194C107.596 103.834 115.605 110.95 125.317 114.086C128.602 115.147 131.652 115.613 134.734 114.489C135.575 114.182 140.104 112.529 141.052 108.291C141.557 106.034 140.812 104.09 140.408 103.22C140.999 103.45 143.675 104.563 144.956 107.486C146.057 109.998 145.444 112.291 145.278 112.879C143.952 117.561 138.635 119.491 136.726 120.183C130.949 122.279 125.665 120.748 123.566 120.002C122.848 119.65 121.803 119.12 120.568 118.433C116.543 116.193 112.263 113.811 108.897 109.981C107.311 108.177 104.92 104.903 103.464 99.7194" fill="#007e32" fill-rule="evenodd" opacity="1" stroke="none"/>
<path d="M142.461 101.993C141.974 101.628 141.706 101.432 141.737 101.188C141.767 100.953 142.066 100.754 142.34 100.725C142.512 100.707 142.642 100.773 143.226 101.148C143.758 101.49 143.869 101.57 143.87 101.57C145.357 102.642 145.505 102.817 145.62 102.979C145.754 103.168 146.173 103.76 145.962 104.126C145.899 104.235 145.777 104.33 145.64 104.347C145.337 104.386 145.068 104.028 144.916 103.844C144.898 103.823 144.086 103.213 142.461 101.993" fill="#ffffff" fill-rule="evenodd" opacity="1" stroke="none"/>
<path d="M99.5701 100.202C99.7451 100.394 99.9411 100.607 100.143 100.564C100.36 100.518 100.458 100.205 100.506 100.051C100.707 99.4053 100.416 98.8123 100.325 98.6323C100.183 98.3533 100.001 97.9963 99.6301 97.9083C99.5771 97.8963 99.2851 97.8333 99.0871 97.9993C98.8141 98.2273 98.9201 98.7253 98.9971 99.0853C99.0311 99.2453 99.1531 99.7473 99.5701 100.202" fill="#ffffff" fill-rule="evenodd" opacity="1" stroke="none"/>
<path d="M101.569 95.8961C100.946 96.0871 100.23 96.1741 99.7214 95.8161C98.3064 94.8191 99.5154 91.0981 99.7614 90.3421C100.219 88.9331 101.684 84.4231 106.2 82.5351C108.931 81.3931 111.415 81.7791 112.559 81.9711C119.688 83.1721 123.503 89.8891 124.189 91.1471C125.17 92.6631 126.168 94.8441 126.04 97.3851C125.994 98.3151 125.933 99.2661 125.276 99.7191C124.248 100.427 122.374 99.4931 120.567 98.5921C119.567 98.0941 118.798 97.5981 118.314 97.2641C116.77 96.1311 115.418 95.2821 114.41 94.6891C112.672 93.6651 111.778 93.1461 110.546 92.7971C109.524 92.5081 107.93 92.0571 106.079 92.5151C103.474 93.1611 102.021 95.1981 101.569 95.8961" fill="#7cd457" fill-rule="evenodd" opacity="1" stroke="none"/>
<path d="M135.76 103.311C136.597 103.058 137.506 102.285 137.39 101.621C137.273 100.951 136.161 100.654 135.488 100.474C134.66 100.252 134.464 100.393 133.134 100.293C131.151 100.143 130.513 99.7482 130.025 100.202C129.659 100.543 129.609 101.146 129.723 101.56C129.892 102.169 130.445 102.469 130.9 102.707C131.495 103.018 131.864 103.026 133.979 103.251C135.241 103.385 135.417 103.415 135.76 103.311" fill="#7cd457" fill-rule="evenodd" opacity="1" stroke="none"/>
<path d="M145.992 107.763C146.059 107.337 146.142 106.809 146.565 106.571C146.877 106.395 147.296 106.421 147.592 106.601C147.916 106.798 148.072 107.17 148.18 107.899C148.368 109.16 148.229 110.251 148.044 111.37C147.863 112.466 147.773 113.014 147.652 113.453C146.926 116.089 144.71 119.379 142.793 119.097C142.739 119.089 141.929 118.959 141.736 118.433C141.371 117.438 143.74 116.481 145.117 113.603C145.265 113.293 145.847 112.054 145.992 110.615C146.053 110.009 146.052 109.589 146.052 109.589C146.051 108.637 145.891 108.406 145.992 107.763" fill="#7cd457" fill-rule="evenodd" opacity="1" stroke="none"/>
<path d="M193.923 146.546C193.88 146.914 193.858 147.174 193.847 147.304C193.468 151.105 192.786 154.342 192.126 156.865C191.584 158.554 191.151 160.752 191.411 163.276C191.454 163.709 191.508 164.131 191.584 164.532C192.277 166.329 194.594 172.945 191.313 177.255C191.054 177.601 190.761 177.926 190.415 178.251C188.146 178.802 185.376 179.26 182.207 179.334C180.597 179.372 179.102 179.305 177.742 179.179C175.891 179.723 174.553 180.125 173.631 180.417C173.453 180.473 173.087 180.589 172.583 180.69C171.876 180.831 171.248 180.871 170.74 180.871C161.373 183.08 150.534 184.932 138.439 185.744C132.505 186.134 126.886 186.242 121.612 186.145C114.466 186.48 104.699 186.015 93.8587 182.496C89.9067 181.207 86.3877 179.702 83.3017 178.164C82.0997 177.558 80.3677 176.529 78.6997 174.84C78.4327 174.571 78.1967 174.315 77.9687 174.04C75.9767 171.636 75.3057 169.734 73.9677 167.401C72.6197 165.051 71.3157 162.777 68.7377 161.493C67.4877 160.87 66.3087 160.664 65.4897 160.59C65.0037 160.588 64.2477 160.596 63.3237 160.658C60.9997 160.814 60.2807 161.179 58.6027 161.034C57.1797 160.911 56.2927 160.821 55.6757 160.116C55.3387 159.731 55.1377 159.224 55.0667 158.425C54.8727 156.241 55.8957 154.666 56.9787 152.242C57.4417 151.205 58.0747 149.655 58.6677 147.661C55.9387 139.876 53.6867 129.351 55.3757 117.386C55.6247 115.621 55.9497 113.92 56.3287 112.286C57.0107 110.012 57.6607 108.192 58.1257 106.969C58.7437 105.345 59.2197 104.273 59.9347 102.226C60.3997 100.883 60.7577 99.7681 60.9737 99.0421C60.7677 98.9451 57.3677 97.1261 57.1407 93.4771C56.9997 91.3001 58.0717 89.6981 58.4397 89.1891C59.9997 87.5541 60.5627 86.2221 60.7897 85.4861C60.8977 85.1611 61.0607 84.5221 61.2017 83.9591C61.4607 82.8221 61.5697 82.0961 61.6457 81.6961C61.7317 81.2521 62.2187 78.5451 64.2227 77.0071C65.6187 75.9241 67.2647 75.8051 68.2397 75.8381C68.5877 75.8131 69.1627 75.8071 69.8207 75.9951C72.3317 76.7111 73.0547 79.3931 74.9187 81.6341C75.8977 82.8121 77.5947 84.3531 80.6487 85.4641C82.7387 86.5031 85.4347 87.5761 88.6837 88.2251C89.4627 88.3551 90.1447 88.4631 90.6647 88.5391C91.1847 88.6151 91.5417 88.6691 91.6607 88.6691C93.3827 88.8211 101.298 90.0881 106.637 90.6611C110.156 91.0411 117.227 91.7981 126.128 91.2031C131.509 90.8351 138.721 90.2931 147.156 87.0451C152.538 84.9771 155.548 82.9091 156.804 81.9991C160.529 79.2921 163.084 76.3791 164.698 74.2351C165.164 73.6231 166.185 72.4521 167.906 71.6631C169.432 70.9641 170.809 70.8851 171.561 70.8961C171.723 70.9751 171.904 71.0521 172.102 71.1221C172.575 71.2881 173.009 71.3621 173.366 71.3931C174.283 72.1691 175.098 72.6761 175.656 72.9901C177.927 74.2671 179.342 74.3891 179.9 75.5241C180.225 76.1841 180.085 76.4871 180.528 78.1771C180.843 79.3571 181.005 79.5841 181.568 81.2081C181.925 82.2371 182.153 83.8611 183.192 86.9371C183.376 87.4781 183.658 88.2791 183.647 89.3731C183.625 90.7161 183.16 91.7981 182.792 92.4811C182.672 92.9571 182.445 93.6281 182.023 94.3321C181.644 94.9601 181.222 95.4151 180.897 95.7291C181.546 97.0611 182.261 98.8371 182.748 101.013C183.16 102.919 183.279 104.619 183.29 105.973C184.427 107.564 185.932 109.849 187.437 112.74C192.299 122.074 193.327 130.39 193.75 134.126C193.836 134.851 194.475 140.655 193.923 146.546" fill="#020202" fill-rule="evenodd" opacity="1" stroke="none"/>
<path d="M70.2083 80.1322C70.0963 79.8252 69.7793 79.1042 69.0583 78.7782C67.9163 78.2642 66.5843 79.1242 65.9113 79.9632C65.3833 80.6202 65.3053 81.4042 65.3013 81.8582C65.3493 82.5212 65.3373 83.6302 64.8623 84.8692C64.5923 85.5732 64.2473 86.1262 63.9483 86.5272C63.5783 86.8632 63.0863 87.3822 62.6623 88.1182C62.4843 88.4272 62.3943 88.6792 62.3243 88.7952C61.3563 90.3722 60.2783 92.1312 60.6663 93.3972C60.8633 94.0402 61.3403 94.5932 62.5943 95.1222C63.6103 95.5512 64.6253 95.9792 65.6403 96.4082C65.5143 97.4542 65.2713 98.9522 64.7603 100.706C64.4943 101.619 64.2373 102.319 64.0163 102.905C62.7693 106.196 61.4713 108.903 61.4103 109.03C58.7913 114.496 58.3803 121.369 58.3083 122.576C58.0753 126.482 58.4703 129.523 58.7143 131.329C58.9193 132.845 59.4083 135.934 60.5643 139.766C62.0203 144.594 62.8813 145.116 63.1363 147.707C63.3553 149.931 63.0303 152.69 61.3763 155.963C62.7853 155.582 67.1223 154.609 71.5733 156.775C72.0273 156.996 77.0293 159.515 78.7013 164.445C79.2053 165.929 79.3783 167.546 80.6863 170.04C81.3983 171.396 82.1413 172.431 82.6723 173.108C85.7093 174.649 90.2313 176.706 95.9363 178.432C98.4833 179.202 108.143 181.986 128.421 181.771C136.501 181.685 147.289 181.112 159.981 179.109C167.47 177.62 174.96 176.131 182.449 174.642C183.097 174.765 185.133 175.065 186.713 173.875C188.854 172.261 189.425 168.461 187.39 165.032C187.048 164.777 186.497 164.288 186.126 163.498C185.37 161.884 185.98 160.323 186.104 160.024C186.425 159.111 186.883 157.74 187.344 156.054C188.439 152.058 191.343 140.934 187.999 127.742C187.313 125.036 186.115 121.265 183.916 116.982C182.807 115.239 181.701 113.256 180.69 111.026C177.703 104.44 176.711 98.2872 176.426 93.7012C176.705 93.6672 179.439 93.3012 180.114 91.4342C180.376 90.7122 180.233 90.0332 180.047 89.2012C179.557 87.0112 178.635 86.9802 178.186 85.2422C177.667 83.2382 178.648 82.3342 177.78 80.5042C177.496 79.9072 177.143 79.4792 176.9 79.2182C176.246 78.7682 175.271 78.1122 174.057 77.3572C172.916 76.6472 172.345 76.2922 172.181 76.2312C169.585 75.2772 165.986 78.2802 162.435 81.3072C161.304 82.2722 160.738 82.7542 159.913 83.5952C156.356 87.2202 147.276 92.6182 137.767 95.3502C123.324 99.4992 110.896 96.6352 96.7103 93.3652C95.9473 93.1892 91.4313 91.7652 82.4013 88.9192C80.4593 88.3062 78.5073 87.6792 76.2653 86.2122C73.2683 84.2502 71.3543 81.8542 70.2083 80.1322" fill="#8e829f" fill-rule="evenodd" opacity="1" stroke="none"/>
<path d="M164.375 147.171C163.606 149.12 161.072 155.043 155.496 160.836C146.736 169.932 136.232 172.726 131.576 173.646C129.454 173.614 125.924 173.559 121.56 173.559C114.424 173.57 109.314 173.722 108.48 173.743C103.694 173.841 95.2795 172.466 79.2105 166.229C79.1185 165.909 79.0375 165.603 78.9565 165.307C78.9565 165.307 78.8205 164.831 78.7015 164.442C78.5615 163.982 76.4205 159.498 70.0005 157.522C64.6205 155.866 61.2865 157.527 60.6165 155.988C59.9065 154.358 63.4955 152.147 63.1305 147.712C63.0995 147.334 63.0665 147.008 62.9145 146.376C62.5225 144.744 61.7395 143.647 60.5645 139.765C59.4055 135.931 58.9185 132.845 58.7125 131.329C58.4745 129.521 58.0735 126.478 58.3125 122.58C58.3775 121.367 58.7885 114.491 61.4095 109.034C61.4735 108.904 62.7735 106.197 64.0185 102.905C64.1055 102.656 64.2025 102.396 64.3105 102.104C65.8055 102.115 67.4185 102.255 69.0865 102.57C72.5075 103.219 74.9225 104.367 76.4065 105.071C91.8145 112.38 93.0595 112.77 96.0265 113.799C102.773 116.148 108.339 116.126 114.024 116.105C122.686 116.061 125.567 114.416 142.047 113.127C146.628 112.77 149.118 112.683 152.334 113.398C154.023 113.777 163.617 115.91 166.541 123.273C167.223 124.984 167.245 126.554 167.288 129.705C167.342 133.322 167.364 139.667 164.375 147.171" fill="#d7cde5" fill-rule="evenodd" opacity="1" stroke="none"/>
<path d="M66.5199 118.065C67.3829 114.824 68.5219 110.406 71.0539 110.012C71.8189 109.892 72.7149 110.125 76.2649 112.854C78.9039 114.882 80.9699 116.722 82.4009 118.065C83.2119 118.743 84.7399 119.955 86.8229 121.178C97.3039 127.332 109.907 126.76 118.902 126.254C125.241 125.897 126.318 125.288 129.256 126.186C138.443 128.994 142.124 139.29 142.318 139.857C143.203 142.451 144.908 147.449 142.859 152.377C139.841 159.633 130.744 161.775 120.932 164.085C110.919 166.442 103.116 165.822 100.629 165.574C92.1959 164.732 85.5979 162.247 81.4089 160.295C80.0949 159.686 78.0649 158.761 75.5429 157.678C72.1569 156.225 72.3449 156.403 71.9339 156.144C67.9619 153.647 67.2669 147.635 66.7909 143.511C66.4099 140.219 66.9139 140.862 66.5199 135.932C66.0949 130.612 65.4929 129.664 65.5269 125.825C65.5609 121.996 66.1919 119.296 66.5199 118.065" fill="#ece7f2" fill-rule="evenodd" opacity="1" stroke="none"/>
<path d="M180.119 91.4381C179.437 93.3011 176.708 93.6691 176.427 93.7011C175.236 94.0581 173.492 94.6321 171.467 95.5091C165.555 98.0541 161.787 101.173 160.368 102.277C155.063 106.37 149.172 107.984 140.694 110.301C125.285 114.524 111.436 111.459 99.2757 108.774C90.8617 106.912 78.9617 103.414 65.6427 96.4081C64.6247 95.9751 63.6067 95.5531 62.5897 95.1201C61.3437 94.5891 60.8677 94.0371 60.6617 93.3981C60.2827 92.1311 61.3547 90.3771 62.3297 88.7961C62.3997 88.6821 62.4857 88.4271 62.6647 88.1141C63.0847 87.3801 63.5807 86.8651 63.9537 86.5331C64.2457 86.1211 64.5927 85.5691 64.8637 84.8651C65.3397 83.6311 65.3507 82.5261 65.2967 81.8551C65.3077 81.4001 65.3827 80.6211 65.9137 79.9601C66.5947 79.1131 67.9167 78.2711 69.0537 78.7801C69.7797 79.1051 70.0997 79.8281 70.2127 80.1331C71.3497 81.8551 73.2657 84.2481 76.2657 86.2081C78.9077 87.9411 81.3007 88.6121 82.4047 88.9151C108.339 96.0181 127.364 94.9681 140.076 92.0121L140.087 92.0121C142.437 91.8501 150.482 91.1781 157.542 87.8111C159.643 86.8141 162.22 85.5801 165.122 83.2841C166.638 82.0831 167.288 81.3461 168.782 80.3721C171.013 78.9101 173.2 78.1841 174.889 77.7951C175.485 78.1301 176.178 78.5851 176.903 79.2131C177.141 79.4841 177.499 79.9061 177.78 80.5021C178.646 82.3321 177.672 83.2411 178.192 85.2441C178.636 86.9771 179.556 87.0091 180.043 89.1971C180.238 90.0301 180.379 90.7131 180.119 91.4381" fill="#d7cde5" fill-rule="evenodd" opacity="1" stroke="none"/>
<path d="M171.857 81.7902C171.554 82.6672 170.828 83.0892 170.612 83.2092C168.554 84.6492 165.555 86.7282 161.895 89.1862C157.022 92.4672 154.034 94.4812 150.352 96.6792C148.988 97.4912 143.173 100.967 139.156 102.721C129.205 107.085 119.308 105.731 111.457 104.659C105.177 103.804 97.2509 101.162 81.4089 95.8672C77.5319 94.5672 73.0599 93.0192 65.3509 90.5392C64.1589 90.1602 63.0229 89.7922 61.9289 89.4562C62.0589 89.2402 62.1999 89.0122 62.3299 88.7962C62.5319 88.4582 62.6319 88.1882 62.6649 88.1142C62.8189 87.7722 63.1529 87.2622 63.9539 86.5332C64.2459 86.1212 64.5929 85.5692 64.8629 84.8652C65.3399 83.6312 65.3509 82.5262 65.2959 81.8552C65.3069 81.4002 65.3829 80.6202 65.9139 79.9602C66.5949 79.1132 67.9169 78.2712 69.0539 78.7802C69.7799 79.1042 70.0999 79.8282 70.2119 80.1332C71.3489 81.8552 73.2659 84.2482 76.2649 86.2082C78.9069 87.9402 81.3009 88.6122 82.4049 88.9152C135.821 103.544 159.913 83.5982 159.913 83.5982C160.218 83.2782 160.649 82.8382 161.184 82.3342C161.566 81.9732 162.25 81.3462 163.755 80.1452C164.546 79.5142 165.571 78.7192 166.801 77.8222C166.775 77.8902 166.451 78.8052 167 79.5432C167.487 80.1982 168.45 80.4322 169.301 80.0472C169.984 79.3212 170.98 79.2022 171.554 79.6242C172.388 80.2312 171.9 81.6712 171.857 81.7902" fill="#ece7f2" fill-rule="evenodd" opacity="1" stroke="none"/>
<path d="M24.6291 162.802L24.6391 163.312L24.6491 162.802L24.6291 162.802Z" fill="#020202" fill-rule="evenodd" opacity="1" stroke="none"/>
<path d="M24.6491 162.802L24.6391 163.312L24.6291 162.802L24.6491 162.802ZM29.6591 162.802L29.6391 163.422L29.6291 162.802L29.6591 162.802ZM240.739 157.332L222.929 158.412L222.999 165.172L218.749 157.802L201.789 157.802L201.979 168.792L198.759 157.802L181.359 157.802L180.239 161.272L177.649 157.802L147.859 157.802L147.909 160.432C145.149 158.652 141.599 157.752 137.339 157.752L124.389 157.802L106.049 157.802L103.889 163.612L103.089 165.282L102.369 163.552L100.569 157.802L69.4591 157.802L67.6491 157.802L6.45912 157.802L5.65912 170.142L9.14912 173.982L11.3791 173.912L11.5891 185.802L11.5891 189.452C11.5891 190.022 11.4891 190.292 11.4391 190.362C11.4191 190.392 10.9391 191.002 9.01912 191.962L6.24912 193.342L6.24912 198.422L11.2291 207.622L15.2291 206.252C18.3991 205.172 20.8791 203.992 22.8191 202.662C23.5991 202.122 24.2991 201.552 24.9391 200.922L111.859 200.922L111.299 186.962L111.329 186.292L119.469 170.832L119.769 186.042L119.319 195.682L119.119 200.922L124.199 200.922C127.359 201.122 130.719 201.232 134.169 201.232C139.959 201.232 144.439 200.352 147.829 198.552L147.719 200.922L186.689 200.922L187.869 194.182L188.989 194.142L190.849 194.182L192.079 200.922L219.559 200.922L219.369 193.642L223.539 200.922L240.619 200.922L240.169 185.422L240.739 157.332Z" fill="#020202" fill-rule="evenodd" opacity="1" stroke="none"/>
<path d="M24.6291 162.802L24.6491 162.802L24.6391 163.312L24.6291 162.802Z" fill="#020202" fill-rule="evenodd" opacity="1" stroke="none"/>
<path d="M29.6591 162.802L29.6391 163.422L29.6291 162.802L29.6591 162.802Z" fill="#020202" fill-rule="evenodd" opacity="1" stroke="none"/>
<path d="M29.6291 162.802L29.6391 163.422L29.6591 162.802L29.6291 162.802Z" fill="#020202" fill-rule="evenodd" opacity="1" stroke="none"/>
<path d="M24.6291 162.802L24.6491 162.802L24.6391 163.312L24.6291 162.802Z" fill="#020202" fill-rule="evenodd" opacity="1" stroke="none"/>
<path d="M29.6591 162.802L29.6391 163.422L29.6291 162.802L29.6591 162.802Z" fill="#020202" fill-rule="evenodd" opacity="1" stroke="none"/>
<path d="M24.1893 184.985L24.2923 189.657C24.2923 191.677 23.9593 193.397 23.2913 194.818C22.6243 196.238 21.5193 197.479 19.9793 198.54C18.4383 199.601 16.3163 200.594 13.6123 201.518L11.2513 197.154L11.2513 196.435C13.2353 195.443 14.6223 194.432 15.4093 193.406C16.1963 192.379 16.5903 191.061 16.5903 189.452L16.5903 185.806L16.2823 168.759L11.3013 168.914L10.7883 168.348L11.1473 162.803L24.6513 162.803L24.1893 184.985Z" fill="#ffffff" fill-rule="evenodd" opacity="1" stroke="none"/>
<path d="M51.5565 189.144L52.0185 189.76L51.5055 195.921L29.6315 195.921L30.0935 186.115L29.6315 162.803L51.8135 162.803L52.2755 163.419L51.7105 169.581L43.6495 169.273L38.0015 169.324L37.8985 175.948L43.2895 175.948L48.6815 175.793L49.1435 176.41L48.6295 182.572L42.7255 182.417L37.7445 182.417L37.6935 185.292L37.7955 189.401L43.2385 189.452L51.5565 189.144Z" fill="#ffffff" fill-rule="evenodd" opacity="1" stroke="none"/>
<path d="M73.2753 189.709L72.7113 195.922L54.0723 195.922L54.5343 186.115L54.0723 162.804L62.5443 162.804L62.0823 185.293L62.2363 189.093L72.7613 189.093L73.2753 189.709Z" fill="#ffffff" fill-rule="evenodd" opacity="1" stroke="none"/>
<path d="M93.7626 189.709L93.1976 195.922L74.5586 195.922L75.0216 186.115L74.5586 162.804L83.0316 162.804L82.5696 185.293L82.7226 189.093L93.2486 189.093L93.7626 189.709Z" fill="#ffffff" fill-rule="evenodd" opacity="1" stroke="none"/>
<path d="M106.291 186.936L106.65 195.921L98.3319 195.921L98.7429 186.936L98.6909 185.139L88.1139 162.803L96.8949 162.803L97.6649 165.268L102.491 176.821L103.056 176.821L108.499 165.576L109.525 162.803L118.049 162.803L106.394 184.933L106.291 186.936Z" fill="#ffffff" fill-rule="evenodd" opacity="1" stroke="none"/>
<path d="M138.818 169.324C137.945 168.777 136.379 168.503 134.12 168.503L132.476 168.503L132.271 176.564L136.687 176.769C137.85 176.428 138.714 175.896 139.28 175.178C139.844 174.459 140.127 173.483 140.127 172.251C140.127 170.848 139.69 169.873 138.818 169.324M140.024 189.349C141.051 188.596 141.565 187.518 141.565 186.115C141.565 185.053 141.239 184.207 140.589 183.573C139.938 182.94 138.928 182.469 137.559 182.161L132.169 182.263L132.117 185.293L132.271 190.273C134.05 190.411 135.198 190.479 135.712 190.479C137.559 190.479 138.998 190.102 140.024 189.349M148.445 181.519C149.472 182.769 149.985 184.42 149.985 186.474C149.985 189.795 148.659 192.251 146.006 193.843C143.353 195.434 139.408 196.229 134.171 196.229C130.748 196.229 127.478 196.127 124.364 195.922L124.312 195.922L124.774 186.115L124.312 162.803L137.354 162.752C140.88 162.752 143.635 163.47 145.621 164.909C147.606 166.346 148.599 168.418 148.599 171.122C148.599 172.867 148.163 174.399 147.29 175.717C146.417 177.035 145.175 178.071 143.567 178.823C145.792 179.372 147.418 180.27 148.445 181.519" fill="#ffffff" fill-rule="evenodd" opacity="1" stroke="none"/>
<path d="M174.888 189.144L175.35 189.76L174.837 195.921L152.963 195.921L153.425 186.115L152.963 162.803L175.145 162.803L175.607 163.419L175.042 169.581L166.981 169.273L161.333 169.324L161.23 175.948L166.621 175.948L172.013 175.793L172.475 176.41L171.961 182.572L166.057 182.417L161.076 182.417L161.025 185.292L161.127 189.401L166.57 189.452L174.888 189.144Z" fill="#ffffff" fill-rule="evenodd" opacity="1" stroke="none"/>
<path d="M193.32 182.982L190.086 170.403L189.572 170.403L185.721 182.982L189.52 183.085L193.32 182.982ZM204.719 195.921L196.247 195.921L195.374 191.146L194.912 189.247L188.956 189.144L183.821 189.297L183.411 190.632L182.486 195.921L174.322 195.921L185.003 162.803L195.014 162.803L204.719 195.921Z" fill="#ffffff" fill-rule="evenodd" opacity="1" stroke="none"/>
<path d="M235.167 185.447L235.475 195.922L226.438 195.922L214.68 175.434L214.166 175.434L214.115 184.266L214.423 195.922L206.875 195.922L207.286 186.166L206.875 162.803L215.861 162.803L227.671 183.291L228.184 183.291L227.979 163.111L235.629 162.649L235.167 185.447Z" fill="#ffffff" fill-rule="evenodd" opacity="1" stroke="none"/>
<path d="M99.392 211.863C98.519 211.316 96.953 211.042 94.694 211.042L93.051 211.042L92.845 219.103L97.261 219.308C98.424 218.967 99.289 218.435 99.854 217.717C100.419 216.998 100.701 216.022 100.701 214.79C100.701 213.387 100.265 212.412 99.392 211.863M100.599 231.888C101.625 231.135 102.139 230.057 102.139 228.654C102.139 227.592 101.813 226.746 101.163 226.112C100.513 225.479 99.502 225.008 98.134 224.7L92.743 224.802L92.691 227.832L92.845 232.812C94.625 232.95 95.772 233.018 96.286 233.018C98.134 233.018 99.572 232.641 100.599 231.888M109.019 224.058C110.046 225.308 110.559 226.959 110.559 229.013C110.559 232.334 109.233 234.79 106.58 236.382C103.927 237.973 99.982 238.768 94.745 238.768C91.322 238.768 88.053 238.666 84.938 238.461L84.887 238.461L85.349 228.654L84.887 205.342L97.929 205.291C101.454 205.291 104.209 206.009 106.195 207.448C108.18 208.885 109.173 210.957 109.173 213.661C109.173 215.406 108.737 216.938 107.864 218.256C106.991 219.574 105.75 220.61 104.142 221.362C106.366 221.911 107.992 222.809 109.019 224.058" fill="#020202" fill-rule="evenodd" opacity="1" stroke="none"/>
<path d="M94.745 243.768C91.289 243.768 87.935 243.664 84.775 243.46L79.697 243.46L79.892 238.225L80.346 228.585L79.787 200.363L97.909 200.29C102.513 200.29 106.281 201.336 109.128 203.399C112.429 205.789 114.173 209.337 114.173 213.661C114.173 216.126 113.588 218.38 112.433 220.372C112.588 220.537 112.737 220.707 112.881 220.882L112.883 220.884C114.659 223.046 115.559 225.781 115.559 229.013C115.559 234.122 113.344 238.154 109.153 240.668C105.677 242.754 100.964 243.768 94.745 243.768" fill="#020202" fill-rule="evenodd" opacity="1" stroke="none"/>
<path d="M129.249 225.521L126.014 212.942L125.5 212.942L121.65 225.521L125.449 225.624L129.249 225.521ZM140.648 238.46L132.176 238.46L131.303 233.685L130.841 231.786L124.885 231.683L119.75 231.836L119.339 233.171L118.415 238.46L110.251 238.46L120.931 205.342L130.943 205.342L140.648 238.46Z" fill="#020202" fill-rule="evenodd" opacity="1" stroke="none"/>
<path d="M147.323 243.46L128.007 243.46L126.774 236.716L124.916 236.684L123.795 236.718L122.617 243.46L103.385 243.46L117.29 200.342L134.688 200.342L147.323 243.46Z" fill="#020202" fill-rule="evenodd" opacity="1" stroke="none"/>
<path d="M166.937 206.678L165.191 214.123L164.472 214.123C162.794 213.199 161.297 212.54 159.979 212.147C158.661 211.753 157.266 211.556 155.795 211.556C153.946 211.556 152.474 211.89 151.379 212.557C150.283 213.225 149.47 214.328 148.94 215.869C148.409 217.409 148.144 219.515 148.144 222.185C148.144 224.821 148.401 226.883 148.915 228.371C149.428 229.861 150.241 230.931 151.354 231.581C152.465 232.232 153.998 232.556 155.949 232.556C156.907 232.556 158.02 232.386 159.286 232.043L159.337 229.733L159.184 224.341L166.834 223.777L166.731 228.346L166.783 236.818C162.709 238.256 158.858 238.975 155.23 238.975C149.993 238.975 146.056 237.563 143.42 234.739C140.784 231.914 139.467 227.867 139.467 222.595C139.467 216.845 141.007 212.454 144.088 209.425C147.168 206.396 151.584 204.881 157.335 204.881C161.032 204.881 164.232 205.48 166.937 206.678" fill="#020202" fill-rule="evenodd" opacity="1" stroke="none"/>
<path d="M153.909 227.287C153.913 227.287 154.02 227.341 154.269 227.399L154.05 219.706L163.04 219.043L162.059 218.502C160.703 217.755 159.522 217.227 158.549 216.937C157.701 216.684 156.774 216.556 155.795 216.556C154.441 216.556 153.998 216.816 153.98 216.827C153.969 216.846 153.822 217.051 153.668 217.496C153.472 218.065 153.144 219.427 153.144 222.184C153.144 224.895 153.456 226.202 153.641 226.74C153.761 227.087 153.874 227.252 153.909 227.288L153.909 227.287M155.23 243.974C148.575 243.974 143.372 242.015 139.765 238.149C136.25 234.384 134.467 229.15 134.467 222.595C134.467 215.479 136.525 209.85 140.583 205.859C144.617 201.892 150.253 199.881 157.335 199.881C161.718 199.881 165.63 200.63 168.963 202.106L172.751 203.785L169.281 218.582L171.956 218.385L171.732 228.387L171.805 240.347L168.448 241.532C163.858 243.152 159.411 243.974 155.23 243.974" fill="#020202" fill-rule="evenodd" opacity="1" stroke="none"/>
<path d="M99.392 211.863C98.519 211.316 96.953 211.042 94.694 211.042L93.051 211.042L92.845 219.103L97.261 219.308C98.424 218.967 99.289 218.435 99.854 217.717C100.419 216.998 100.701 216.022 100.701 214.79C100.701 213.387 100.265 212.412 99.392 211.863M100.599 231.888C101.625 231.135 102.139 230.057 102.139 228.654C102.139 227.592 101.813 226.746 101.163 226.112C100.513 225.479 99.502 225.008 98.134 224.7L92.743 224.802L92.691 227.832L92.845 232.812C94.625 232.95 95.772 233.018 96.286 233.018C98.134 233.018 99.572 232.641 100.599 231.888M109.019 224.058C110.046 225.308 110.559 226.959 110.559 229.013C110.559 232.334 109.233 234.79 106.58 236.382C103.927 237.973 99.982 238.768 94.745 238.768C91.322 238.768 88.053 238.666 84.938 238.461L84.887 238.461L85.349 228.654L84.887 205.342L97.929 205.291C101.454 205.291 104.209 206.009 106.195 207.448C108.18 208.885 109.173 210.957 109.173 213.661C109.173 215.406 108.737 216.938 107.864 218.256C106.991 219.574 105.75 220.61 104.142 221.362C106.366 221.911 107.992 222.809 109.019 224.058" fill="#c31650" fill-rule="evenodd" opacity="1" stroke="none"/>
<path d="M129.249 225.521L126.014 212.942L125.5 212.942L121.65 225.521L125.449 225.624L129.249 225.521ZM140.648 238.46L132.176 238.46L131.303 233.685L130.841 231.786L124.885 231.683L119.75 231.836L119.339 233.171L118.415 238.46L110.251 238.46L120.931 205.342L130.943 205.342L140.648 238.46Z" fill="#c31650" fill-rule="evenodd" opacity="1" stroke="none"/>
<path d="M166.937 206.678L165.191 214.123L164.472 214.123C162.794 213.199 161.297 212.54 159.979 212.147C158.661 211.753 157.266 211.556 155.795 211.556C153.946 211.556 152.474 211.89 151.379 212.557C150.283 213.225 149.47 214.328 148.94 215.869C148.409 217.409 148.144 219.515 148.144 222.185C148.144 224.821 148.401 226.883 148.915 228.371C149.428 229.861 150.241 230.931 151.354 231.581C152.465 232.232 153.998 232.556 155.949 232.556C156.907 232.556 158.02 232.386 159.286 232.043L159.337 229.733L159.184 224.341L166.834 223.777L166.731 228.346L166.783 236.818C162.709 238.256 158.858 238.975 155.23 238.975C149.993 238.975 146.056 237.563 143.42 234.739C140.784 231.914 139.467 227.867 139.467 222.595C139.467 216.845 141.007 212.454 144.088 209.425C147.168 206.396 151.584 204.881 157.335 204.881C161.032 204.881 164.232 205.48 166.937 206.678" fill="#c31650" fill-rule="evenodd" opacity="1" stroke="none"/>
</g>
</g>
</g>
</svg>
