<?xml version="1.0" encoding="UTF-8" standalone="no"?> <!-- Created with Vectornator for iOS (http://vectornator.io/) --><!DOCTYPE svg PUBLIC "-//W3C//DTD SVG 1.1//EN" "http://www.w3.org/Graphics/SVG/1.1/DTD/svg11.dtd">
<svg width="100%" style="fill-rule:nonzero;clip-rule:evenodd;stroke-linecap:round;stroke-linejoin:round;" xmlns="http://www.w3.org/2000/svg" xmlns:xlink="http://www.w3.org/1999/xlink" version="1.1" viewBox="0 0 1059.38 1100" height="100%" xmlns:vectornator="http://vectornator.io" xml:space="preserve">
<metadata>
<vectornator:setting key="WDDisplayWhiteBackground" value="false"/>
<vectornator:setting key="WDCMYKEnabledKey" value="false"/>
<vectornator:setting key="VNSnapToGuides" value="true"/>
<vectornator:setting key="VNDimensionsVisible" value="true"/>
<vectornator:setting key="WDUnits" value="Points"/>
<vectornator:setting key="WDSnapToGrid" value="false"/>
<vectornator:setting key="WDIsolateActiveLayer" value="false"/>
<vectornator:setting key="WDSnapToEdges" value="false"/>
<vectornator:setting key="IsTimeLapseWatermarkDisabled" value="false"/>
<vectornator:setting key="WDRulersVisible" value="true"/>
<vectornator:setting value="true" key="UndoHistoryDisabled"/>
<vectornator:setting key="WDDynamicGuides" value="false"/>
<vectornator:setting value="true" key="WDGuidesVisible"/>
<vectornator:setting key="WDOutlineMode" value="false"/>
<vectornator:setting value="false" key="WDSnapToPoints"/>
</metadata>
<defs>
<filter height="3027.18" x="0" color-interpolation-filters="sRGB" id="A294A763-37AE-462A-A4FC-5C2E3B676B1F" width="3027.18" y="0" filterUnits="userSpaceOnUse">
<feDropShadow stdDeviation="4.25567" width="3027.18" dx="-4.99159e-05" height="3027.18" flood-color="#000000" dy="13.5892"/>
</filter>
</defs>
<g vectornator:layerName="Untitled" id="Untitled">
<path vectornator:shadowAngle="1.5708" vectornator:shadowRadius="14.1856" vectornator:shadowColor="#000000" opacity="1" vectornator:shadowOpacity="1" filter="url(#A294A763-37AE-462A-A4FC-5C2E3B676B1F)" fill="#6a0606" vectornator:shadowOffset="13.5892" d="M28.8246+540.633C28.8246+264.491+252.682+40.633+528.825+40.633C804.967+40.633+1028.82+264.491+1028.82+540.633C1028.82+816.775+804.967+1040.63+528.825+1040.63C252.682+1040.63+28.8246+816.775+28.8246+540.633Z"/>
<g opacity="1">
<path opacity="1" d="M517.435+281.68C441.89+287.031+377.75+340.741+359.04+414.255C350.798+446.677+351.93+482.691+362.165+513.277C369.352+534.8+381.383+554.682+399.82+575.58C404.156+580.502+406.304+582.729+421.187+598.236C438.999+616.79+443.882+622.22+450.639+631.204C457.983+640.931+464.155+652.298+467.397+662.024C470.288+670.735+471.655+678.078+472.162+687.297C472.319+690.07+472.592+692.609+472.827+692.844C473.373+693.586+586.887+693.586+587.434+692.844C587.668+692.609+587.941+690.07+588.098+687.297C589.426+662.375+599.308+641.477+621.535+616.79C623.956+614.095+631.847+605.736+639.073+598.236C655.01+581.713+657.042+579.486+663.252+572.26C680.166+552.495+691.299+533.628+698.096+513.316C708.291+482.77+709.423+446.52+701.22+414.255C691.768+376.99+670.323+343.866+640.011+319.648C605.597+292.187+561.692+278.555+517.435+281.68ZM527.982+336.522L527.982+348.241L523.099+348.514C500.56+349.725+478.334+358.28+460.6+372.576C439.077+389.92+424.351+416.287+420.992+443.63C420.679+446.169+420.288+450.036+420.132+452.223L419.898+456.247L408.14+456.247L396.422+456.247L396.695+450.7C397.945+425.583+406.578+400.857+421.187+380.389C442.436+350.702+475.131+330.937+511.107+325.976C516.029+325.312+523.841+324.687+526.419+324.765L527.982+324.804L527.982+336.522Z" fill="#ffff02"/>
<path d="M480.404+701.32C475.131+702.765+471.733+708.039+472.514+713.468C473.139+717.57+476.811+721.359+481.029+722.257C482.436+722.531+497.67+722.648+531.302+722.57L579.543+722.452L581.77+721.359C585.754+719.406+587.707+716.242+587.707+711.71C587.707+707.179+585.754+704.015+581.77+702.062L579.543+700.968L530.911+700.89C491.889+700.851+481.889+700.929+480.404+701.32Z" fill="#808080" opacity="1"/>
<path fill="#808080" d="M481.498+730.46C478.959+730.968+477.905+731.515+476.069+733.194C473.686+735.421+472.592+737.843+472.592+741.007C472.592+745.382+474.701+748.78+478.49+750.655L480.717+751.749L530.13+751.749L579.543+751.749L581.77+750.655C585.559+748.78+587.668+745.382+587.668+741.007C587.668+737.765+586.535+735.343+584.035+733.077C580.715+730.069+584.582+730.304+531.107+730.226C504.701+730.187+482.358+730.304+481.498+730.46Z" opacity="1"/>
<path d="M502.396+759.717C499.857+760.147+498.021+761.045+496.342+762.686C491.889+767.178+492.201+774.561+497.006+778.662C500.053+781.279+499.467+781.24+530.169+781.24C560.911+781.24+560.208+781.279+563.333+778.584C565.754+776.553+567.004+773.819+567.004+770.498C567.043+765.967+564.739+762.295+560.637+760.42C558.84+759.561+558.645+759.561+531.497+759.522C516.458+759.483+503.373+759.561+502.396+759.717Z" fill="#808080" opacity="1"/>
</g>
</g>
</svg>
