<?xml version="1.0" encoding="UTF-8" standalone="no"?> <!-- Created with Vectornator for iOS (http://vectornator.io/) --><!DOCTYPE svg PUBLIC "-//W3C//DTD SVG 1.1//EN" "http://www.w3.org/Graphics/SVG/1.1/DTD/svg11.dtd">
<svg style="fill-rule:nonzero;clip-rule:evenodd;stroke-linecap:round;stroke-linejoin:round;" xmlns="http://www.w3.org/2000/svg" xmlns:xlink="http://www.w3.org/1999/xlink" viewBox="0 0 300 400" xmlns:vectornator="http://vectornator.io" version="1.1" height="100%" xml:space="preserve" width="100%">
<metadata>
<vectornator:setting key="UndoHistoryDisabled" value="true"/>
<vectornator:setting value="false" key="WDDynamicGuides"/>
<vectornator:setting value="false" key="WDOutlineMode"/>
<vectornator:setting value="false" key="WDIsolateActiveLayer"/>
<vectornator:setting key="VNSnapToGuides" value="true"/>
<vectornator:setting value="false" key="WDSnapToEdges"/>
<vectornator:setting key="WDGuidesVisible" value="true"/>
<vectornator:setting value="false" key="WDCMYKEnabledKey"/>
<vectornator:setting key="VNDimensionsVisible" value="true"/>
<vectornator:setting key="WDSnapToGrid" value="false"/>
<vectornator:setting value="Points" key="WDUnits"/>
<vectornator:setting value="false" key="WDDisplayWhiteBackground"/>
<vectornator:setting key="WDSnapToPoints" value="false"/>
<vectornator:setting key="WDRulersVisible" value="true"/>
<vectornator:setting key="IsTimeLapseWatermarkDisabled" value="false"/>
</metadata>
<defs>
<path d="M-299.551-76.6031L600.449-76.6031L600.449+523.397L-299.551+523.397L-299.551-76.6031Z" id="Mask"/>
<path d="M56.3522+136.146L100.843+136.146L100.843+115.246L56.3522+115.246L56.3522+136.146Z" id="Mask_2"/>
<path d="M44.8712+386.887L283.376+386.887L283.376+115.029L44.8712+115.029L44.8712+386.887Z" id="Mask_3"/>
</defs>
<g id="Untitled" vectornator:layerName="Untitled">
<g opacity="1">
<path d="M-299.551+523.397L600.449+523.397L600.449-76.6031L-299.551-76.6031L-299.551+523.397Z" fill="none" opacity="1"/>
<g opacity="1" vectornator:mask="#Mask">
<clipPath id="ClipPath">
<use xlink:href="#Mask" fill="none" overflow="visible"/>
</clipPath>
<g clip-path="url(#ClipPath)">
<g opacity="1">
<path d="M291.703+259.466C290.391+291.088+279.058+316.967+268.315+333.263C267.972+333.776+267.63+334.29+267.269+334.803C266.927+335.335+266.546+335.868+266.166+336.381C265.805+336.914+265.443+337.408+265.082+337.902C264.93+338.092+264.797+338.302+264.645+338.492C264.436+338.777+264.226+339.043+264.017+339.309C263.694+339.785+263.333+340.241+262.953+340.698C262.591+341.154+262.23+341.61+261.869+342.048C235.97+374.867+195.811+395.917+150.746+395.917C72.4994+395.917+9.06639+332.483+9.06639+254.237C9.06639+217.747+22.8714+184.471+45.5174+159.372C42.0194+154.77+38.5204+150.149+35.0024+145.529C34.7554+145.186+34.4324+144.635+34.2804+143.893C34.0324+142.581+34.4894+141.479+35.0024+140.205C35.4014+139.235+35.8204+138.55+36.3144+137.771C36.8854+136.82+37.4364+136.078+37.8544+135.546C39.2994+133.416+41.5624+130.431+44.8144+127.313C48.7124+123.548+52.2114+121.323+56.5084+118.642C59.5504+116.74+63.7154+114.344+68.9064+111.949C70.9404+102.156+75.9984+84.5293+89.9174+67.4163C98.4554+56.9003+107.601+49.9603+114.541+45.5492C120.037+53.4213+125.532+61.2933+131.027+69.1653C126.635+72.3033+121.71+76.3343+116.766+81.4303C108.97+89.4923+103.684+97.5543+100.128+104.019C102.695+103.601+106.118+103.297+110.111+103.658C113.534+103.981+116.424+104.704+118.668+105.445C119.618+108.83+120.569+112.215+121.52+115.599C130.951+113.622+140.725+112.576+150.746+112.576C153.199+112.576+155.613+112.633+158.028+112.766L158.104+112.766C181.816+113.983+203.987+121.019+223.211+132.504C223.249+132.523+223.287+132.542+223.325+132.561C223.896+132.922+224.447+133.264+224.999+133.607C225.512+133.93+226.026+134.253+226.52+134.595C226.615+134.652+226.71+134.709+226.786+134.766C227.071+134.938+227.357+135.128+227.623+135.318C227.908+135.489+228.174+135.679+228.44+135.85C228.593+135.945+228.745+136.04+228.878+136.135C229.011+136.231+229.144+136.307+229.258+136.402C229.524+136.573+229.772+136.744+230.019+136.915C231.464+137.904+232.7+138.798+233.708+139.52C234.734+140.262+235.723+140.984+236.693+141.745C237.492+142.334+238.271+142.943+239.032+143.57C239.412+143.856+239.792+144.16+240.154+144.464C240.895+145.053+241.618+145.662+242.34+146.27C243.196+146.993+244.052+147.716+244.869+148.438C244.907+148.476+244.964+148.514+245.002+148.552C245.021+148.571+245.059+148.59+245.078+148.628C245.725+149.199+246.353+149.769+246.999+150.359L247.018+150.378C247.665+150.967+248.311+151.576+248.958+152.184C249.699+152.888+250.422+153.591+251.125+154.295C251.144+154.314+251.163+154.333+251.182+154.352C251.886+155.055+252.608+155.778+253.293+156.5C254.073+157.318+254.833+158.155+255.613+158.991C269.113+173.842+279.495+191.583+285.732+211.168C285.751+211.187+285.751+211.206+285.751+211.225C289.155+222.767+292.54+239.557+291.703+259.466" opacity="1" fill="#000000"/>
<path opacity="1" d="M283.375+254.237C283.375+327.501+223.992+386.885+150.746+386.885C77.4819+386.885+18.0979+327.501+18.0979+254.237C18.0979+220.543+30.6669+189.757+51.3929+166.369L58.9989+175.439C61.5089+175.782+64.4759+175.991+67.8029+175.858C72.5949+175.668+76.6639+174.812+79.8019+173.899C76.4739+174.375+72.4999+174.622+68.0509+174.317C66.0919+174.184+64.2669+173.956+62.5739+173.652C61.8329+172.511+61.1099+171.37+60.3689+170.21C59.7409+169.24+59.1139+168.252+58.4669+167.263C57.4019+165.59+56.3179+163.916+55.2349+162.224C51.7739+156.843+48.3319+151.462+44.8709+146.08C44.6429+145.776+44.3389+145.301+44.0729+144.73C43.9589+144.502+43.5969+143.742+43.4829+143.038C43.2169+141.593+43.9019+140.281+44.2819+139.672C45.5369+137.486+47.4949+134.538+50.3669+131.515C52.9719+128.777+55.2539+127.085+57.0979+125.734C59.6459+123.852+63.2589+121.513+67.9169+119.345L67.9169+124.042C65.5789+125.031+62.2129+126.742+58.6949+129.613C56.3559+131.515+51.8689+135.166+52.6669+137.143C53.6749+139.615+62.5359+138.018+63.0499+137.923C64.1519+137.676+65.6929+137.315+67.5179+136.82C68.7729+136.478+74.3439+134.976+79.5739+132.941C87.1989+129.956+93.7209+126.001+97.5239+123.51C97.9229+123.262+98.4549+122.882+99.0639+122.407C99.1779+122.293+100.452+121.266+101.327+120.22C101.555+119.935+104.141+116.778+103.38+114.953C102.696+113.318+99.2349+112.576+95.0519+113.755C95.6599+112.443+96.2689+111.131+96.8769+109.8C98.5119+109.629+100.262+109.515+102.144+109.496C104.768+109.439+107.164+109.572+109.313+109.8C109.655+109.876+110.454+110.085+111.176+110.789C111.842+111.435+112.089+112.177+112.165+112.5C113.686+117.007+115.188+121.532+116.691+126.039C118.706+132.009+120.703+137.98+122.699+143.951C122.87+144.331+123.137+145.073+123.042+146.023C122.985+146.518+122.832+146.917+122.699+147.202C121.806+148.666+120.798+150.188+119.619+151.728C116.405+155.968+112.945+159.239+109.769+161.711C109.446+161.977+109.123+162.205+108.818+162.452C110.054+161.596+112.85+159.638+115.759+157.223C116.082+156.957+116.424+156.672+116.767+156.386C117.793+155.512+118.782+154.618+119.714+153.705C120.722+152.736+121.634+151.747+122.414+150.777C123.935+148.895+125.152+146.974+125.152+146.974C126.578+144.711+127.548+142.677+128.176+141.174C127.453+138.36+126.749+135.527+126.027+132.694C125.894+132.18+125.761+131.648+125.647+131.135C125.057+128.872+124.487+126.59+123.916+124.327C132.568+122.54+141.543+121.608+150.746+121.608C223.992+121.608+283.375+180.992+283.375+254.237" fill="#c1c8d3"/>
<path opacity="1" fill="#ffffff" d="M72.7946+132.504L86.3426+126.838C88.3046+114.17+91.9766+106.603+94.0676+102.95C95.1316+101.091+97.1096+97.9339+99.2966+94.7499C99.7366+94.1089+102.775+89.7029+106.428+85.2429C113.342+76.7979+120.932+70.0189+124.967+66.5839C121.441+62.0679+117.916+57.5519+114.39+53.0359C110.724+55.9379+105.866+60.0809+100.604+65.5149C94.0406+72.2929+88.9696+78.8919+86.4616+82.6279C74.5486+100.374+73.0576+124.14+72.7946+132.504"/>
<path d="M124.962+66.5794C120.931+70.0214+113.344+76.7904+106.422+85.2334C102.772+89.7014+99.7289+94.1134+99.2919+94.7404C97.1049+97.9354+95.1279+101.091+94.0629+102.954C91.9709+106.605+88.3009+114.173+86.3429+126.837L72.8039+132.504C72.8419+130.963+72.9369+128.91+73.1269+126.476C74.2299+126.59+75.5419+126.628+76.9869+126.438C80.4859+125.962+82.9389+124.365+84.0799+123.51C85.7149+118.509+87.3319+113.527+88.9669+108.545C86.6279+109.553+83.8519+111.017+80.9619+113.127C77.9569+115.314+75.5989+117.615+73.8119+119.688C74.0019+118.337+74.2109+116.911+74.4579+115.447C76.4169+113.394+78.9649+111.131+82.1399+109.001C85.3159+106.891+88.3199+105.407+90.8679+104.381C93.5299+98.9424+96.2119+93.5234+98.8739+88.0854C95.3939+89.1884+91.1729+90.8234+86.6659+93.3334C83.5669+95.0254+80.9239+96.8324+78.6799+98.5434C79.1929+97.0984+79.7449+95.6534+80.3339+94.2084C83.3569+92.2874+86.9129+90.3104+91.0199+88.4844C95.0139+86.7164+98.7599+85.4614+102.087+84.5294C107.107+78.5394+112.108+72.5694+117.128+66.5794C113.838+67.5114+110.492+68.5004+107.107+69.5644C102.182+71.0664+97.4279+72.6454+92.8079+74.2614C93.5679+73.3104+94.4049+72.3034+95.2989+71.2954C99.6339+69.6404+104.046+68.0054+108.533+66.3894C112.83+64.8304+117.09+63.3274+121.311+61.9014C122.528+63.4614+123.745+65.0204+124.962+66.5794" fill="#c1c8d3" opacity="1"/>
<path opacity="1" d="M146.715+72.4867C140.63+72.2567+135.724+71.2197+132.295+70.2687C125.492+68.3817+122.517+66.2857+121.679+65.6727C119.902+64.3737+117.517+62.5887+115.816+59.3347C113.878+55.6297+113.938+52.1457+113.994+50.2237C114.086+47.0477+114.874+44.7787+116.45+40.2407C116.673+39.5977+117.275+37.8957+119.064+33.7437C120.173+31.1707+121.732+27.6717+123.739+23.5237C123.422+25.3957+123.031+27.3687+122.55+29.4257C122.083+31.4257+121.574+33.3167+121.045+35.0907C122.511+31.7737+124.008+29.1127+125.204+27.1677C126.89+24.4277+128.747+21.4527+131.978+18.2947C133.22+17.0807+134.332+16.1647+135.108+15.5607C134.174+17.2767+133.235+19.5417+132.81+22.2957C132.711+22.9427+132.647+23.5647+132.612+24.1577C137.803+20.4057+142.615+17.6787+146.537+15.7197C148.532+14.7227+152.811+12.6687+158.54+10.6687C159.76+10.2427+166.108+8.05168+172.742+6.80567C185.182+4.46967+196.908+5.77967+204.077+7.04367C202.267+7.48567+200.156+8.13967+197.877+9.12367C195.78+10.0287+193.989+11.0207+192.509+11.9557C199.558+11.1797+211.371+10.8277+224.914+15.1847C233.966+18.0977+240.939+22.1967+245.751+25.5837C237.358+24.4447+230.736+24.9407+226.34+25.5837C222.762+26.1057+219.487+26.8967+217.704+27.3267C216.202+27.6887+212.492+28.6147+205.027+31.1297C201.159+32.4327+196.141+34.2097+190.291+36.5167C195.361+36.8867+200.432+37.2567+205.503+37.6257C202.412+38.6567+197.853+40.2547+192.43+42.4587C183.145+46.2337+177.588+49.2427+171.117+52.3627C165.102+55.2627+156.455+59.1477+145.447+63.1377C146.512+63.7137+147.754+64.2947+149.171+64.8017C151.921+65.7857+154.422+66.1707+156.381+66.3067C152.876+66.7787+149.062+67.1477+144.972+67.3367C141.438+67.4997+138.101+67.5107+134.989+67.4157C136.2+68.4157+137.938+69.6427+140.218+70.6647C142.759+71.8027+145.06+72.2767+146.715+72.4867" fill="#d81e27"/>
<path fill="#ed6e12" d="M180.625+39.0015L168.424+40.1615C171.403+38.5945+175.838+36.3065+181.298+33.6645C190.027+29.4415+194.512+27.2885+200.432+25.2265C204.42+23.8375+210.287+22.0605+217.724+20.7705C211.715+19.4775+206.732+18.9405+203.284+18.6905C195.851+18.1505+189.888+18.5315+180.883+19.1065C176.212+19.4045+172.381+19.7485+169.83+19.9975C171.744+18.6425+174.119+17.1755+176.961+15.8385C180.456+14.1935+183.683+13.2035+186.329+12.5895C178.384+12.8465+166.957+14.2675+154.559+19.6415C144.523+23.9915+138.419+28.9505+131.741+34.3775C131.018+34.9655+127.214+38.1075+123.897+43.2905C121.341+47.2875+121.051+49.4055+121.045+50.7785C121.035+53.1175+121.839+55.9555+123.422+57.6115C128.496+62.9215+142.68+57.2435+151.112+53.8675C157.05+51.4915+162.538+48.5995+173.514+42.8155C176.499+41.2425+178.954+39.9135+180.625+39.0015" opacity="1"/>
<path opacity="1" d="M144.395+47.5645C147.704+47.0135+151.012+46.4615+154.321+45.9105C150.841+49.0285+144.889+53.5165+136.428+56.3685C132.168+57.7945+128.251+58.4605+125+58.7645C124.41+58.4605+123.878+58.0795+123.422+57.6045C122.566+56.7105+121.938+55.4745+121.558+54.1435L121.558+54.1245C122.148+52.6415+122.965+50.8545+124.144+48.9335C124.886+47.6785+126.749+44.8075+132.396+39.4835C136.504+35.6235+139.717+32.5805+144.87+29.4435C148.902+26.9905+152.761+25.2795+156.108+24.1005C155.329+24.7465+154.473+25.5455+153.617+26.5345C152.362+27.9795+151.488+29.4055+150.879+30.5845C154.777+29.5195+159.493+28.5685+164.836+28.0745C168.943+27.7125+172.708+27.6935+176.017+27.8465C171.472+29.0815+165.178+31.3255+158.485+35.5665C152.039+39.6355+147.437+44.1225+144.395+47.5645" fill="#edd01e"/>
<path fill="#ffffff" d="M77.9951+365.17C41.9241+341.478+18.0981+300.633+18.0981+254.237C18.0981+220.543+30.6671+189.758+51.3931+166.369L55.2911+171.028C48.9591+179.49+41.0111+192.059+35.3261+208.602C20.9121+250.377+30.8951+288.179+37.2271+305.577C46.7731+331.799+62.4411+351.213+77.9951+365.17" opacity="1"/>
<path fill="#ffffff" opacity="1" d="M279.287+221.456C272.822+208.431+264.094+194.036+252.248+179.604C231.408+154.219+208.419+137.886+190.335+127.637C233.994+141.251+267.954+176.847+279.287+221.456"/>
<path fill="#ffffff" opacity="1" d="M51.284+148.348L60.197+147.041L72.438+168.789C78.681+168.673+86.718+167.694+95.375+164.392C98.946+163.03+105.029+160.652+111.537+155.36C115.248+152.342+117.932+149.325+119.738+147.041C117.113+151.37+112.782+157.141+105.952+162.134C96.743+168.865+87.78+170.68+83.372+171.522C75.42+173.042+68.683+172.679+64.238+172.117C59.92+164.194+55.602+156.271+51.284+148.348"/>
<path fill="#c1c8d3" d="M68.2785+132.067C68.2215+131.495+68.1715+130.91+68.1295+130.314C68.0255+128.826+67.9805+127.397+67.9815+126.036C66.5055+126.781+64.9395+127.645+63.3165+128.65C61.3615+129.861+59.6205+131.09+58.0875+132.275C56.7185+133.313+56.0895+134.615+56.4535+135.305C56.8245+136.009+58.2335+136.097+58.8895+136.137C59.2855+136.162+59.6685+136.134+60.4345+136.078C61.1815+136.023+61.7965+135.953+62.2175+135.9C62.9535+135.315+63.7745+134.713+64.6835+134.117C65.9485+133.288+67.1635+132.614+68.2785+132.067" opacity="1"/>
<path fill="#c1c8d3" d="M92.6117+121.371L94.4537+115.607C94.8877+115.521+95.4987+115.415+96.2367+115.34C96.8417+115.278+97.3137+115.23+97.8407+115.251C98.8687+115.291+100.096+115.34+100.604+116.112C101.076+116.828+100.825+118.01+100.069+119.024C99.1047+119.293+98.1237+119.58+97.1277+119.885C95.5667+120.365+94.0607+120.862+92.6117+121.371" opacity="1"/>
<g opacity="0.0960988" vectornator:mask="#Mask_2">
<clipPath id="ClipPath_2">
<use xlink:href="#Mask_2" fill="none" overflow="visible"/>
</clipPath>
<g clip-path="url(#ClipPath_2)">
<g opacity="0.309998">
<path opacity="0.309998" fill="#000000" d="M68.2785+132.067C68.2215+131.495+68.1715+130.91+68.1295+130.314C68.0255+128.826+67.9805+127.397+67.9815+126.036C66.5055+126.781+64.9395+127.645+63.3165+128.65C61.3615+129.861+59.6205+131.09+58.0875+132.275C56.7185+133.313+56.0895+134.615+56.4535+135.305C56.8245+136.009+58.2335+136.097+58.8895+136.137C59.2855+136.162+59.6685+136.134+60.4345+136.078C61.1815+136.023+61.7965+135.953+62.2175+135.9C62.9535+135.315+63.7745+134.713+64.6835+134.117C65.9485+133.288+67.1635+132.614+68.2785+132.067"/>
<path d="M92.6117+121.371L94.4537+115.607C94.8877+115.521+95.4987+115.415+96.2367+115.34C96.8417+115.278+97.3137+115.23+97.8407+115.251C98.8687+115.291+100.096+115.34+100.604+116.112C101.076+116.828+100.825+118.01+100.069+119.024C99.1047+119.293+98.1237+119.58+97.1277+119.885C95.5667+120.365+94.0607+120.862+92.6117+121.371" fill="#000000" opacity="0.309998"/>
</g>
</g>
</g>
<path fill="#152b70" opacity="1" d="M218.694+157.217C219.793+158.218+221.523+156.553+223.728+157.712C224.147+157.932+224.778+158.492+226.039+159.61C226.924+160.396+227.246+160.751+228.02+161.343C228.695+161.861+230.064+162.91+230.33+162.664C230.582+162.431+229.746+161.138+228.597+159.363C227.592+157.81+226.834+156.835+226.616+156.557C225.588+155.245+225.073+154.589+224.306+153.999C223.794+153.605+222.87+152.982+221.582+152.596C220.524+152.278+219.966+152.111+219.436+152.348C218.024+152.98+217.531+156.158+218.694+157.217"/>
<path opacity="1" fill="#152b70" d="M234.443+246.7C234.766+247.461+236.519+246.686+240.873+246.993C245.102+247.291+246.929+248.267+248.765+246.993C249.031+246.808+250.117+246.055+250.373+244.801C250.707+243.16+249.267+242.396+247.596+238.662C246.796+236.875+246.827+236.383+246.28+236.178C245.09+235.732+243.691+237.595+240.435+240.709C236.143+244.813+234.089+245.865+234.443+246.7"/>
<path d="M168.752+378.154C168.833+377.52+165.972+377.262+161.518+375.085C157.996+373.364+156.864+372.098+155.818+372.674C154.62+373.333+154.348+375.964+155.38+377.716C156.207+379.119+157.646+379.578+158.011+379.688C159.428+380.118+160.432+379.7+162.395+379.25C166.651+378.275+168.683+378.692+168.752+378.154" fill="#152b70" opacity="1"/>
<path fill="#152b70" d="M104.962+361.713C106.532+362.417+107.795+360.679+113.073+357.986C117.057+355.954+118.92+355.627+119.211+354.041C119.445+352.763+118.518+351.446+117.676+350.752C116.216+349.549+114.886+350.115+111.538+349.876C107.31+349.572+106.556+348.464+101.893+348.341C99.4147+348.276+98.1147+348.257+97.7277+348.999C97.0277+350.339+100.372+352.129+102.77+357.329C104.056+360.118+103.834+361.207+104.962+361.713" opacity="1"/>
<path fill="#143068" d="M197.031+282.358C199.134+283.145+202.345+281.123+202.292+279.727C202.253+278.69+200.436+278.637+198.127+276.439C195.849+274.271+195.557+272.363+195.058+272.493C194.043+272.759+193.621+281.081+197.031+282.358" opacity="1"/>
<path fill="#fdfc22" d="M200.703+158.95C199.824+158.422+198.757+157.782+198.474+156.639C198.267+155.8+198.658+155.399+198.392+153.998C198.218+153.082+197.978+152.877+198.144+152.595C198.421+152.126+199.243+152.429+201.858+152.513C203.096+152.553+203.661+152.509+204.499+152.843C205.034+153.057+205.609+153.286+205.902+153.833C206.258+154.498+205.894+155.065+205.572+156.557C205.081+158.828+205.535+159.31+204.994+159.775C203.82+160.786+200.98+159.116+200.703+158.95" opacity="1"/>
<path fill="#fdfc22" d="M226.121+166.708C225.733+166.796+226.184+168.639+225.956+171.99C225.69+175.913+225.461+177.27+225.461+177.271C225.251+178.514+225.123+178.868+225.379+179.252C226.037+180.239+227.872+179.374+231.651+179.5C234.391+179.591+235.316+180.109+235.942+179.417C236.74+178.535+236.401+176.402+235.282+175.621C234.134+174.821+232.984+176.01+231.485+175.208C230.977+174.936+230.452+174.06+229.422+172.32C228.9+171.436+228.309+170.37+227.524+168.936C226.476+167.023+226.296+166.669+226.121+166.708" opacity="1"/>
<path opacity="1" fill="#fdfc22" d="M244.38+312.391C243.774+311.093+245.862+309.994+248.107+305.595C249.86+302.159+250.014+300.031+251.614+299.677C252.761+299.422+253.854+300.256+254.245+300.554C255.554+301.552+255.281+302.482+256.875+306.034C257.726+307.931+258.117+308.363+258.19+309.541C258.228+310.148+258.316+311.561+257.533+312.61C256.319+314.235+253.731+314.03+249.641+313.706C246.424+313.451+244.815+313.324+244.38+312.391"/>
<path opacity="1" d="M233.639+341.765C233.039+340.544+229.163+340.731+226.186+342.203C224.645+342.965+224.757+343.372+220.048+348.341C217.203+351.344+216.025+352.396+215.664+354.479C215.424+355.86+215.505+357.916+216.321+358.206C217.616+358.664+218.667+353.937+223.555+350.533C226.405+348.549+228.128+348.707+231.008+345.93C231.974+344.999+234.182+342.871+233.639+341.765" fill="#fdfc22"/>
<path fill="#fdfc22" d="M159.326+296.242C160.6+295.831+159.264+292.613+160.787+287.474C161.41+285.372+162.274+283.751+161.518+281.92C161.141+281.008+160.519+280.426+160.203+280.167C159.614+279.684+158.422+278.958+152.896+279.436C150.34+279.658+149.057+279.78+148.804+280.313C148.202+281.581+151.269+282.79+153.334+287.035C154.818+290.085+154.446+291.952+156.695+294.488C157.406+295.289+158.49+296.512+159.326+296.242" opacity="1"/>
<path d="M139.816+195.77C141.681+197.686+145.361+196.345+145.735+196.208C146.442+195.951+147.777+195.464+148.365+194.236C148.822+193.282+148.541+192.486+148.365+191.167C147.84+187.219+149.228+185.845+148.365+185.029C147.077+183.809+142.37+185.342+140.254+188.755C139.141+190.552+138.063+193.97+139.816+195.77" fill="#fdfc22" opacity="1"/>
<path d="M77.487+172.314C78.143+172.917+79.005+172.031+81.579+172.168C82.935+172.24+83.389+172.522+83.771+172.168C84.321+171.659+83.705+170.781+83.771+168.661C83.827+166.859+84.304+166.468+83.917+165.884C83.292+164.938+81.495+165.125+79.826+165.299C78.425+165.445+77.316+165.56+76.903+166.322C76.594+166.891+76.969+167.278+77.195+168.807C77.536+171.107+76.92+171.793+77.487+172.314" fill="#fdfc22" opacity="1"/>
<path opacity="1" fill="#fdfc22" d="M65.6496+217.472C66.5016+217.577+66.7796+214.584+69.5956+209.873C70.8336+207.801+71.5216+207.14+71.2026+206.511C70.5346+205.19+66.0176+205.191+64.4806+207.388C63.8296+208.319+63.9896+209.726+64.3346+212.503C64.6766+215.259+64.9406+217.384+65.6496+217.472"/>
<path d="M53.4469+322.474C55.8459+323.291+58.7739+320.454+60.0229+318.747C62.6319+315.184+62.6019+310.162+60.4619+306.691C59.7659+305.562+58.6219+303.707+56.9539+303.622C53.9769+303.469+50.9499+309.038+50.5969+313.925C50.4259+316.296+50.6659+321.527+53.4469+322.474" opacity="1" fill="#fdfc22"/>
<path fill="#fdfc22" d="M54.3238+314.363C55.4978+315.284+57.3118+314.876+58.2698+313.925C59.7538+312.451+59.4088+309.453+57.8308+308.663C56.6468+308.071+54.9438+308.812+54.1048+309.979C53.2098+311.223+53.0168+313.338+54.3238+314.363" opacity="1"/>
<path fill="#fdfc22" d="M29.9913+270.521C31.6263+270.548+33.3283+265.826+33.4983+261.753C33.6833+257.323+32.1303+251.927+30.4293+251.888C28.4743+251.843+25.9203+258.87+27.1413+265.041C27.5003+266.856+28.5633+270.498+29.9913+270.521" opacity="1"/>
<path opacity="1" fill="#e5210e" d="M155.726+136.75C156.128+136.226+155.967+135.438+155.643+133.861C155.386+132.604+154.947+131.672+154.653+131.056C154.223+130.155+154.008+129.705+153.745+129.487C152.819+128.72+151.687+129.263+148.959+129.487C146.296+129.706+145.244+129.364+145.08+129.817C144.854+130.444+146.85+131.123+148.711+133.779C149.59+135.032+149.428+135.284+150.114+135.925C151.814+137.511+154.859+137.879+155.726+136.75"/>
<path fill="#e5210e" d="M272.586+247.869C271.815+247.819+272.65+244.244+270.394+240.708C269.239+238.897+268.005+238.244+267.471+236.031C267.303+235.331+267.006+234.02+267.763+233.109C267.807+233.057+268.467+232.282+269.225+232.378C270.209+232.502+270.599+233.998+271.563+236.616C273.43+241.687+274.24+242.245+274.048+244.362C273.888+246.119+273.134+247.904+272.586+247.869" opacity="1"/>
<path d="M181.247+346.588C181.658+346.329+181.877+345.819+181.685+341.108C181.519+337.007+181.32+336.591+181.028+336.504C180.178+336.252+178.736+338.837+178.178+340.012C177.3+341.86+176.564+343.408+177.301+344.834C178.076+346.335+180.235+347.226+181.247+346.588" opacity="1" fill="#e5210e"/>
<path fill="#e5210e" d="M192.866+368.509C190.988+369.789+187.455+368.878+187.166+367.632C186.861+366.311+190.025+363.84+192.647+363.906C193.291+363.922+195.277+364.125+195.277+364.125C195.276+364.126+194.572+367.346+192.866+368.509" opacity="1"/>
<path d="M219.683+219.664C220.656+220.837+223.068+220.766+224.506+219.664C226.111+218.435+226.017+216.294+225.967+215.134C225.944+214.613+225.756+211.554+224.359+211.188C222.823+210.786+220.974+213.944+220.706+214.403C220.046+215.531+218.477+218.211+219.683+219.664" fill="#e5210e" opacity="1"/>
<path d="M171.748+186.49C172.245+186.289+172.135+185.397+172.186+181.229C172.224+178.19+172.293+177.74+171.894+177.43C170.467+176.318+165.609+178.98+165.756+181.083C165.793+181.609+166.123+181.799+168.241+183.713C170.906+186.123+171.316+186.665+171.748+186.49" opacity="1" fill="#e5210e"/>
<path d="M147.781+257.222C148.549+257.113+149.53+253.745+147.927+251.669C146.672+250.044+144.486+250.058+143.981+250.062C142.049+250.074+139.972+251.082+140.035+251.815C140.115+252.738+143.497+252.136+145.881+254.591C147.203+255.953+147.284+257.292+147.781+257.222" fill="#e5210e" opacity="1"/>
<path fill="#e5210e" d="M89.8361+332.996C91.6151+332.284+91.5971+328.666+91.5901+327.077C91.5821+325.612+91.5671+322.388+90.0551+321.816C89.6661+321.669+89.4061+321.783+86.3291+323.351C83.7551+324.662+83.1761+324.969+82.6021+325.762C82.2451+326.255+81.5061+327.275+81.7251+328.393C81.8031+328.79+82.0761+329.577+85.6711+331.462C87.9801+332.671+89.1481+333.271+89.8361+332.996" opacity="1"/>
<path fill="#e5210e" d="M113.511+173.849C115.029+173.381+115.786+171.484+117.238+167.711C118.309+164.928+118.844+163.536+118.334+163.108C117.422+162.342+113.997+164.967+111.977+167.053C110.26+168.827+108.576+170.567+109.127+172.095C109.631+173.495+111.88+174.352+113.511+173.849" opacity="1"/>
<path fill="#e5210e" d="M35.91+237.858C36.479+238.481+37.466+238.501+39.417+238.516C41.584+238.532+42.667+238.54+42.925+238.077C43.511+237.024+40.978+234.726+37.664+231.72C36.571+230.729+35.883+230.19+35.472+230.405C35.005+230.648+35.323+231.637+35.472+234.789C35.573+236.931+35.468+237.374+35.91+237.858" opacity="1"/>
<path opacity="1" d="M244.773+199.636C244.244+199.58+243.893+197.503+243.947+195.84C243.989+194.577+244.235+194.446+244.113+193.529C243.942+192.253+243.425+192.205+242.957+190.641C242.818+190.173+242.726+189.256+242.544+187.422C242.375+185.713+242.407+185.541+242.544+185.442C243.166+184.995+245.164+186.598+246.341+188.082C246.807+188.67+247.335+189.351+247.579+190.393C247.786+191.279+247.679+191.956+247.496+193.034C247.252+194.475+246.849+195.45+246.093+197.243C245.413+198.859+245.066+199.667+244.773+199.636" fill="#143068"/>
<path d="M104.669+296.826C105.631+295.659+104.298+293.066+102.623+289.811C101.339+287.315+100.689+286.051+99.2623+284.842C96.4803+282.486+91.8583+281.278+90.3473+282.943C89.7263+283.628+90.0713+285.455+90.7863+289.081C91.7843+294.142+92.6083+295.034+93.2703+295.511C93.8353+295.917+94.2733+296.015+96.9243+296.388C103.898+297.367+104.375+297.183+104.669+296.826" opacity="1" fill="#143068"/>
<path opacity="1" fill="#143068" d="M152.531+157.627C151.545+158.041+150.725+156.866+147.708+155.216C144.54+153.483+143.123+153.508+143.105+152.804C143.076+151.692+146.579+150.038+149.681+150.831C150.09+150.936+153.058+151.696+153.627+154.12C153.932+155.418+153.55+157.2+152.531+157.627"/>
<path d="M35.4716+290.031C36.4606+289.897+36.7526+284.986+36.1296+281.043C35.7516+278.655+34.7926+275.067+33.9376+275.125C33.1226+275.179+32.5566+278.533+32.6216+281.263C32.7266+285.636+34.4936+290.163+35.4716+290.031" opacity="1" fill="#143068"/>
<path d="M37.6637+216.376C38.8177+217.338+41.6817+216.521+43.1437+214.842C44.7807+212.962+43.4737+211.362+45.1167+208.484C46.4327+206.179+47.7377+206.388+48.6247+204.1C49.1917+202.636+49.5837+200.159+48.4047+199.277C47.0557+198.268+44.4047+199.916+44.0207+200.154C42.9627+200.812+41.3377+202.147+39.4177+206.95C37.7997+210.996+36.1527+215.117+37.6637+216.376" opacity="1" fill="#143068"/>
<path fill="#143068" d="M65.9398+165.875C65.1408+167.035+64.3808+168.1+62.9738+169.013C62.3078+169.431+62.4978+169.203+60.3688+170.21C59.7408+169.241+59.1138+168.252+58.4668+167.263C58.4858+167.244+58.5048+167.225+58.5048+167.206C59.5128+165.114+60.2928+165.324+62.0608+162.585C62.8788+161.292+63.3538+160.266+63.8668+160.361C64.3808+160.437+64.2478+161.483+65.1978+162.243C66.0348+162.947+66.7958+162.624+67.0998+163.156C67.4228+163.764+66.7768+164.696+65.9398+165.875" opacity="1"/>
<path opacity="1" d="M201.364+140.464C200.626+140.323+200.175+139.676+199.631+138.896C199.375+138.529+199.229+138.32+199.135+137.988C198.841+136.948+199.342+135.709+199.796+135.678C200.147+135.654+200.157+136.376+201.034+137.081C201.609+137.543+201.832+137.414+202.437+137.906C202.804+138.205+203.515+138.784+203.427+139.391C203.326+140.081+202.222+140.628+201.364+140.464" fill="#912829"/>
<path d="M172.809+154.163C172.177+153.344+171.244+152.136+171.653+151.11C171.969+150.318+172.921+150.044+174.377+149.624C175.505+149.299+176.152+149.113+176.935+149.377C177.816+149.674+178.75+150.5+178.833+151.522C178.884+152.14+178.538+152.658+177.843+153.668C176.78+155.215+176.249+155.987+175.45+156.061C174.353+156.163+173.46+155.006+172.809+154.163" fill="#912829" opacity="1"/>
<path d="M236.107+166.955C235.889+167.258+237.292+168.286+240.068+171.659C241.387+173.262+241.711+173.808+241.884+173.722C242.245+173.544+241.764+170.705+239.82+168.771C238.37+167.328+236.344+166.626+236.107+166.955" opacity="1" fill="#912829"/>
<path d="M255.633+191.751C254.909+192.123+252.813+189.469+251.687+187.659C250.679+186.038+249.226+183.125+249.934+182.544C250.422+182.143+251.742+183.02+252.126+183.275C252.489+183.516+253.865+184.487+254.902+187.075C255.5+188.566+256.31+191.403+255.633+191.751" fill="#912829" opacity="1"/>
<path opacity="1" fill="#912829" d="M236.05+294.196C236.493+294.187+236.345+292.232+237.584+287.839C238.102+286.006+238.42+285.31+238.242+284.112C238.018+282.605+237.196+281.561+236.269+280.386C235.639+279.585+233.732+277.165+232.981+277.536C232.329+277.858+233.034+280.044+234.077+285.208C235.323+291.381+235.517+294.207+236.05+294.196"/>
<path d="M258.848+292.661C257.806+292.909+255.776+293.394+255.341+292.661C254.862+291.856+256.525+289.955+257.971+288.934C258.929+288.258+260.339+287.264+261.698+287.838C262.542+288.195+263.317+289.137+263.232+290.03C263.079+291.651+260.17+292.346+258.848+292.661" fill="#912829" opacity="1"/>
<path d="M238.023+332.12C238.983+332.128+239.699+330.444+241.092+327.078C242.496+323.684+242.466+322.774+242.407+322.255C242.203+320.447+241.092+318.446+240.215+318.529C239.29+318.616+239.637+320.927+237.804+325.105C236.756+327.493+235.829+328.593+236.269+330.147C236.521+331.038+237.233+332.114+238.023+332.12" opacity="1" fill="#912829"/>
<path opacity="1" d="M168.533+366.317C167.926+366.407+166.844+366.524+162.833+366.098C159.489+365.742+159.354+365.566+159.326+365.44C159.134+364.579+163.278+363.025+166.341+362.371C167.509+362.121+168.516+362.004+169.629+362.371C170.925+362.799+172.419+363.904+172.26+364.783C172.076+365.792+169.776+366.133+168.533+366.317" fill="#912829"/>
<path d="M143.543+372.674C140.722+373.419+137.046+370.336+136.747+367.194C136.735+367.07+136.553+364.911+137.624+364.344C138.228+364.025+138.914+364.377+142.885+366.974C145.614+368.758+146.121+369.136+146.174+369.824C146.265+371.032+144.889+372.319+143.543+372.674" opacity="1" fill="#912829"/>
<path opacity="1" fill="#912829" d="M135.213+325.762C136.094+326.04+136.835+325.084+140.693+321.378C143.233+318.939+143.958+318.348+143.981+317.213C144.009+315.916+143.108+314.598+142.009+313.925C140.116+312.767+138.801+314.236+133.679+314.144C132.104+314.116+131.644+313.966+131.267+314.363C130.428+315.247+131.723+317.02+133.679+322.693C134.429+324.871+134.565+325.557+135.213+325.762"/>
<path opacity="1" fill="#912829" d="M200.1+256.783C201.023+256.19+201.084+254.858+201.123+254.007C201.163+253.123+201.059+250.97+200.1+250.645C198.715+250.177+195.333+253.45+196.154+255.468C196.672+256.738+198.882+257.567+200.1+256.783"/>
<path d="M159.911+238.809C161.036+238.848+162.144+236.822+162.396+235.155C162.485+234.564+162.764+232.716+161.665+231.794C160.731+231.012+159.364+231.367+157.719+231.794C156.744+232.047+154.554+232.616+154.504+233.548C154.467+234.247+155.674+234.361+157.28+235.886C159.027+237.544+159.041+238.779+159.911+238.809" fill="#912829" opacity="1"/>
<path d="M117.53+285.574C118.306+285.464+119.505+280.767+117.384+279.436C115.765+278.42+112.894+279.793+112.853+280.751C112.823+281.479+114.443+281.59+116.068+283.527C117.113+284.773+117.192+285.622+117.53+285.574" opacity="1" fill="#912829"/>
<path opacity="1" d="M74.2721+348.999C74.7431+348.389+72.6151+346.939+71.6411+342.861C71.2391+341.178+71.3821+340.505+70.7651+340.011C69.0541+338.642+63.9991+340.638+63.7501+342.861C63.3851+346.122+73.3251+350.224+74.2721+348.999" fill="#912829"/>
<path fill="#912829" d="M117.238+204.319C116.195+204.045+116.2+203.367+112.635+197.962C111.677+196.51+111.347+196.059+111.539+195.77C111.729+195.482+112.38+195.44+120.088+198.62C122.195+199.489+122.815+199.768+122.938+200.373C123.267+202.01+119.733+204.974+117.238+204.319" opacity="1"/>
<path opacity="1" fill="#912829" d="M132.363+142.501C132.754+142.941+133.702+142.186+137.186+141.405C139.604+140.862+140.363+140.954+140.474+140.528C140.705+139.645+137.964+137.232+135.432+137.898C132.985+138.541+131.737+141.797+132.363+142.501"/>
<path d="M132.359+131.534C130.153+132.637+127.7+132.846+126.027+132.694C125.894+132.181+125.761+131.648+125.647+131.135C126.597+130.754+127.967+130.241+129.735+129.576C134.127+127.902+136.333+127.085+136.523+127.37C136.885+127.921+134.945+130.26+132.359+131.534" opacity="1" fill="#912829"/>
<path d="M86.2555+150.977C87.3775+150.35+88.0445+149.399+88.8865+148.2C89.7835+146.922+90.3055+146.178+90.0555+145.57C89.6115+144.491+86.8885+144.211+84.9405+145.131C84.4135+145.38+83.6565+146.129+82.1635+147.616C79.8415+149.93+79.7745+150.174+79.8255+150.393C80.0965+151.546+83.7555+152.374+86.2555+150.977" fill="#912829" opacity="1"/>
<path d="M66.8189+186.636C66.9719+186.657+67.2969+186.624+69.0109+183.859C69.9599+182.328+70.4389+181.547+70.6189+180.79C71.0009+179.183+70.7499+177.26+70.1799+177.137C69.7479+177.042+69.4769+178.058+67.8419+180.352C66.4749+182.269+65.9659+182.539+65.7959+183.567C65.5679+184.95+66.1449+186.544+66.8189+186.636" opacity="1" fill="#912829"/>
<path fill="#912829" d="M69.8878+255.03C71.1428+254.198+67.8768+250.314+69.0108+244.801C69.6358+241.759+71.0488+240.905+70.6188+238.516C70.2098+236.243+68.3538+233.812+66.5268+233.84C64.2538+233.874+62.8058+237.702+61.5578+241.001C60.5568+243.647+59.9498+245.321+60.5348+247.285C61.0448+248.999+62.1748+249.967+64.3348+251.815C66.2738+253.476+68.8738+255.702+69.8878+255.03" opacity="1"/>
<path fill="#912829" d="M49.2819+300.992C47.4049+301.027+44.9669+295.274+46.4319+293.758C47.1509+293.015+48.8569+293.241+49.9399+293.977C51.3869+294.961+51.4589+296.675+51.4739+297.046C51.5509+298.897+50.3989+300.971+49.2819+300.992" opacity="1"/>
<path d="M37.8829+307.787C36.4799+308.078+32.0139+295.757+33.2799+295.073C33.9349+294.718+36.2979+297.398+37.4449+300.115C38.8879+303.536+38.6579+307.626+37.8829+307.787" opacity="1" fill="#912829"/>
<path fill="#912829" d="M29.5529+219.445C31.0079+219.843+38.1359+201.501+36.7869+200.812C36.0649+200.443+32.6159+204.978+30.8679+209.8C29.3539+213.977+28.8019+219.239+29.5529+219.445" opacity="1"/>
<path d="M51.474+191.605C52.233+192.062+54.069+190.217+54.961+189.32C56.198+188.076+56.948+187.322+56.735+186.563C56.461+185.586+54.689+184.959+53.447+185.467C52.421+185.887+52.064+186.954+51.66+188.165C51.534+188.54+50.696+191.137+51.474+191.605" opacity="1" fill="#912829"/>
<path opacity="1" d="M72.7864+158.785C73.2664+158.742+73.6024+158.399+74.2724+157.712C74.7994+157.172+75.0634+156.902+75.1794+156.556C75.3754+155.978+75.1374+155.647+74.3544+153.503C73.9354+152.353+73.8794+152.106+73.6114+152.018C72.9684+151.805+72.1024+152.841+71.5484+153.503C70.9254+154.248+70.4384+154.831+70.3934+155.731C70.3504+156.602+70.7484+157.245+70.8884+157.465C71.0034+157.645+71.7884+158.874+72.7864+158.785" fill="#912829"/>
<path opacity="1" fill="#50a24a" d="M112.853+257.588C113.74+257.714+115.472+257.959+116.799+256.93C118.893+255.307+118.264+251.841+118.114+251.012C117.9+249.834+117.551+247.907+115.922+246.847C113.893+245.527+110.691+246.08+108.907+248.162C106.987+250.402+107.311+253.708+108.907+255.615C110.25+257.219+112.212+257.497+112.853+257.588"/>
<path opacity="1" d="M189.468+229.528C190.163+229.743+192.033+230.322+193.852+229.747C196.597+228.88+197.676+225.876+199.552+220.65C200.553+217.861+200.95+214.297+201.744+207.168C201.877+205.97+201.934+205.342+201.525+204.976C200.646+204.19+198.517+205.417+185.632+214.95C182.249+217.453+180.223+218.995+180.371+220.979C180.456+222.126+181.743+223.352+184.317+225.801C186.529+227.907+187.672+228.972+189.468+229.528" fill="#50a24a"/>
<path fill="#50a24a" d="M187.169+136.503C184.923+135.797+183.355+134.532+182.382+133.78C178.349+130.658+176.669+130.226+176.853+129.653C177.195+128.59+183.098+129.778+184.528+130.066C184.529+130.066+185.952+130.353+189.975+132.377C190.34+132.561+191.054+132.932+191.213+133.615C191.339+134.158+191.064+134.68+190.8+135.183C190.584+135.594+190.281+136.169+189.727+136.503C188.992+136.945+188.094+136.794+187.169+136.503" opacity="1"/>
<path d="M260.602+226.679C259.001+226.777+258.766+224.416+255.048+219.664C254.115+218.471+253.171+217.394+253.441+216.157C253.578+215.533+254.047+214.757+254.756+214.549C256.593+214.011+259.029+217.575+260.456+219.664C262.002+221.928+263.189+223.716+262.502+225.218C262.202+225.872+261.477+226.625+260.602+226.679" opacity="1" fill="#50a24a"/>
<path d="M259.433+266.867C259.029+264.01+259.719+260.165+261.187+259.852C263.069+259.451+265.849+264.939+266.886+268.914C267.414+270.935+267.454+272.429+267.033+273.882C266.559+275.515+265.297+277.797+264.11+277.682C263.376+277.611+263.112+276.669+261.041+271.398C259.704+267.996+259.555+267.727+259.433+266.867" opacity="1" fill="#50a24a"/>
<path fill="#50a24a" opacity="1" d="M213.252+321.159C213.651+320.857+215.649+319.254+215.225+317.213C215.04+316.324+214.405+315.394+213.471+315.021C212.587+314.668+211.712+315.005+209.964+315.679C208.738+316.151+207.755+316.53+207.772+316.994C207.799+317.745+210.421+317.983+210.402+318.528C210.384+319.079+207.712+318.821+205.36+320.501C204.074+321.42+202.819+322.966+203.168+323.57C203.4+323.971+204.194+323.709+210.402+322.255C211.675+321.957+212.425+321.785+213.252+321.159"/>
<path opacity="1" d="M209.087+349.876C207.32+351.332+207.371+351.073+204.703+353.164C202.874+354.598+202.631+354.89+201.853+355.137C200.443+355.584+197.981+355.653+196.811+354.041C195.66+352.455+196.448+350.19+197.25+348.999C198.625+346.956+201.109+346.493+202.949+346.149C204.989+345.769+205.121+346.218+208.649+345.93C211.641+345.686+212.805+345.261+213.033+345.711C213.359+346.356+211.369+347.996+209.087+349.876" fill="#50a24a"/>
<path fill="#50a24a" d="M127.76+373.989C126.511+374.915+125.147+373.287+121.184+372.893C118.595+372.635+117.097+373.122+116.58+372.235C116.219+371.616+116.518+370.637+117.019+370.043C117.321+369.684+118.142+368.935+124.033+369.605C127.515+370+128.116+370.363+128.418+370.92C128.911+371.834+128.637+373.339+127.76+373.989" opacity="1"/>
<path d="M185.193+293.319C183.765+295.077+178.524+293.476+175.328+291.346C174.6+290.861+172.808+289.64+171.383+287.4C170.511+286.031+170.692+285.72+168.971+279.728C168.152+276.876+167.782+275.799+168.314+275.344C168.854+274.88+169.682+275.613+172.259+276.22C174.921+276.848+175.388+276.385+177.301+277.097C177.926+277.329+179.377+277.871+180.59+279.07C182.047+280.512+182.285+282.04+183.001+284.77C184.755+291.456+185.973+292.359+185.193+293.319" opacity="1" fill="#50a24a"/>
<path d="M67.9149+330.804C69.5589+331.546+71.9049+331.101+72.2989+329.927C72.6269+328.949+71.5339+327.669+70.5459+327.077C68.8399+326.056+66.2039+326.339+65.7229+327.516C65.3089+328.529+66.5079+330.169+67.9149+330.804" opacity="1" fill="#50a24a"/>
<path opacity="1" fill="#50a24a" d="M107.373+217.691C106.416+218.421+105.216+217.414+99.0431+214.841C95.2501+213.26+94.2601+213.038+93.5631+211.772C92.4741+209.796+92.9011+206.724+94.4391+205.854C95.1551+205.449+95.8691+205.657+101.454+208.484C105.939+210.754+106.748+211.262+107.373+212.43C108.298+214.16+108.535+216.806+107.373+217.691"/>
<path opacity="1" fill="#50a24a" d="M114.169+145.351C115.217+144.954+120.203+143.064+120.088+139.652C120.011+137.369+117.676+135.144+115.484+135.048C113.774+134.974+113.014+136.233+110.004+138.555C104.906+142.488+102.2+142.643+102.332+143.817C102.53+145.584+108.898+147.349+114.169+145.351"/>
<path fill="#50a24a" d="M94.878+160.477C95.327+160.889+97.092+158.383+101.674+156.093C103.388+155.236+104.62+154.847+104.743+153.901C104.871+152.909+103.735+151.649+102.55+151.489C101.079+151.292+99.83+152.832+97.947+155.216C96.946+156.483+94.342+159.985+94.878+160.477" opacity="1"/>
<path d="M43.692+270.302C45.001+270.837+46.83+269.132+48.515+267.562C50.012+266.166+50.943+265.298+50.707+264.602C50.414+263.74+48.429+263.735+44.459+263.726C41.701+263.719+41.064+263.934+40.842+264.383C40.634+264.806+40.916+265.19+42.048+267.452C43.267+269.889+43.284+270.135+43.692+270.302" opacity="1" fill="#50a24a"/>
<path fill="#000000" d="M81.8874+195.053C87.7474+195.747+97.4864+197.655+107.953+203.61C119.537+210.199+126.525+218.622+130.058+223.575C131.247+221.362+132.903+218.793+135.208+216.207C136.252+215.035+137.296+214.01+138.298+213.117C136.972+216.905+135.675+221.598+134.891+227.061C133.892+234.023+134.034+240.1+134.495+244.809C139.469+244.223+146.912+242.733+154.777+238.47C166.326+232.211+172.449+223.409+179.972+212.325C184.755+205.278+190.898+194.863+195.976+181.109C198.369+180.833+207.228+180.101+215.942+185.862C224.124+191.273+227.031+199.005+227.826+201.391C226.83+200.766+225.56+200.08+224.023+199.49C222.543+198.921+221.189+198.585+220.062+198.381C221.798+203.69+223.458+210.343+224.261+218.109C224.803+223.351+224.853+228.125+224.657+232.29C223.778+231.739+222.694+231.15+221.409+230.627C219.898+230.012+218.512+229.653+217.368+229.438C218.111+231.82+218.819+234.58+219.349+237.678C219.877+240.763+220.128+243.591+220.22+246.076C218.048+246.166+213.245+246.655+208.257+249.8C203.311+252.918+200.803+256.994+199.779+258.911C203.476+259.308+226.225+262.099+238.284+280.461C243.688+288.689+245.024+297.118+245.257+298.684C245.856+302.721+247.228+311.975+242.563+321.66C236.181+334.91+223.09+339.439+220.22+340.358C221.361+340.27+222.551+340.148+223.786+339.982C225.86+339.704+227.792+339.34+229.569+338.932C227.158+340.69+223.124+343.212+217.685+344.637C206.023+347.691+195.709+343.659+183.3+338.615C177.852+336.401+170.122+332.802+161.433+327.048C153.367+322.06+126.658+306.975+92.9794+312.945C78.4164+315.527+67.1574+321.229+59.7034+325.939C61.0184+323.941+63.0584+321.338+66.0814+318.887C68.0504+317.291+69.9624+316.145+71.5874+315.322C72.9254+311.852+75.1404+307.033+78.7974+301.893C80.3924+299.651+84.0444+294.843+91.8704+288.464C93.8624+286.84+103.242+279.313+118.847+272.182C125.892+268.963+135.596+265.19+147.647+262.397C146.869+262.267+145.101+261.861+143.448+260.417C142.087+259.228+141.439+257.89+141.15+257.168C140.224+258.217+138.31+260.019+135.842+260.06C131.879+260.126+127.545+255.637+126.889+248.77C120.432+258.843+113.102+264.686+108.508+267.785C99.7024+273.726+91.1214+276.218+84.1454+278.243C79.1194+279.703+74.8224+280.569+71.7464+281.095C71.9174+278.243+72.0894+275.391+72.2614+272.539C70.0764+272.262+63.4434+271.13+58.2374+265.527C49.6044+256.235+53.0184+243.392+53.2464+242.59C52.2884+242.614+51.0624+242.55+49.6814+242.234C48.7794+242.027+47.9964+241.755+47.3434+241.481C49.3314+237.837+51.6744+233.931+54.4344+229.874C57.3864+225.536+60.3554+221.7+63.1894+218.346C62.6614+217.237+62.1334+216.128+61.6044+215.019C59.6964+215.867+57.6294+216.951+55.5044+218.346C49.3084+222.413+45.3264+227.346+42.9074+231.023C44.4304+227.243+47.4694+221.133+53.3654+215.375C57.7404+211.102+62.1814+208.495+65.4074+206.937C67.7494+211.264+71.9834+217.87+79.1544+223.932C86.9854+230.552+94.5874+233.367+102.803+236.41C108.31+238.45+116.267+240.923+126.255+242.432C126.536+241.58+126.88+240.327+127.047+238.787C127.235+237.057+127.616+231.128+121.343+222.149C118.674+218.329+114.777+213.923+106.844+208.284C101.33+204.365+93.0464+199.268+81.8874+195.053" opacity="1"/>
<path d="M176.554+243.382C177.187+243.346+177.662+242.803+178.614+241.718C179.464+240.749+179.889+240.251+179.882+239.579C179.872+238.635+179.102+237.981+178.931+237.836C177.801+236.877+175.841+236.759+174.969+237.678C174.569+238.1+174.491+238.672+174.336+239.817C174.217+240.691+174.158+241.128+174.336+241.639C174.643+242.521+175.569+243.438+176.554+243.382" fill="#646a6b" opacity="1"/>
<path fill="#646a6b" d="M94.0769+245.68C95.0519+245.697+95.7159+244.587+96.0579+244.016C96.7009+242.941+96.6999+241.922+96.6919+241.639C96.6739+241.022+96.6399+239.877+95.8199+239.342C95.2689+238.982+94.6399+239.078+94.4729+239.104C93.2089+239.298+92.3869+240.581+92.0959+241.56C92.0309+241.78+91.6079+243.292+92.4919+244.571C92.6849+244.849+93.2499+245.666+94.0769+245.68" opacity="1"/>
<path opacity="1" fill="#ffffff" d="M70.0311+224.169C70.2081+227.27+70.5191+231.646+71.1011+236.885C72.2241+247.009+73.1431+249.44+73.7941+250.909C75.0011+253.631+77.1341+258.442+82.3911+261.367C87.5391+264.232+92.7081+263.632+94.6321+263.308C93.5031+263.27+83.8651+262.783+78.2311+254.712C73.4571+247.872+73.5161+238.392+78.4691+230.943C82.4701+233.122+86.4711+235.301+90.4721+237.479C87.5331+244.288+91.4541+251.674+97.2461+253.167C102.418+254.5+108.68+251.03+110.438+244.729C114.082+245.759+117.727+246.789+121.371+247.819C119.123+251.206+115.244+256.193+109.13+260.654C105.87+263.032+96.0141+270.018+82.3911+269.924C77.8921+269.892+71.5331+269.848+65.8721+265.408C65.8711+265.407+61.2371+261.772+59.0971+256.019C55.5331+246.434+60.0331+233.965+70.0311+224.169"/>
<path opacity="1" fill="#ffffff" d="M147.16+256.732L153.578+255.781C155.43+256.887+158.103+258.25+161.5+259.228C164.406+260.064+178.613+263.718+190.181+254.949C200.208+247.348+201.543+235.5+202.065+230.864C203.152+221.215+200.468+213.54+198.857+209.789C200.164+207.808+201.471+205.828+202.779+203.847C211.201+222.526+210.726+242.122+200.639+253.682C196.011+258.986+190.088+261.762+188.28+262.555C174.035+268.803+160.469+263.681+157.222+262.397C152.7+260.609+149.319+258.364+147.16+256.732"/>
<path fill="#ffffff" opacity="1" d="M159.599+251.305L169.106+243.699C169.458+243.966+176.289+249.003+182.575+246.393C188.902+243.766+192.632+234.242+188.438+225.001C190.445+222.941+192.452+220.881+194.46+218.821C202.161+233.64+196.548+250.212+185.428+255.583C177.667+259.332+167.505+257.492+159.599+251.305"/>
<path opacity="1" fill="#ffffff" d="M104.297+290.444C117.893+287.14+129.512+285.753+138.128+285.136C165.579+283.168+187.457+287.215+200.164+289.652C206.959+290.955+212.568+292.296+216.485+293.296C216.628+293.273+217.517+293.112+218.069+292.266C218.608+291.442+218.421+290.589+218.386+290.444C217.647+283.604+216.907+276.764+216.168+269.925C214.303+269.111+212.348+268.314+210.305+267.547C205.481+265.736+200.879+264.36+196.598+263.308C193.06+265.695+185.035+270.404+173.781+271.112C164.614+271.689+157.419+269.352+153.577+267.785C145.609+270.275+136.688+273.579+127.194+278.005C118.518+282.05+110.884+286.324+104.297+290.444"/>
<path d="M84.8072+310.568C86.1752+307.662+88.3452+303.937+91.7792+300.268C93.4602+298.472+95.1442+297.011+96.6912+295.831C104.583+293.83+115.699+291.473+129.175+290.127C140.628+288.983+159.697+287.217+183.684+291.553C194.642+293.534+210.112+297.418+227.577+305.656L227.577+324.829C226.564+326.62+224.038+330.498+219.179+332.91C216.772+334.105+213.074+335.941+209.196+334.495C203.569+332.398+202.437+325.21+202.382+324.829C201.554+326.818+199.455+330.958+195.252+332.594C188.759+335.12+179.306+330.871+174.177+321.026C172.698+322.294+171.219+323.562+169.74+324.829C164.027+320.837+155.299+315.648+143.753+311.994C141.763+311.364+134.582+309.164+124.58+308.033C115.77+307.036+101.845+306.537+84.8072+310.568" opacity="1" fill="#ffffff"/>
<g vectornator:mask="#Mask_3" opacity="0.0625">
<clipPath id="ClipPath_3">
<use xlink:href="#Mask_3" fill="none" overflow="visible"/>
</clipPath>
<g clip-path="url(#ClipPath_3)">
<g opacity="0.25">
<path fill="#000000" d="M283.377+254.237C283.377+327.497+223.987+386.887+150.747+386.887C139.667+386.887+128.917+385.527+118.627+382.967C167.617+383.007+214.437+362.617+245.957+325.717C269.687+297.937+279.347+267.127+282.767+241.477C283.167+245.677+283.377+249.927+283.377+254.237" opacity="0.25"/>
<path fill="#000000" d="M157.287+121.76C155.005+124.479+152.819+126.989+150.708+129.29C149.681+130.412+148.692+131.496+147.704+132.522C146.392+133.911+145.136+135.223+143.939+136.42C142.703+137.657+141.505+138.835+140.345+139.957C139.964+140.319+139.603+140.68+139.261+141.003C130.647+149.237+123.802+154.542+121.368+156.386C118.915+158.25+111.651+163.707+101.783+169.145C97.0862+171.75+92.7512+173.823+87.0652+175.097C85.9242+175.344+82.7682+176.01+78.5842+176.2C76.1702+176.314+72.9752+176.295+69.2102+175.781C73.3932+175.496+76.9682+174.717+79.8012+173.899C76.4742+174.374+72.5002+174.621+68.0502+174.317C66.0922+174.184+64.2662+173.956+62.5742+173.652C61.8322+172.511+61.1102+171.37+60.3682+170.21C59.7412+169.24+59.1132+168.251+58.4672+167.263C57.4022+165.589+56.3182+163.916+55.2342+162.224C51.7732+156.842+48.3322+151.461+44.8712+146.08C53.2192+145.738+67.1752+144.141+82.6542+136.934C97.4282+130.07+107.373+120.999+113.001+115.029C114.256+118.699+115.473+122.368+116.69+126.038C118.706+132.009+120.702+137.98+122.699+143.95C122.87+144.331+123.136+145.072+123.041+146.023C122.984+146.517+122.832+146.917+122.699+147.202C121.805+148.666+120.797+150.187+119.619+151.727C116.405+155.968+112.944+159.238+109.769+161.71C109.446+161.976+109.122+162.205+108.818+162.452C110.054+161.596+112.849+159.638+115.758+157.223C116.082+156.957+116.424+156.671+116.766+156.386C117.793+155.511+118.782+154.618+119.714+153.705C120.721+152.735+121.634+151.746+122.414+150.777C123.935+148.894+125.152+146.974+125.152+146.974C126.578+144.711+127.548+142.676+128.175+141.174C127.453+138.36+126.749+135.527+126.027+132.694C125.893+132.18+125.76+131.648+125.646+131.134C125.057+128.872+124.486+126.59+123.916+124.327C132.568+122.54+141.543+121.608+150.746+121.608C152.933+121.608+155.119+121.665+157.287+121.76" opacity="0.25"/>
</g>
</g>
</g>
<path d="M113.002+115.029C111.253+117.824+108.648+121.38+104.959+124.936C104.046+125.81+101.593+128.13+97.4286+130.963C95.2416+132.466+88.6816+136.763+78.6606+140.3C65.4646+144.977+52.9526+145.966+44.8716+146.08C44.6426+145.776+44.3386+145.301+44.0726+144.73C43.9586+144.502+43.5976+143.742+43.4836+143.038C46.8676+143.19+51.3936+143.19+56.7176+142.601C67.2516+141.46+74.9146+138.684+79.2886+137.067C88.3776+133.702+93.6256+130.317+95.1276+129.29C97.0866+127.997+98.6266+126.799+99.7296+125.887C102.24+123.833+104.997+121.57+107.488+117.957C108.591+116.398+110.017+114.021+111.177+110.789C111.842+111.435+112.089+112.177+112.165+112.5C112.45+113.337+112.736+114.192+113.002+115.029" fill="#ffffff" opacity="1"/>
</g>
</g>
</g>
</g>
</g>
</svg>
