<?xml version="1.0" encoding="UTF-8" standalone="no"?> <!-- Created with Vectornator for iOS (http://vectornator.io/) --><!DOCTYPE svg PUBLIC "-//W3C//DTD SVG 1.1//EN" "http://www.w3.org/Graphics/SVG/1.1/DTD/svg11.dtd">
<svg viewBox="0 0 450 450" xmlns="http://www.w3.org/2000/svg" xmlns:xlink="http://www.w3.org/1999/xlink" width="100%" xml:space="preserve" height="100%" style="fill-rule:nonzero;clip-rule:evenodd;stroke-linecap:round;stroke-linejoin:round;" version="1.1" xmlns:vectornator="http://vectornator.io">
<metadata>
<vectornator:setting key="WDGuidesVisible" value="true"/>
<vectornator:setting value="true" key="WDRulersVisible"/>
<vectornator:setting key="IsTimeLapseWatermarkDisabled" value="false"/>
<vectornator:setting key="VNSnapToGuides" value="true"/>
<vectornator:setting value="false" key="WDSnapToPoints"/>
<vectornator:setting value="false" key="WDIsolateActiveLayer"/>
<vectornator:setting key="WDCMYKEnabledKey" value="false"/>
<vectornator:setting key="UndoHistoryDisabled" value="true"/>
<vectornator:setting key="WDUnits" value="Points"/>
<vectornator:setting value="false" key="WDSnapToEdges"/>
<vectornator:setting key="WDDisplayWhiteBackground" value="false"/>
<vectornator:setting value="true" key="VNDimensionsVisible"/>
<vectornator:setting key="WDSnapToGrid" value="false"/>
<vectornator:setting value="false" key="WDOutlineMode"/>
<vectornator:setting key="WDDynamicGuides" value="false"/>
</metadata>
<defs/>
<g vectornator:layerName="g10" id="g10">
<g opacity="1">
<path fill-rule="evenodd" opacity="1" d="M401.166+162.304C402.25+172.418+408.792+245.152+353.49+302.303C295.374+362.362+217.779+354.759+207.428+353.562C122.83+343.787+80.6077+276.783+75.6977+268.682C68.3057+255.764+57.9817+234.044+54.0627+205.434C46.2627+148.467+69.4707+105.139+76.7987+92.5791C84.1337+80.0191+107.398+41.4461+156.72+20.3791C196.392+3.43204+232.106+6.69904+247.664+9.07204C238.975+12.059+196.284+27.686+175.46+72.4591C154.77+116.946+164.724+170.714+197.507+205.847C201.404+210.024+238.02+248.087+293.963+243.879C341.018+240.339+382.735+208.678+401.166+162.304" fill="#3eb489"/>
<path fill-rule="evenodd" opacity="1" d="M194.751+21.7521C187.844+23.246+109.706+41.4861+78.4537+117.659C55.4837+173.642+66.8757+238.891+107.666+285.768C102.214+274.82+66.9997+201.027+101.603+119.864C128.259+57.3391+179.81+29.2321+194.751+21.7521" fill="#9b4f57"/>
<path fill-rule="evenodd" opacity="1" d="M397.583+178.014C395.356+183.194+369.234+241.144+304.159+254.212C300.178+255.012+231.626+267.5+184.279+215.218C152.95+180.623+144.244+132.399+157.822+90.5121C175.824+34.9791+225.506+13.699+232.782+10.726C162.208+9.09905+97.7547+51.4591+71.5627+116.556C44.8267+183.002+63.3097+259.838+117.587+307.263C128.548+315.954+178.82+353.856+248.766+346.398C263.902+344.783+276.659+341.392+278.944+340.739C286.018+338.715+322.184+327.85+351.698+298.031C397.335+251.923+397.734+190.127+397.583+178.014" fill="#3eb489"/>
<path fill-rule="evenodd" opacity="1" d="M351.698+298.031C330.351+319.991+306.491+331.846+286.698+338.378C303.051+330.044+335.395+310.796+361.752+273.096C388.836+234.371+395.55+196.307+397.583+178.019C397.914+189.676+398.41+249.963+351.698+298.031" fill="#32e1a1"/>
<path opacity="1" d="M203.459+232.37C161.543+205.666+139.419+156.655+147.355+108.286C154.863+62.5791+188.032+24.7391+232.776+10.726C225.502+13.712+175.83+34.9661+157.822+90.5121C144.247+132.398+152.944+180.615+184.279+215.223C190.38+221.97+196.83+227.624+203.459+232.37" fill-rule="evenodd" fill="#32e1a1"/>
<path opacity="1" fill="#3eb489" fill-rule="evenodd" d="M348.678+195.14C348.678+205.619+340.183+214.114+329.704+214.114C319.226+214.114+310.731+205.619+310.731+195.14C310.731+184.662+319.226+176.167+329.704+176.167C340.183+176.167+348.678+184.662+348.678+195.14"/>
<path fill-rule="evenodd" opacity="1" d="M345.012+195.14C345.012+203.595+338.159+210.448+329.704+210.448C321.25+210.448+314.396+203.595+314.396+195.14C314.396+186.686+321.25+179.832+329.704+179.832C338.159+179.832+345.012+186.686+345.012+195.14" fill="#3eb489"/>
<path d="M337.363+196.326C335.483+202.458+330.611+207.296+324.375+209.495C318.544+207.331+314.396+201.724+314.396+195.144C314.396+186.683+321.252+179.836+329.704+179.836C331.86+179.836+333.922+180.284+335.784+181.087C337.104+183.682+339.424+189.572+337.363+196.326" fill="#3eb489" fill-rule="evenodd" opacity="1"/>
<path d="M324.375+209.495C318.544+207.331+314.396+201.724+314.396+195.144C314.396+186.683+321.252+179.836+329.704+179.836C331.86+179.836+333.922+180.284+335.784+181.087C327.998+182.01+321.752+187.476+320.218+194.488C318.459+202.543+323.762+208.796+324.375+209.495" fill-rule="evenodd" opacity="1" fill="#3eb489"/>
<path d="M336.244+194.416C336.244+197.036+335.392+199.16+334.34+199.16C333.288+199.16+332.436+197.036+332.436+194.416C332.436+191.798+333.288+189.674+334.34+189.674C335.392+189.674+336.244+191.798+336.244+194.416" fill-rule="evenodd" fill="#3eb489" opacity="1"/>
<path fill="#ffffff" fill-rule="evenodd" d="M333.696+188.62C333.732+188.47+334.082+187.125+335.025+186.86C336.201+186.528+337.532+188.101+337.972+188.62C340.788+191.95+340.537+197.121+338.941+199.796C338.614+200.344+337.992+201.357+336.929+201.521C336.865+201.53+335.928+201.662+335.384+201.089C334.821+200.497+335.042+199.532+335.169+198.61C335.468+196.417+335.242+194.342+334.953+193.112C334.402+190.78+333.309+190.182+333.696+188.62" opacity="1"/>
<path fill="#3eb489" d="M252.074+296.546C252.074+310.075+241.106+321.043+227.576+321.043C214.047+321.043+203.079+310.075+203.079+296.546C203.079+283.016+214.047+272.048+227.576+272.048C241.106+272.048+252.074+283.016+252.074+296.546" fill-rule="evenodd" opacity="1"/>
<path fill-rule="evenodd" opacity="1" d="M247.34+296.546C247.34+307.462+238.492+316.311+227.576+316.311C216.66+316.311+207.811+307.462+207.811+296.546C207.811+285.63+216.66+276.78+227.576+276.78C238.492+276.78+247.34+285.63+247.34+296.546" fill="#32e1a1"/>
<path opacity="1" d="M237.464+298.076C235.036+305.994+228.744+312.24+220.694+315.08C213.167+312.286+207.811+305.047+207.811+296.551C207.811+285.627+216.663+276.786+227.576+276.786C230.359+276.786+233.02+277.366+235.427+278.4C237.13+281.752+240.126+289.358+237.464+298.076" fill-rule="evenodd" fill="#32e1a1"/>
<path fill-rule="evenodd" fill="#32e1a1" d="M220.694+315.08C213.167+312.286+207.811+305.047+207.811+296.551C207.811+285.627+216.663+276.786+227.576+276.786C230.359+276.786+233.02+277.366+235.427+278.4C225.371+279.592+217.31+286.652+215.327+295.704C213.056+306.104+219.904+314.178+220.694+315.08" opacity="1"/>
<path fill-rule="evenodd" opacity="1" d="M236.02+295.612C236.02+298.994+234.919+301.736+233.562+301.736C232.203+301.736+231.102+298.994+231.102+295.612C231.102+292.23+232.203+289.487+233.562+289.487C234.919+289.487+236.02+292.23+236.02+295.612" fill="#32e1a1"/>
<path fill-rule="evenodd" d="M233.216+285.048C233.264+284.855+233.716+283.118+234.933+282.775C236.452+282.347+238.17+284.378+238.737+285.048C242.374+289.348+242.05+296.024+239.99+299.478C239.568+300.186+238.762+301.492+237.392+301.706C237.308+301.718+236.098+301.888+235.397+301.148C234.67+300.383+234.956+299.136+235.118+297.947C235.504+295.116+235.214+292.436+234.84+290.848C234.13+287.836+232.717+287.064+233.216+285.048" fill="#ffffff" opacity="1"/>
<path fill="#32e1a1" fill-rule="evenodd" d="M333.078+269.207C333.078+278.571+325.486+286.163+316.122+286.163C306.756+286.163+299.166+278.571+299.166+269.207C299.166+259.842+306.756+252.25+316.122+252.25C325.486+252.25+333.078+259.842+333.078+269.207" opacity="1"/>
<path fill="#32e1a1" opacity="1" d="M329.802+269.207C329.802+276.762+323.678+282.887+316.122+282.887C308.566+282.887+302.44+276.762+302.44+269.207C302.44+261.651+308.566+255.526+316.122+255.526C323.678+255.526+329.802+261.651+329.802+269.207" fill-rule="evenodd"/>
<path fill-rule="evenodd" opacity="1" d="M322.966+270.266C321.286+275.746+316.931+280.07+311.358+282.035C306.148+280.1+302.44+275.091+302.44+269.21C302.44+261.648+308.568+255.53+316.122+255.53C318.048+255.53+319.89+255.93+321.555+256.647C322.735+258.967+324.808+264.231+322.966+270.266" fill="#32e1a1"/>
<path opacity="1" d="M311.358+282.035C306.148+280.1+302.44+275.091+302.44+269.21C302.44+261.648+308.568+255.53+316.122+255.53C318.048+255.53+319.89+255.93+321.555+256.647C314.595+257.471+309.015+262.358+307.643+268.624C306.071+275.823+310.811+281.411+311.358+282.035" fill="#32e1a1" fill-rule="evenodd"/>
<path d="M321.966+268.56C321.966+270.902+321.204+272.799+320.264+272.799C319.324+272.799+318.562+270.902+318.562+268.56C318.562+266.219+319.324+264.322+320.264+264.322C321.204+264.322+321.966+266.219+321.966+268.56" fill="#32e1a1" opacity="1" fill-rule="evenodd"/>
<path d="M320.263+262.487C320.296+262.354+320.61+261.151+321.451+260.914C322.503+260.618+323.692+262.023+324.084+262.487C326.602+265.463+326.378+270.085+324.951+272.475C324.659+272.965+324.102+273.87+323.152+274.017C323.095+274.026+322.258+274.143+321.772+273.631C321.27+273.102+321.467+272.239+321.579+271.415C321.847+269.457+321.646+267.601+321.387+266.502C320.895+264.418+319.918+263.883+320.263+262.487" opacity="1" fill-rule="evenodd" fill="#ffffff"/>
<path fill="#32e1a1" d="M297.596+319.143C297.596+323.424+294.126+326.895+289.844+326.895C285.564+326.895+282.094+323.424+282.094+319.143C282.094+314.863+285.564+311.392+289.844+311.392C294.126+311.392+297.596+314.863+297.596+319.143" opacity="1" fill-rule="evenodd"/>
<path fill="#32e1a1" opacity="1" fill-rule="evenodd" d="M296.099+319.143C296.099+322.598+293.299+325.398+289.844+325.398C286.391+325.398+283.591+322.598+283.591+319.143C283.591+315.69+286.391+312.89+289.844+312.89C293.299+312.89+296.099+315.69+296.099+319.143"/>
<path fill-rule="evenodd" opacity="1" d="M292.974+319.628C292.206+322.132+290.215+324.11+287.667+325.008C285.286+324.123+283.591+321.834+283.591+319.144C283.591+315.688+286.391+312.891+289.844+312.891C290.726+312.891+291.567+313.074+292.328+313.402C292.868+314.463+293.815+316.87+292.974+319.628" fill="#32e1a1"/>
<path fill-rule="evenodd" opacity="1" d="M287.667+325.008C285.286+324.123+283.591+321.834+283.591+319.144C283.591+315.688+286.391+312.891+289.844+312.891C290.726+312.891+291.567+313.074+292.328+313.402C289.147+313.779+286.596+316.012+285.968+318.878C285.251+322.168+287.416+324.723+287.667+325.008" fill="#32e1a1"/>
<path fill-rule="evenodd" d="M292.516+318.848C292.516+319.918+292.168+320.786+291.739+320.786C291.308+320.786+290.96+319.918+290.96+318.848C290.96+317.778+291.308+316.91+291.739+316.91C292.168+316.91+292.516+317.778+292.516+318.848" fill="#32e1a1" opacity="1"/>
<path d="M291.185+315.656C291.201+315.595+291.344+315.044+291.729+314.936C292.209+314.801+292.753+315.443+292.933+315.656C294.084+317.016+293.981+319.128+293.329+320.221C293.196+320.445+292.941+320.859+292.506+320.925C292.481+320.929+292.097+320.984+291.876+320.749C291.646+320.507+291.736+320.113+291.788+319.736C291.909+318.841+291.818+317.993+291.7+317.491C291.474+316.537+291.028+316.293+291.185+315.656" fill-rule="evenodd" opacity="1" fill="#ffffff"/>
<path fill-rule="evenodd" opacity="1" fill="#32e1a1" d="M368.338+252.25C368.338+256.531+364.867+260.002+360.586+260.002C356.306+260.002+352.835+256.531+352.835+252.25C352.835+247.97+356.306+244.499+360.586+244.499C364.867+244.499+368.338+247.97+368.338+252.25"/>
<path fill-rule="evenodd" d="M366.84+252.25C366.84+255.704+364.039+258.504+360.586+258.504C357.132+258.504+354.332+255.704+354.332+252.25C354.332+248.796+357.132+245.996+360.586+245.996C364.039+245.996+366.84+248.796+366.84+252.25" fill="#32e1a1" opacity="1"/>
<path fill-rule="evenodd" d="M363.715+252.734C362.947+255.239+360.956+257.216+358.408+258.115C356.027+257.23+354.332+254.94+354.332+252.252C354.332+248.795+357.132+245.998+360.586+245.998C361.467+245.998+362.308+246.182+363.07+246.508C363.61+247.57+364.556+249.975+363.715+252.734" fill="#32e1a1" opacity="1"/>
<path opacity="1" fill="#32e1a1" d="M358.408+258.115C356.027+257.23+354.332+254.94+354.332+252.252C354.332+248.795+357.132+245.998+360.586+245.998C361.467+245.998+362.308+246.182+363.07+246.508C359.888+246.886+357.338+249.119+356.71+251.984C355.992+255.275+358.158+257.828+358.408+258.115" fill-rule="evenodd"/>
<path fill="#32e1a1" opacity="1" fill-rule="evenodd" d="M363.258+251.955C363.258+253.024+362.91+253.892+362.479+253.892C362.05+253.892+361.702+253.024+361.702+251.955C361.702+250.884+362.05+250.016+362.479+250.016C362.91+250.016+363.258+250.884+363.258+251.955"/>
<path d="M359.654+248.306C359.67+248.244+359.813+247.694+360.198+247.586C360.678+247.451+361.222+248.092+361.402+248.306C362.553+249.666+362.45+251.778+361.798+252.871C361.665+253.095+361.41+253.508+360.976+253.575C360.949+253.579+360.566+253.634+360.345+253.399C360.116+253.158+360.205+252.763+360.257+252.386C360.378+251.491+360.288+250.643+360.169+250.14C359.944+249.187+359.497+248.943+359.654+248.306" fill-rule="evenodd" opacity="1" fill="#ffffff"/>
<path opacity="1" d="M122.284+252.25C122.284+256.531+118.815+260.002+114.534+260.002C110.252+260.002+106.783+256.531+106.783+252.25C106.783+247.97+110.252+244.499+114.534+244.499C118.815+244.499+122.284+247.97+122.284+252.25" fill="#32e1a1" fill-rule="evenodd"/>
<path d="M120.787+252.25C120.787+255.704+117.988+258.504+114.534+258.504C111.08+258.504+108.28+255.704+108.28+252.25C108.28+248.796+111.08+245.996+114.534+245.996C117.988+245.996+120.787+248.796+120.787+252.25" fill="#32e1a1" opacity="1" fill-rule="evenodd"/>
<path fill="#32e1a1" fill-rule="evenodd" d="M117.663+252.734C116.895+255.239+114.904+257.216+112.356+258.115C109.975+257.23+108.28+254.94+108.28+252.252C108.28+248.795+111.08+245.998+114.534+245.998C115.415+245.998+116.256+246.182+117.018+246.508C117.556+247.57+118.504+249.975+117.663+252.734" opacity="1"/>
<path d="M112.356+258.115C109.975+257.23+108.28+254.94+108.28+252.252C108.28+248.795+111.08+245.998+114.534+245.998C115.415+245.998+116.256+246.182+117.018+246.508C113.836+246.886+111.286+249.119+110.658+251.984C109.939+255.275+112.107+257.828+112.356+258.115" fill="#32e1a1" opacity="1" fill-rule="evenodd"/>
<path fill="#32e1a1" fill-rule="evenodd" d="M117.206+251.955C117.206+253.024+116.858+253.892+116.427+253.892C115.998+253.892+115.65+253.024+115.65+251.955C115.65+250.884+115.998+250.016+116.427+250.016C116.858+250.016+117.206+250.884+117.206+251.955" opacity="1"/>
<path d="M116.618+248.943C116.634+248.881+116.777+248.331+117.162+248.223C117.642+248.088+118.186+248.729+118.365+248.943C119.517+250.303+119.414+252.415+118.762+253.508C118.629+253.732+118.374+254.145+117.94+254.212C117.913+254.216+117.53+254.271+117.309+254.036C117.078+253.795+117.169+253.4+117.221+253.023C117.342+252.128+117.25+251.28+117.133+250.777C116.908+249.824+116.461+249.58+116.618+248.943" fill="#ffffff" fill-rule="evenodd" opacity="1"/>
<path d="M122.792+102.819C122.792+107.099+119.322+110.57+115.042+110.57C110.76+110.57+107.29+107.099+107.29+102.819C107.29+98.5391+110.76+95.0721+115.042+95.0721C119.322+95.0721+122.792+98.5391+122.792+102.819" opacity="1" fill="#32e1a1" fill-rule="evenodd"/>
<path opacity="1" fill-rule="evenodd" d="M121.295+102.819C121.295+106.272+118.495+109.072+115.042+109.072C111.587+109.072+108.787+106.272+108.787+102.819C108.787+99.3661+111.587+96.5661+115.042+96.5661C118.495+96.5661+121.295+99.3661+121.295+102.819" fill="#32e1a1"/>
<path fill-rule="evenodd" fill="#32e1a1" opacity="1" d="M118.17+103.299C117.402+105.806+115.411+107.779+112.863+108.686C110.482+107.792+108.787+105.512+108.787+102.819C108.787+99.3661+111.588+96.5661+115.042+96.5661C115.922+96.5661+116.764+96.7521+117.526+97.0721C118.064+98.1391+119.012+100.539+118.17+103.299"/>
<path fill="#32e1a1" fill-rule="evenodd" d="M112.863+108.686C110.482+107.792+108.787+105.512+108.787+102.819C108.787+99.3661+111.588+96.5661+115.042+96.5661C115.922+96.5661+116.764+96.7521+117.526+97.0721C114.343+97.4591+111.792+99.6861+111.166+102.552C110.447+105.846+112.614+108.392+112.863+108.686" opacity="1"/>
<path d="M117.712+102.526C117.712+103.592+117.364+104.459+116.935+104.459C116.506+104.459+116.156+103.592+116.156+102.526C116.156+101.459+116.506+100.579+116.935+100.579C117.364+100.579+117.712+101.459+117.712+102.526" opacity="1" fill="#32e1a1" fill-rule="evenodd"/>
<path fill-rule="evenodd" opacity="1" fill="#ffffff" d="M116.487+99.804C116.505+99.7378+116.674+99.1895+117.124+99.0823C117.688+98.949+118.325+99.5905+118.537+99.804C119.887+101.167+119.766+103.292+119.001+104.375C118.845+104.602+118.546+105.016+118.038+105.083C118.006+105.096+117.557+105.15+117.297+104.91C117.027+104.669+117.134+104.268+117.193+103.894C117.337+102.998+117.229+102.143+117.09+101.648C116.827+100.686+116.303+100.445+116.487+99.804"/>
<path fill-rule="evenodd" fill="#32e1a1" opacity="1" d="M202.502+260.362C202.502+264.643+199.032+268.114+194.751+268.114C190.47+268.114+187+264.643+187+260.362C187+256.082+190.47+252.611+194.751+252.611C199.032+252.611+202.502+256.082+202.502+260.362"/>
<path fill-rule="evenodd" opacity="1" fill="#32e1a1" d="M201.004+260.362C201.004+263.816+198.204+266.616+194.751+266.616C191.298+266.616+188.498+263.816+188.498+260.362C188.498+256.908+191.298+254.108+194.751+254.108C198.204+254.108+201.004+256.908+201.004+260.362"/>
<path d="M197.879+260.847C197.111+263.352+195.12+265.328+192.574+266.227C190.192+265.342+188.498+263.052+188.498+260.364C188.498+256.908+191.298+254.11+194.751+254.11C195.632+254.11+196.474+254.294+197.235+254.622C197.774+255.682+198.722+258.088+197.879+260.847" opacity="1" fill-rule="evenodd" fill="#32e1a1"/>
<path opacity="1" fill-rule="evenodd" d="M192.574+266.227C190.192+265.342+188.498+263.052+188.498+260.364C188.498+256.908+191.298+254.11+194.751+254.11C195.632+254.11+196.474+254.294+197.235+254.622C194.054+254.999+191.503+257.232+190.875+260.096C190.156+263.387+192.323+265.942+192.574+266.227" fill="#32e1a1"/>
<path fill-rule="evenodd" fill="#32e1a1" opacity="1" d="M197.423+260.067C197.423+261.138+197.075+262.004+196.644+262.004C196.215+262.004+195.867+261.138+195.867+260.067C195.867+258.996+196.215+258.13+196.644+258.13C197.075+258.13+197.423+258.996+197.423+260.067"/>
<path fill="#ffffff" opacity="1" fill-rule="evenodd" d="M196.454+257.058C196.47+256.996+196.612+256.447+196.998+256.338C197.478+256.203+198.022+256.846+198.2+257.058C199.351+258.418+199.25+260.531+198.598+261.623C198.464+261.847+198.208+262.26+197.775+262.328C197.748+262.332+197.366+262.386+197.144+262.151C196.914+261.91+197.004+261.515+197.056+261.139C197.178+260.243+197.086+259.395+196.968+258.892C196.743+257.94+196.296+257.695+196.454+257.058"/>
<path opacity="1" d="M115.042+166.808C115.042+180.339+104.074+191.306+90.5437+191.306C77.0147+191.306+66.0457+180.339+66.0457+166.808C66.0457+153.279+77.0147+142.311+90.5437+142.311C104.074+142.311+115.042+153.279+115.042+166.808" fill="#32e1a1" fill-rule="evenodd"/>
<path fill="#32e1a1" d="M110.308+166.808C110.308+177.724+101.459+186.574+90.5437+186.574C79.6277+186.574+70.7787+177.724+70.7787+166.808C70.7787+155.892+79.6277+147.044+90.5437+147.044C101.459+147.044+110.308+155.892+110.308+166.808" fill-rule="evenodd" opacity="1"/>
<path d="M100.432+168.34C98.0037+176.256+91.7117+182.504+83.6617+185.343C76.1347+182.548+70.7787+175.31+70.7787+166.814C70.7787+155.891+79.6307+147.05+90.5437+147.05C93.3267+147.05+95.9877+147.628+98.3937+148.664C100.098+152.015+103.094+159.62+100.432+168.34" fill="#32e1a1" opacity="1" fill-rule="evenodd"/>
<path fill="#32e1a1" d="M83.6617+185.343C76.1347+182.548+70.7787+175.31+70.7787+166.814C70.7787+155.891+79.6307+147.05+90.5437+147.05C93.3267+147.05+95.9877+147.628+98.3937+148.664C88.3387+149.855+80.2777+156.915+78.2947+165.968C76.0237+176.368+82.8717+184.442+83.6617+185.343" fill-rule="evenodd" opacity="1"/>
<path opacity="1" fill-rule="evenodd" d="M98.9877+165.875C98.9877+169.258+97.8867+171.999+96.5277+171.999C95.1707+171.999+94.0697+169.258+94.0697+165.875C94.0697+162.492+95.1707+159.751+96.5277+159.751C97.8867+159.751+98.9877+162.492+98.9877+165.875" fill="#32e1a1"/>
<path d="M95.9257+156.364C95.9737+156.171+96.4257+154.432+97.6427+154.091C99.1617+153.663+100.88+155.694+101.447+156.364C105.084+160.663+104.76+167.34+102.7+170.794C102.278+171.5+101.472+172.808+100.102+173.02C100.018+173.034+98.8077+173.203+98.1067+172.463C97.3797+171.698+97.6657+170.452+97.8277+169.262C98.2137+166.431+97.9237+163.751+97.5497+162.163C96.8397+159.152+95.4267+158.38+95.9257+156.364" fill-rule="evenodd" opacity="1" fill="#ffffff"/>
<path fill="#32e1a1" fill-rule="evenodd" opacity="1" d="M167.687+214.111C167.687+224.584+159.198+233.074+148.726+233.074C138.252+233.074+129.763+224.584+129.763+214.111C129.763+203.639+138.252+195.15+148.726+195.15C159.198+195.15+167.687+203.639+167.687+214.111"/>
<path fill="#32e1a1" opacity="1" d="M164.024+214.111C164.024+222.56+157.175+229.411+148.726+229.411C140.276+229.411+133.427+222.56+133.427+214.111C133.427+205.662+140.276+198.812+148.726+198.812C157.175+198.812+164.024+205.662+164.024+214.111" fill-rule="evenodd"/>
<path fill="#32e1a1" d="M156.379+215.296C154.5+221.424+149.63+226.26+143.399+228.458C137.572+226.295+133.427+220.692+133.427+214.115C133.427+205.66+140.279+198.816+148.726+198.816C150.88+198.816+152.94+199.264+154.802+200.067C156.12+202.66+158.439+208.547+156.379+215.296" fill-rule="evenodd" opacity="1"/>
<path fill="#32e1a1" d="M143.399+228.458C137.572+226.295+133.427+220.692+133.427+214.115C133.427+205.66+140.279+198.816+148.726+198.816C150.88+198.816+152.94+199.264+154.802+200.067C147.019+200.988+140.779+206.454+139.244+213.46C137.486+221.511+142.787+227.759+143.399+228.458" opacity="1" fill-rule="evenodd"/>
<path d="M155.262+213.388C155.262+216.007+154.41+218.13+153.358+218.13C152.307+218.13+151.455+216.007+151.455+213.388C151.455+210.771+152.307+208.648+153.358+208.648C154.41+208.648+155.262+210.771+155.262+213.388" opacity="1" fill="#32e1a1" fill-rule="evenodd"/>
<path fill="#ffffff" fill-rule="evenodd" d="M153.779+206.027C153.816+205.876+154.167+204.531+155.108+204.267C156.284+203.935+157.614+205.507+158.052+206.027C160.868+209.354+160.616+214.523+159.023+217.195C158.696+217.743+158.072+218.755+157.011+218.919C156.947+218.93+156.01+219.06+155.467+218.488C154.906+217.896+155.126+216.931+155.251+216.01C155.55+213.819+155.326+211.744+155.036+210.515C154.487+208.184+153.394+207.587+153.779+206.027" opacity="1"/>
<path d="M152.723+296.546C152.723+303.602+147.003+309.323+139.947+309.323C132.89+309.323+127.17+303.602+127.17+296.546C127.17+289.49+132.89+283.768+139.947+283.768C147.003+283.768+152.723+289.49+152.723+296.546" fill="#32e1a1" fill-rule="evenodd" opacity="1"/>
<path fill="#32e1a1" opacity="1" fill-rule="evenodd" d="M150.255+296.546C150.255+302.239+145.64+306.855+139.947+306.855C134.254+306.855+129.638+302.239+129.638+296.546C129.638+290.852+134.254+286.238+139.947+286.238C145.64+286.238+150.255+290.852+150.255+296.546"/>
<path d="M145.104+297.344C143.838+301.474+140.556+304.731+136.358+306.212C132.431+304.755+129.638+300.98+129.638+296.548C129.638+290.851+134.255+286.239+139.947+286.239C141.399+286.239+142.787+286.542+144.042+287.082C144.93+288.83+146.492+292.796+145.104+297.344" fill="#32e1a1" opacity="1" fill-rule="evenodd"/>
<path d="M136.358+306.212C132.431+304.755+129.638+300.98+129.638+296.548C129.638+290.851+134.255+286.239+139.947+286.239C141.399+286.239+142.787+286.542+144.042+287.082C138.796+287.703+134.592+291.386+133.558+296.107C132.374+301.531+135.946+305.742+136.358+306.212" fill="#32e1a1" opacity="1" fill-rule="evenodd"/>
<path d="M144.351+296.059C144.351+297.823+143.776+299.252+143.068+299.252C142.36+299.252+141.786+297.823+141.786+296.059C141.786+294.295+142.36+292.864+143.068+292.864C143.776+292.864+144.351+294.295+144.351+296.059" fill="#32e1a1" fill-rule="evenodd" opacity="1"/>
<path fill-rule="evenodd" opacity="1" fill="#ffffff" d="M142.333+291.199C142.358+291.099+142.594+290.192+143.229+290.013C144.021+289.791+144.917+290.849+145.213+291.199C147.109+293.441+146.941+296.924+145.866+298.725C145.646+299.093+145.226+299.776+144.51+299.887C144.467+299.893+143.837+299.981+143.47+299.596C143.091+299.197+143.241+298.547+143.325+297.927C143.526+296.449+143.375+295.052+143.179+294.224C142.81+292.653+142.073+292.251+142.333+291.199"/>
<path opacity="1" d="M164.61+54.1391C164.61+61.1921+158.888+66.9121+151.832+66.9121C144.775+66.9121+139.055+61.1921+139.055+54.1391C139.055+47.0861+144.775+41.3521+151.832+41.3521C158.888+41.3521+164.61+47.0861+164.61+54.1391" fill="#32e1a1" fill-rule="evenodd"/>
<path fill="#32e1a1" fill-rule="evenodd" d="M162.142+54.1391C162.142+59.8321+157.526+64.4461+151.832+64.4461C146.139+64.4461+141.524+59.8321+141.524+54.1391C141.524+48.4461+146.139+43.8321+151.832+43.8321C157.526+43.8321+162.142+48.4461+162.142+54.1391" opacity="1"/>
<path opacity="1" fill="#32e1a1" d="M156.99+54.9391C155.724+59.0591+152.442+62.3261+148.243+63.8061C144.318+62.3391+141.524+58.5661+141.524+54.1391C141.524+48.4461+146.14+43.8321+151.832+43.8321C153.284+43.8321+154.672+44.1261+155.927+44.6721C156.815+46.4191+158.378+50.3921+156.99+54.9391" fill-rule="evenodd"/>
<path fill-rule="evenodd" d="M148.243+63.8061C144.318+62.3391+141.524+58.5661+141.524+54.1391C141.524+48.4461+146.14+43.8321+151.832+43.8321C153.284+43.8321+154.672+44.1261+155.927+44.6721C150.682+45.2991+146.478+48.9791+145.444+53.6991C144.259+59.1261+147.831+63.3391+148.243+63.8061" opacity="1" fill="#32e1a1"/>
<path opacity="1" d="M156.236+53.6461C156.236+55.4191+155.663+56.8461+154.954+56.8461C154.246+56.8461+153.671+55.4191+153.671+53.6461C153.671+51.8861+154.246+50.4591+154.954+50.4591C155.663+50.4591+156.236+51.8861+156.236+53.6461" fill="#32e1a1" fill-rule="evenodd"/>
<path fill="#ffffff" fill-rule="evenodd" opacity="1" d="M153.336+49.2056C153.361+49.1116+153.597+48.2056+154.232+48.0186C155.024+47.8056+155.92+48.8586+156.216+49.2056C158.113+51.4456+157.944+54.9386+156.869+56.7386C156.649+57.0986+156.229+57.7786+155.515+57.8986C155.471+57.8986+154.84+57.9917+154.473+57.6056C154.095+57.2056+154.244+56.5516+154.328+55.9386C154.529+54.4586+154.379+53.0587+154.184+52.2316C153.813+50.6586+153.076+50.2586+153.336+49.2056"/>
<path opacity="1" fill-rule="evenodd" fill="#3eb489" d="M242.324+85.4321C242.324+93.5791+235.722+100.179+227.576+100.179C219.431+100.179+212.827+93.5791+212.827+85.4321C212.827+77.2861+219.431+70.6861+227.576+70.6861C235.722+70.6861+242.324+77.2861+242.324+85.4321"/>
<path d="M239.475+85.4321C239.475+92.0061+234.147+97.3261+227.576+97.3261C221.004+97.3261+215.676+92.0061+215.676+85.4321C215.676+78.8591+221.004+73.5391+227.576+73.5391C234.147+73.5391+239.475+78.8591+239.475+85.4321" fill="#3eb489" fill-rule="evenodd" opacity="1"/>
<path fill-rule="evenodd" d="M233.528+86.3521C232.067+91.1261+228.28+94.8861+223.432+96.5921C218.902+94.9121+215.676+90.5521+215.676+85.4321C215.676+78.8591+221.007+73.5391+227.576+73.5391C229.252+73.5391+230.854+73.8861+232.302+74.5121C233.327+76.5261+235.131+81.0991+233.528+86.3521" opacity="1" fill="#3eb489"/>
<path fill="#3eb489" fill-rule="evenodd" d="M223.432+96.5921C218.902+94.9121+215.676+90.5521+215.676+85.4321C215.676+78.8591+221.007+73.5391+227.576+73.5391C229.252+73.5391+230.854+73.8861+232.302+74.5121C226.248+75.2321+221.395+79.4721+220.202+84.9261C218.834+91.1921+222.958+96.0461+223.432+96.5921" opacity="1"/>
<path fill="#32e1a1" fill-rule="evenodd" d="M232.659+84.8721C232.659+86.9121+231.996+88.5521+231.179+88.5521C230.362+88.5521+229.699+86.9121+229.699+84.8721C229.699+82.8321+230.362+81.1791+231.179+81.1791C231.996+81.1791+232.659+82.8321+232.659+84.8721" opacity="1"/>
<path fill-rule="evenodd" fill="#ffffff" opacity="1" d="M229.059+79.1323C229.087+79.0253+229.361+77.9723+230.093+77.7723C231.007+77.5053+232.042+78.7323+232.383+79.1323C234.573+81.7193+234.377+85.7453+233.137+87.8253C232.883+88.2523+232.398+89.0393+231.573+89.1593C231.523+89.1723+230.794+89.2793+230.371+88.8253C229.935+88.3723+230.106+87.6123+230.205+86.9053C230.437+85.1993+230.262+83.5853+230.037+82.6253C229.609+80.8123+228.759+80.3453+229.059+79.1323"/>
<path d="M354.07+102.432C354.07+109.006+348.742+114.332+342.17+114.332C335.599+114.332+330.271+109.006+330.271+102.432C330.271+95.8591+335.599+90.5391+342.17+90.5391C348.742+90.5391+354.07+95.8591+354.07+102.432" fill="#3eb489" opacity="1" fill-rule="evenodd"/>
<path opacity="1" fill-rule="evenodd" fill="#3eb489" d="M351.771+102.432C351.771+107.739+347.472+112.034+342.17+112.034C336.868+112.034+332.57+107.739+332.57+102.432C332.57+97.1261+336.868+92.8321+342.17+92.8321C347.472+92.8321+351.771+97.1261+351.771+102.432"/>
<path fill="#3eb489" fill-rule="evenodd" opacity="1" d="M346.974+103.179C345.794+107.019+342.739+110.059+338.828+111.436C335.171+110.072+332.57+106.566+332.57+102.432C332.57+97.1261+336.87+92.8321+342.17+92.8321C343.523+92.8321+344.815+93.1121+345.983+93.6191C346.811+95.2461+348.266+98.9391+346.974+103.179"/>
<path fill-rule="evenodd" opacity="1" d="M338.828+111.436C335.171+110.072+332.57+106.566+332.57+102.432C332.57+97.1261+336.87+92.8321+342.17+92.8321C343.523+92.8321+344.815+93.1121+345.983+93.6191C341.099+94.1921+337.183+97.6321+336.22+102.019C335.118+107.072+338.444+110.998+338.828+111.436" fill="#3eb489"/>
<path fill-rule="evenodd" d="M346.272+101.979C346.272+103.619+345.738+104.952+345.078+104.952C344.418+104.952+343.883+103.619+343.883+101.979C343.883+100.339+344.418+99.0061+345.078+99.0061C345.738+99.0061+346.272+100.339+346.272+101.979" fill="#3eb489" opacity="1"/>
<path opacity="1" d="M345.393+96.8308C345.417+96.7368+345.636+95.8838+346.227+95.7238C346.965+95.5108+347.8+96.4968+348.075+96.8308C349.841+98.9108+349.684+102.151+348.684+103.831C348.479+104.177+348.088+104.817+347.421+104.911C347.381+104.924+346.793+105.004+346.452+104.644C346.1+104.271+346.239+103.671+346.317+103.084C346.505+101.711+346.364+100.417+346.183+99.6438C345.837+98.1768+345.152+97.8038+345.393+96.8308" fill="#ffffff" fill-rule="evenodd"/>
<path d="M244.202+157.806C244.202+164.378+238.874+169.706+232.302+169.706C225.731+169.706+220.403+164.378+220.403+157.806C220.403+151.235+225.731+145.907+232.302+145.907C238.874+145.907+244.202+151.235+244.202+157.806" opacity="1" fill="#3eb489" fill-rule="evenodd"/>
<path fill-rule="evenodd" opacity="1" d="M241.903+157.806C241.903+163.108+237.604+167.407+232.302+167.407C227+167.407+222.702+163.108+222.702+157.806C222.702+152.504+227+148.206+232.302+148.206C237.604+148.206+241.903+152.504+241.903+157.806" fill="#3eb489"/>
<path fill="#3eb489" opacity="1" fill-rule="evenodd" d="M237.104+158.55C235.926+162.395+232.87+165.43+228.959+166.808C225.303+165.451+222.702+161.935+222.702+157.808C222.702+152.503+227.002+148.208+232.302+148.208C233.654+148.208+234.947+148.49+236.115+148.992C236.943+150.62+238.398+154.315+237.104+158.55"/>
<path fill-rule="evenodd" opacity="1" fill="#3eb489" d="M228.959+166.808C225.303+165.451+222.702+161.935+222.702+157.808C222.702+152.503+227.002+148.208+232.302+148.208C233.654+148.208+234.947+148.49+236.115+148.992C231.231+149.571+227.315+153+226.352+157.398C225.25+162.45+228.575+166.371+228.959+166.808"/>
<path fill="#3eb489" opacity="1" fill-rule="evenodd" d="M236.403+157.352C236.403+158.995+235.868+160.327+235.21+160.327C234.55+160.327+234.015+158.995+234.015+157.352C234.015+155.71+234.55+154.378+235.21+154.378C235.868+154.378+236.403+155.71+236.403+157.352"/>
<path fill-rule="evenodd" opacity="1" d="M235.534+152.899C235.557+152.806+235.777+151.962+236.368+151.795C237.106+151.587+237.941+152.574+238.216+152.899C239.982+154.989+239.825+158.231+238.825+159.909C238.62+160.251+238.229+160.887+237.562+160.99C237.522+160.997+236.934+161.079+236.593+160.719C236.241+160.349+236.38+159.743+236.458+159.165C236.645+157.79+236.505+156.489+236.322+155.717C235.978+154.254+235.292+153.879+235.534+152.899" fill="#ffffff"/>
<path d="M273.979+202.127C273.979+206.234+270.648+209.564+266.542+209.564C262.435+209.564+259.104+206.234+259.104+202.127C259.104+198.02+262.435+194.69+266.542+194.69C270.648+194.69+273.979+198.02+273.979+202.127" fill-rule="evenodd" opacity="1" fill="#3eb489"/>
<path fill-rule="evenodd" d="M367.2+149.214C367.2+151.04+365.719+152.522+363.892+152.522C362.067+152.522+360.586+151.04+360.586+149.214C360.586+147.388+362.067+145.907+363.892+145.907C365.719+145.907+367.2+147.388+367.2+149.214" fill="#3eb489" opacity="1"/>
<path fill-rule="evenodd" d="M289.071+133.919C289.071+138.143+285.647+141.567+281.423+141.567C277.2+141.567+273.776+138.143+273.776+133.919C273.776+129.695+277.2+126.271+281.423+126.271C285.647+126.271+289.071+129.695+289.071+133.919" fill="#3eb489" opacity="1"/>
<path fill="#3eb489" d="M208.875+126.271C208.875+128.44+207.116+130.199+204.948+130.199C202.779+130.199+201.02+128.44+201.02+126.271C201.02+124.103+202.779+122.344+204.948+122.344C207.116+122.344+208.875+124.103+208.875+126.271" opacity="1" fill-rule="evenodd"/>
<path fill-rule="evenodd" opacity="1" d="M296.099+47.1121C296.099+50.9921+292.952+54.1391+289.071+54.1391C285.19+54.1391+282.043+50.9921+282.043+47.1121C282.043+43.2321+285.19+40.0861+289.071+40.0861C292.952+40.0861+296.099+43.2321+296.099+47.1121" fill="#3eb489"/>
<path d="M164.875+315.09C240.24+338.208+269.994+343.214+279.08+340.886C279.458+340.788+285.087+339.324+292.86+337.44C300.714+335.538+307.264+334.052+311.876+333.031C308.903+334.751+304.208+337.336+298.234+340.059C285.659+345.79+284.262+344.448+281.286+347.499C281.286+347.499+271.256+357.78+280.348+384.248C281.319+387.072+282.62+389.674+282.62+389.675L282.62+389.675C285.179+394.631+287.53+396.396+287.543+400.15C287.543+400.435+287.534+401.675+287.038+403.179C285.842+406.803+282.906+408.667+281.611+409.49C279.172+411.038+276.774+411.567+275.175+411.76C274.128+412.056+268.031+413.675+262.555+410.056C259.547+408.07+255.699+403.826+256.402+399.74C256.827+397.274+259.019+394.236+259.147+394.06C259.894+393.04+260.142+392.944+260.946+391.79C261.355+391.202+262.244+389.854+263.502+386.772C264.023+385.494+264.859+383.422+265.583+380.62C267.355+373.767+267.067+367.924+267.003+366.802C266.812+363.443+266.584+359.443+264.447+354.78C263.398+352.491+262.206+350.736+261.292+349.543C260.495+348.799+259.283+347.82+257.632+347.019C249.856+343.24+241.468+347.804+240.848+348.155C234.808+351.562+232.58+357.316+230.751+362.038C227.67+369.996+228.044+376.894+228.354+382.608C228.736+389.658+230.19+395.386+232.392+404.063C233.4+408.035+234.358+411.295+235.043+413.527C235.434+414.844+236.063+416.81+236.999+419.143C238.366+422.556+239.071+423.472+239.712+425.516C239.979+426.367+241.002+429.818+240.343+433.846C240.143+435.066+239.076+441.582+233.15+445.33C228.16+448.486+222.97+447.628+221.287+447.35C216.426+446.546+213.183+444.011+211.822+442.806C209.926+440.214+207.675+436.268+207.404+431.322C207.106+425.884+209.414+423.16+212.326+415.672C216.006+406.216+217.087+398.322+217.752+393.462C219.018+384.234+218.711+377.028+218.51+373.9C218.238+369.643+217.754+366.6+217.248+363.426C214.771+347.86+211.438+343.564+210.434+342.35C208.304+339.774+206.286+338.52+205.007+337.743C202.626+336.296+200.251+334.842+197.719+335.567C196.411+335.94+194.924+336.926+194.027+338.311C193.184+339.614+193.111+340.882+191.66+342.571C191.259+343.038+190.883+343.386+190.619+343.612C189.732+343.898+188.474+344.168+187.023+343.991C180.558+343.195+175.822+334.159+173.96+328.372C172.895+325.06+172.915+323.256+171.027+320.516C169.123+317.755+166.687+316.084+164.875+315.09" fill="#3eb489" fill-rule="evenodd" opacity="1"/>
<path d="M190.619+343.612C189.742+343.884+188.47+344.156+187.015+343.975C180.564+343.188+175.808+334.162+173.96+328.376C172.9+325.044+172.9+323.258+171.023+320.532C169.115+317.746+166.691+316.079+164.875+315.08L172.628+316.715C174.96+318.17+176.202+319.835+176.868+321.41C177.807+323.622+177.99+326.711+180.655+332.768C182.018+335.827+183.108+337.644+184.683+339.311C186.803+341.582+189.075+342.884+190.619+343.612" opacity="1" fill="#3eb489" fill-rule="evenodd"/>
<path d="M233.144+445.32C228.147+448.5+222.967+447.622+221.271+447.35C216.426+446.532+213.184+444.018+211.822+442.806C209.914+440.202+207.672+436.264+207.399+431.327C207.096+425.875+209.399+423.15+212.336+415.668C216.002+406.218+217.091+398.312+217.758+393.467C219.03+384.228+218.696+377.02+218.515+373.9C218.243+369.63+217.758+366.6+217.243+363.42C214.759+347.852+211.428+343.551+210.428+342.339C208.308+339.766+206.279+338.523+205.007+337.736C202.614+336.282+200.251+334.828+197.707+335.555C197.223+335.676+196.707+335.919+196.192+336.222C196.495+335.979+196.828+335.767+197.162+335.586C197.495+335.374+197.859+335.191+198.222+335.04C198.524+334.888+198.858+334.767+199.191+334.646C199.646+334.495+200.1+334.374+200.584+334.283C205.855+333.314+209.943+336.494+211.186+337.432C215.85+341.007+217.424+346.247+218.515+350.942C219.818+356.484+223.846+374.384+220.394+394.344C220.394+394.344+219.212+401.22+215.516+414.032C214.911+416.092+214.396+417.576+214.002+418.575C213.124+420.878+212.7+421.452+212.184+422.726C211.7+423.998+210.338+427.602+211.064+432.023C211.64+435.567+213.336+438.02+214.094+439.02C215.79+441.231+217.636+442.443+218.818+443.2C219.848+443.836+221.756+445.018+224.512+445.654C228.359+446.532+231.57+445.804+233.144+445.32" fill="#3eb489" fill-rule="evenodd" opacity="1"/>
<path opacity="1" d="M281.606+409.49C279.183+411.034+276.76+411.579+275.184+411.76C274.124+412.063+268.036+413.668+262.555+410.064C259.556+408.066+255.71+403.826+256.406+399.736C256.83+397.283+259.011+394.223+259.132+394.072C259.89+393.043+260.131+392.951+260.95+391.8C261.343+391.195+262.252+389.862+263.494+386.772C264.008+385.5+264.856+383.411+265.583+380.624C267.371+373.779+267.067+367.934+267.007+366.812C266.826+363.451+266.583+359.452+264.463+354.788C263.403+352.486+262.191+350.73+261.283+349.548C260.495+348.791+259.283+347.822+257.618+347.004C253.195+344.854+248.531+345.428+245.26+346.368C246.32+345.642+252.711+341.612+259.283+344.127C263.13+345.58+265.19+348.61+266.522+350.608C270.339+356.272+270.43+362.27+270.52+366.903C270.582+372.779+269.37+377.292+268.794+379.383C268.188+381.623+267.371+384.592+265.492+388.196C262.736+393.436+260.374+394.98+260.374+398.615C260.374+401.28+261.676+403.28+262.131+404.007C265.766+409.64+274.943+409.58+281.606+409.49" fill-rule="evenodd" fill="#3eb489"/>
<path d="M199.327+332.064C198.154+331.7+196.131+331.278+193.838+331.875C187.887+333.426+186.079+340.29+186.003+340.598C186.663+340.944+187.599+341.294+188.443+340.962C189.86+340.403+189.979+338.332+190.619+336.891C191.408+335.116+193.519+333.102+199.327+332.064" opacity="1" fill-rule="evenodd" fill="#3eb489"/>
<path fill="#32e1a1" fill-rule="evenodd" opacity="1" d="M249.114+342.192C243.831+342.095+240.252+343.466+238.135+344.558C223.087+352.323+222.678+376.551+222.612+380.431C222.54+384.652+222.978+388.631+223.179+390.464C224.054+398.402+225.782+405.006+227.155+409.395C228.854+414.824+229.703+417.539+231.224+420.942C233.011+424.938+234.391+427.06+234.348+430.596C234.336+431.584+234.262+434.646+232.36+437.506C229.318+442.082+223.81+442.814+223.936+443.184C224.062+443.548+229.547+443.42+233.339+439.588C237.006+435.882+236.928+430.895+236.904+430.123C236.808+427.024+235.602+425.219+234.159+422.172C233.268+420.291+232.051+416.186+229.616+407.975C228.075+402.779+225.196+393.072+224.978+382.324C224.807+373.9+224.462+356.991+235.863+347.776C240.544+343.992+245.73+342.699+249.114+342.192"/>
<path opacity="1" fill="#32e1a1" fill-rule="evenodd" d="M272.966+407.975C275.156+407.206+281.311+404.816+281.484+401.255C281.526+400.407+281.216+399.76+279.119+395.859C278.25+394.244+277.234+392.367+276.09+390.275C275.142+387.906+273.876+384.368+272.871+379.958C271.343+373.255+267.427+356.227+275.554+345.883C276.87+344.207+279.291+341.126+283.352+339.094C284.548+338.496+286.354+337.776+289.967+336.338C292.303+335.407+293.472+334.943+294.1+334.754C297.198+333.823+298.703+333.935+301.532+332.696C302.772+332.154+303.707+331.596+303.696+331.576C303.672+331.528+298.783+334.298+292.086+337.175C286.03+339.778+284.704+339.802+282.043+341.919C281.106+342.666+278.655+344.744+276.626+348.218C274.612+351.666+274.079+354.7+273.534+357.746C272.595+362.996+272.956+367.098+273.25+370.208C273.812+376.147+275.259+380.666+276.184+383.555C277.059+386.284+277.704+388.302+279.024+390.684C280.886+394.05+281.547+395.102+281.548+395.102C282.151+396.063+282.556+396.646+282.999+397.658C283.496+398.796+284.004+399.96+283.946+401.16C283.826+403.58+281.439+405.232+280.348+405.987C277.471+407.979+274.374+408.043+272.966+407.975"/>
</g>
<path fill="#32e1a1" opacity="1" fill-rule="evenodd" d="M354.421+527.167C349.138+527.07+345.559+528.441+343.442+529.533C328.394+537.298+327.985+561.526+327.919+565.406C327.847+569.627+328.285+573.606+328.486+575.439C329.361+583.377+331.089+589.981+332.462+594.37C334.161+599.799+335.01+602.514+336.531+605.917C338.318+609.913+339.698+612.035+339.655+615.571C339.643+616.559+339.569+619.621+337.667+622.481C334.625+627.057+329.117+627.789+329.243+628.159C329.369+628.523+334.854+628.395+338.646+624.563C342.313+620.857+342.235+615.87+342.211+615.098C342.115+611.999+340.909+610.194+339.466+607.147C338.575+605.266+337.358+601.161+334.923+592.95C333.382+587.754+330.503+578.047+330.285+567.299C330.114+558.875+329.769+541.966+341.17+532.751C345.851+528.967+351.037+527.674+354.421+527.167"/>
</g>
</svg>
